<?xml version="1.0" standalone="no"?>
<!DOCTYPE svg PUBLIC "-//W3C//DTD SVG 1.1//EN" "http://www.w3.org/Graphics/SVG/1.1/DTD/svg11.dtd" >
<svg xmlns="http://www.w3.org/2000/svg" xmlns:xlink="http://www.w3.org/1999/xlink" version="1.1">
<metadata>
Created by FontForge 20201107 at Fri Feb 17 17:47:34 2023
 By 
Copyright 2011 The Unlock Project Authors (https://github.com/etunni/unlock), with Reserved Font Name 'Unlock'
</metadata>
<defs>
<font id="Unlock-Regular" horiz-adv-x="0" >
  <font-face 
    font-family="Unlock"
    font-weight="400"
    font-stretch="normal"
    units-per-em="1000"
    panose-1="0 0 0 0 0 0 0 0 0 0"
    ascent="800"
    descent="-200"
    x-height="550"
    cap-height="635"
    bbox="-25 -295 1137 958"
    underline-thickness="50"
    underline-position="-125"
    unicode-range="U+0020-FB02"
  />
<missing-glyph horiz-adv-x="654" 
d="M100 -150v924h454v-924h-454zM184 -66h286v756h-286v-756z" />
    <glyph glyph-name="fi" unicode="fi" horiz-adv-x="715" 
d="M45 444v48h40v48q0 114 44.5 159t137.5 45q24 0 49 -3.5t53 -9.5l-17 -153h-152v-60q0 -19 9 -22.5t21 -3.5h122v-48h-77v-406h70v-38h-300v38h40v406h-40zM546 599q-45 0 -69 5t-33 23t-9 55q0 38 9 55.5t33 22.5t69 5q40 0 61 -5t29 -22.5t8 -55.5q0 -37 -8 -55
t-29 -23t-61 -5zM675 0h-270v38h40v474h-40v38h230v-512h40v-38z" />
    <glyph glyph-name="fl" unicode="fl" horiz-adv-x="715" 
d="M45 444v48h40v48q0 114 44.5 159t137.5 45q24 0 49 -3.5t53 -9.5l-17 -153h-152v-60q0 -19 9 -22.5t21 -3.5h122v-48h-77v-406h70v-38h-300v38h40v406h-40zM405 729h230v-691h40v-38h-270v38h40v653h-40v38z" />
    <glyph glyph-name=".notdef" horiz-adv-x="654" 
d="M100 -150v924h454v-924h-454zM184 -66h286v756h-286v-756z" />
    <glyph glyph-name=".null" 
 />
    <glyph glyph-name="nonmarkingreturn" horiz-adv-x="333" 
 />
    <glyph glyph-name="space" unicode=" " horiz-adv-x="260" 
 />
    <glyph glyph-name="exclam" unicode="!" horiz-adv-x="355" 
d="M63 635h229v-270l-30 -132h-169l-30 132v270zM281 68q0 -37 -8 -55t-29.5 -23t-61.5 -5q-45 0 -68.5 5t-32.5 23t-9 55t9 54.5t33 23t69 5.5q40 0 61 -5.5t29 -23t8 -54.5z" />
    <glyph glyph-name="quotedbl" unicode="&#x22;" horiz-adv-x="402" 
d="M15 635h161v-302h-129zM226 635h161l-32 -302h-129v302z" />
    <glyph glyph-name="numbersign" unicode="#" horiz-adv-x="692" 
d="M84 361l18 102h119l29 161h102l-29 -161h98l29 161h102l-29 -161h119l-18 -102h-119l-18 -98h120l-18 -102h-120l-28 -161h-102l28 161h-98l-28 -161h-102l28 161h-117l18 102h117l18 98h-119zM305 361l-18 -98h98l18 98h-98z" />
    <glyph glyph-name="dollar" unicode="$" horiz-adv-x="575" 
d="M523 138q0 -75 -57.5 -110.5t-159.5 -38.5v-96h-34v95q-55 1 -106 8.5t-94 18.5l8 174h70l106 -131h90l-174 217q-19 24 -43 52t-42 59.5t-18 65.5q0 77 56.5 116.5t162.5 42.5v95h34v-94q53 -1 103.5 -10t85.5 -23l-7 -154h-71l-95 117h-90l129 -160q20 -24 44.5 -52.5
t48 -60.5t38.5 -65t15 -66z" />
    <glyph glyph-name="percent" unicode="%" horiz-adv-x="928" 
d="M380 448v-84q0 -61 -16.5 -94t-42.5 -47.5t-57.5 -17.5t-61.5 -3q-28 0 -56.5 3t-52.5 17.5t-38.5 47.5t-14.5 94v84q0 61 16.5 94t43 47.5t58 17.5t61.5 3q27 0 55.5 -3t52.5 -17.5t38.5 -47.5t14.5 -94zM166 239h58l34 332h-58zM415 -48h-50l147 696h51zM888 240v-84
q0 -61 -16.5 -94t-42.5 -47.5t-57.5 -17.5t-61.5 -3q-28 0 -56.5 3t-52.5 17.5t-38.5 47.5t-14.5 94v84q0 61 16.5 94t43 47.5t58 17.5t61.5 3q27 0 55.5 -3t52.5 -17.5t38.5 -47.5t14.5 -94zM674 31h58l34 332h-58z" />
    <glyph glyph-name="ampersand" unicode="&#x26;" horiz-adv-x="645" 
d="M690 0h-308l-152 286h-69l136 -258q-7 -21 -25 -30t-41.5 -11t-47.5 -2q-28 0 -55.5 3.5t-49.5 20.5t-35 55.5t-13 108.5t18.5 109.5t53.5 57t84 21.5q-16 30 -26 64t-10 75q0 50 19 80t50 45t69.5 20t77.5 5q57 0 109.5 -9t107.5 -23l-17 -187h-87l-81 150h-69l116 -217
h119v-72h-80l133 -254h73v-38z" />
    <glyph glyph-name="quotesingle" unicode="'" horiz-adv-x="223" 
d="M15 635h193l-32 -302h-129z" />
    <glyph glyph-name="parenleft" unicode="(" horiz-adv-x="308" 
d="M195 372v-109q0 -98 6.5 -152t19 -77t29.5 -28t38 -5v-51q-35 0 -68 3t-61.5 17t-50.5 46t-34 90t-12 149v125q0 91 12 149t34 90t50.5 46t61.5 17t68 3v-51q-21 0 -38 -5t-29.5 -28t-19 -77t-6.5 -152z" />
    <glyph glyph-name="parenright" unicode=")" horiz-adv-x="308" 
d="M113 263v109q0 98 -6.5 152t-19 77t-29.5 28t-38 5v51q35 0 68 -3t61.5 -17t50.5 -46t34 -89.5t12 -149.5v-125q0 -91 -12 -149t-34 -90t-50.5 -46t-61.5 -17t-68 -3v51q21 0 38 5t29.5 28t19 77t6.5 152z" />
    <glyph glyph-name="asterisk" unicode="*" horiz-adv-x="544" 
d="M323 697l12 -134l132 29l33 -97l-125 -54l70 -114l-85 -62l-88 102l-88 -102l-85 62l70 114l-125 54l33 98l132 -30q2 28 6 65.5t6 68.5h102z" />
    <glyph glyph-name="plus" unicode="+" horiz-adv-x="540" 
d="M60 261v102h159v159h102v-159h159v-102h-159v-159h-102v159h-159z" />
    <glyph glyph-name="comma" unicode="," horiz-adv-x="308" 
d="M248 94q0 -59 -21 -112t-65 -95l-51 8l15 117q-31 0 -48.5 16t-17.5 66q0 43 8.5 62.5t31 25.5t63.5 6q35 0 53 -6t25 -25.5t7 -62.5z" />
    <glyph glyph-name="hyphen" unicode="-" horiz-adv-x="372" 
d="M30 213v138h312v-138h-312z" />
    <glyph glyph-name="period" unicode="." horiz-adv-x="308" 
d="M248 88q0 -44 -7.5 -65t-26.5 -27t-55 -6q-40 0 -61.5 6t-29.5 27t-8 65q0 45 8 66.5t29.5 27.5t62.5 6q35 0 54 -6t26.5 -27.5t7.5 -66.5z" />
    <glyph glyph-name="slash" unicode="/" horiz-adv-x="238" 
d="M33 -129h-50l221 858h51z" />
    <glyph glyph-name="zero" unicode="0" horiz-adv-x="570" 
d="M542 363v-126q0 -74 -16 -120.5t-44 -72.5t-63 -37t-73 -13.5t-74 -2.5q-33 0 -67.5 2.5t-66.5 13.5t-57 37t-39.5 72.5t-14.5 120.5v126q0 74 16 120.5t43.5 72.5t62.5 37t73 13.5t75 2.5q33 0 67.5 -2.5t66.5 -13.5t57 -37t39.5 -72.5t14.5 -120.5zM187 52h149l51 493
h-149z" />
    <glyph glyph-name="one" unicode="1" horiz-adv-x="438" 
d="M438 0h-423v38h104v317l115 30v28h-187l-23 133l266 64h44v-572h104v-38z" />
    <glyph glyph-name="two" unicode="2" horiz-adv-x="570" 
d="M51 0l-15 38l312 512h-80l-89 -151h-83l-17 186q53 14 106 22t108 8q41 0 79 -4.5t68.5 -17t48.5 -37t18 -65.5q0 -55 -28 -110t-74 -126l-123 -189h70l93 142h61l18 -208h-473z" />
    <glyph glyph-name="three" unicode="3" horiz-adv-x="570" 
d="M271 615q127 0 181.5 -40.5t54.5 -111.5q0 -72 -31.5 -105t-84.5 -44v-7q57 -8 90.5 -39.5t33.5 -108.5q0 -81 -57 -127.5t-190 -46.5q-55 0 -107.5 8.5t-106.5 21.5l15 186h105l79 -151h80l-111 208h-82v83h94l111 209h-80l-79 -151h-105l-15 186q52 14 102.5 22
t102.5 8z" />
    <glyph glyph-name="four" unicode="4" horiz-adv-x="570" 
d="M8 115v60l160 425h309v-402h54v-83h-54v-77h64v-38h-413v38h134v77h-254zM262 540h-41l-80 -359h121v359z" />
    <glyph glyph-name="five" unicode="5" horiz-adv-x="570" 
d="M221 271h-144v329h439l-34 -201h-121v141h-125v-191h66q64 0 113.5 -13.5t77.5 -51t28 -109.5q0 -98 -58 -144t-195 -46q-55 0 -106.5 8.5t-101.5 21.5l16 186h104l79 -151h80z" />
    <glyph glyph-name="six" unicode="6" horiz-adv-x="570" 
d="M275 -15q-32 0 -65 2.5t-63.5 14t-54.5 38t-38 74t-14 122.5v128q0 75 15.5 122.5t42 74t60 38t70 14t71.5 2.5q56 0 107 -6.5t103 -23.5l-30 -186h-127v151h-127v-201h91q63 0 111 -14.5t75 -52.5t27 -109q0 -64 -23.5 -106t-79 -62t-151.5 -20zM225 280v-230h127v230
h-127z" />
    <glyph glyph-name="seven" unicode="7" horiz-adv-x="570" 
d="M50 0v38h97l164 496h-89l-54 -172h-101l-22 238h484l15 -38l-177 -524h136v-38h-453z" />
    <glyph glyph-name="eight" unicode="8" horiz-adv-x="570" 
d="M294 615q104 0 163 -30t59 -107q0 -44 -13.5 -75t-32.5 -50l-126 73v124h-127v-97l244 -141q37 -25 52.5 -58.5t15.5 -80.5q0 -64 -23.5 -106t-79 -62t-151.5 -20q-110 0 -172.5 31t-62.5 116q0 41 14.5 73t39.5 52l131 -77v-130h127v104l-236 133q-14 10 -29 25.5
t-24.5 43t-9.5 71.5q0 65 22.5 106.5t75 61.5t143.5 20z" />
    <glyph glyph-name="nine" unicode="9" horiz-adv-x="570" 
d="M217 50h127v166h-92q-65 0 -112.5 15.5t-73.5 57.5t-26 120t21.5 123t76.5 64t156 19q32 0 65 -2.5t63.5 -14t54.5 -38t38 -74t14 -122.5v-128q0 -75 -16 -122.5t-43 -74t-61 -38t-71 -14t-73 -2.5q-54 0 -106.5 5.5t-103.5 17.5l15 159h116zM344 285v265h-127v-265h127z
" />
    <glyph glyph-name="colon" unicode=":" horiz-adv-x="308" 
d="M248 425q0 -44 -7.5 -65t-26.5 -27t-55 -6q-40 0 -61.5 6t-29.5 27t-8 65q0 45 8 66.5t29.5 27.5t62.5 6q35 0 54 -6t26.5 -27.5t7.5 -66.5zM248 88q0 -44 -7.5 -65t-26.5 -27t-55 -6q-40 0 -61.5 6t-29.5 27t-8 65q0 45 8 66.5t29.5 27.5t62.5 6q35 0 54 -6t26.5 -27.5
t7.5 -66.5z" />
    <glyph glyph-name="semicolon" unicode=";" horiz-adv-x="308" 
d="M248 94q0 -59 -21 -112t-65 -95l-51 8l15 117q-31 0 -48.5 16t-17.5 66q0 43 8.5 62.5t31 25.5t63.5 6q35 0 53 -6t25 -25.5t7 -62.5zM248 425q0 -44 -7.5 -65t-26.5 -27t-55 -6q-40 0 -61.5 6t-29.5 27t-8 65q0 45 8 66.5t29.5 27.5t62.5 6q35 0 54 -6t26.5 -27.5
t7.5 -66.5z" />
    <glyph glyph-name="less" unicode="&#x3c;" horiz-adv-x="540" 
d="M60 266v97l420 180v-102l-312 -127l312 -126v-102z" />
    <glyph glyph-name="equal" unicode="=" horiz-adv-x="540" 
d="M60 361v102h420v-102h-420zM60 161v102h420v-102h-420z" />
    <glyph glyph-name="greater" unicode="&#x3e;" horiz-adv-x="540" 
d="M480 363v-97l-420 -180v102l312 126l-312 127v102z" />
    <glyph glyph-name="question" unicode="?" horiz-adv-x="446" 
d="M436 429q0 -65 -16.5 -107.5t-43.5 -66.5t-59.5 -34t-64.5 -10q-26 0 -64.5 5t-64.5 13v41l171 305h-90l-99 -177h-78l-17 222q51 14 102 22t103 8q112 0 166.5 -50t54.5 -171zM313 68q0 -37 -8 -55t-29.5 -23t-61.5 -5q-45 0 -69 5t-32.5 23t-8.5 55t9 54.5t33 23
t69 5.5q40 0 61 -5.5t29 -23t8 -54.5z" />
    <glyph glyph-name="at" unicode="@" horiz-adv-x="787" 
d="M492 69l-31 70h-8q0 -46 -31 -64t-73 -18q-27 0 -53.5 2.5t-48 14t-34.5 38t-13 75.5q0 57 20 84.5t54 36t75 8.5h77v142h-73l-17 -93h-102l-17 136q44 11 95.5 18t95.5 7q33 0 65.5 -4t59 -16.5t42.5 -37.5t16 -67v-284h89q12 60 12 150q0 100 -14.5 163t-49 97.5
t-92 47.5t-143.5 13t-143.5 -13t-91.5 -47.5t-48.5 -97.5t-14.5 -163q0 -99 14.5 -162t48.5 -97.5t91.5 -47.5t143.5 -13q70 0 149.5 11t148.5 27v-47q-69 -16 -148.5 -27.5t-149.5 -11.5q-96 0 -162.5 15t-107.5 54.5t-59.5 111.5t-18.5 187q0 116 18.5 188t59.5 111.5
t107.5 54t162.5 14.5q95 0 161.5 -14.5t108 -54t60.5 -111.5t19 -188q0 -123 -22 -198h-228zM426 269h-80v-130h80v130z" />
    <glyph glyph-name="A" unicode="A" horiz-adv-x="602" 
d="M196 0h-221v38h41l87 559h-62v38h452l92 -597h42v-38h-290l-14 150h-127v-150zM196 575v-370h122l-33 370h-89z" />
    <glyph glyph-name="B" unicode="B" horiz-adv-x="654" 
d="M639 162q0 -61 -22.5 -94t-61 -47.5t-88 -17.5t-103.5 -3h-334v38h44v559h-44v38h324q54 0 103.5 -3t88 -17.5t61 -47.5t22.5 -94q0 -71 -41 -105t-103 -46v-8q44 -8 78.5 -25.5t55 -48t20.5 -78.5zM289 579v-234h135v234h-135zM424 60v230h-135v-230h135z" />
    <glyph glyph-name="C" unicode="C" horiz-adv-x="590" 
d="M365 57v182h215v-12q0 -84 -21.5 -133t-61 -72t-93 -30t-118.5 -7q-42 0 -81.5 2.5t-73 15t-58.5 42t-39 82t-14 135.5v112q0 83 15.5 135t42.5 81.5t63.5 42t79 15t87.5 2.5q60 0 110 -7t86 -30t56 -72t20 -133v-19h-215v190h-130v-522h130z" />
    <glyph glyph-name="D" unicode="D" horiz-adv-x="674" 
d="M379 0h-349v38h44v559h-44v38h349q44 0 84.5 -2.5t75 -15t60.5 -42t40.5 -81.5t14.5 -135v-82q0 -83 -14.5 -135.5t-40.5 -81.5t-60.5 -42t-75 -15.5t-84.5 -2.5zM439 60v519h-150v-519h150z" />
    <glyph glyph-name="E" unicode="E" horiz-adv-x="571" 
d="M30 0v38h44v559h-44v38h506v-214h-117l-41 154h-89v-236h191v-55h-191v-224h89l41 154h117v-214h-506z" />
    <glyph glyph-name="F" unicode="F" horiz-adv-x="546" 
d="M470 284h-181v-246h124v-38h-383v38h44v559h-44v38h496v-214h-117l-41 154h-79v-236h181v-55z" />
    <glyph glyph-name="G" unicode="G" horiz-adv-x="620" 
d="M286 -15q-42 0 -81.5 2.5t-73 15t-58.5 42t-39 82t-14 135.5v112q0 83 15.5 135t42.5 81.5t63.5 42t79 15t88.5 2.5q62 0 113.5 -7t89 -30t58 -72t20.5 -133v-19h-215v190h-140v-503h140v179h-70v55h285v-310h-115l-29 76h-11q-16 -40 -38.5 -59.5t-50.5 -25.5t-60 -6z
" />
    <glyph glyph-name="H" unicode="H" horiz-adv-x="728" 
d="M289 0h-259v38h44v559h-44v38h259v-296h150v296h259v-38h-44v-559h44v-38h-259v284h-150v-284z" />
    <glyph glyph-name="I" unicode="I" horiz-adv-x="381" 
d="M342 597h-44v-559h44v-38h-303v38h44v559h-44v38h303v-38z" />
    <glyph glyph-name="J" unicode="J" horiz-adv-x="351" 
d="M83 249v348h-64v38h323v-38h-44v-392q0 -91 -24.5 -138.5t-65 -64.5t-90.5 -17q-49 0 -75.5 5.5t-43.5 9.5l23 170h127v53q0 20 -9 23t-21 3h-36z" />
    <glyph glyph-name="K" unicode="K" horiz-adv-x="671" 
d="M460 322v-23h45q35 0 46 -11.5t18 -45.5l40 -204h57v-38h-247l-60 284h-70v-284h-259v38h44v559h-44v38h259v-296h73l57 296h237v-38h-52l-64 -212q-10 -34 -30.5 -47t-49.5 -16z" />
    <glyph glyph-name="L" unicode="L" horiz-adv-x="531" 
d="M526 214v-214h-496v38h44v559h-44v38h303v-38h-44v-537h79l41 154h117z" />
    <glyph glyph-name="M" unicode="M" horiz-adv-x="845" 
d="M30 597v38h374l55 -247h19l69 247h268v-38h-44v-559h44v-38h-274l111 575h-41l-159 -575h-130l-129 575h-41l81 -575h-203v38h44v559h-44z" />
    <glyph glyph-name="N" unicode="N" horiz-adv-x="727" 
d="M30 597v38h385l141 -575h41l-81 575h191v-38h-44v-597h-341l-129 575h-41l69 -575h-191v38h44v559h-44z" />
    <glyph glyph-name="O" unicode="O" horiz-adv-x="620" 
d="M600 374v-112q0 -83 -16 -135.5t-45 -82t-67.5 -42t-83.5 -15t-93 -2.5q-44 0 -84.5 2.5t-75 15t-60.5 42t-40.5 82t-14.5 135.5v112q0 83 16 135t45 81.5t67.5 42t83.5 15t93 2.5q44 0 84.5 -2.5t75 -15t60.5 -42t40.5 -81.5t14.5 -135zM385 57v522h-150v-522h150z" />
    <glyph glyph-name="P" unicode="P" horiz-adv-x="669" 
d="M413 0h-383v38h44v559h-44v38h352q54 0 103 -4.5t87 -26.5t60 -72t22 -142t-22.5 -143t-61 -73t-88 -26.5t-103.5 -4.5h-90v-105h124v-38zM439 215v350h-150v-350h150z" />
    <glyph glyph-name="Q" unicode="Q" horiz-adv-x="620" 
d="M531 -165h-279l-32 150q-56 0 -101.5 24.5t-72 84t-26.5 163.5v117q0 83 16 135t45 81.5t67.5 42t83.5 15t93 2.5q44 0 84.5 -2.5t75 -15t60.5 -42t40.5 -81.5t14.5 -135v-117q0 -104 -26.5 -163.5t-72 -84t-101.5 -24.5l24 -112h107v-38zM385 54v525h-150v-525h150z" />
    <glyph glyph-name="R" unicode="R" horiz-adv-x="676" 
d="M289 0h-259v38h44v559h-44v38h352q54 0 103 -3.5t87 -20.5t60 -55.5t22 -108.5q0 -65 -19 -103t-52 -56t-76 -25v-23h45q35 0 47.5 -12.5t16.5 -47.5l17 -142h53v-38h-247v210h-150v-210zM439 282v283h-150v-283h150z" />
    <glyph glyph-name="S" unicode="S" horiz-adv-x="555" 
d="M271 -15q-38 0 -83.5 4.5t-90 12t-82.5 17.5l27 180h128l31 -128h111v75l-197 146q-42 31 -64 74t-22 113q0 58 21.5 92.5t58 51.5t84.5 22.5t100 5.5t114.5 -9.5t114.5 -24.5l-27 -180h-116l-27 128h-100v-75l197 -146q42 -31 64 -74t22 -113q0 -58 -21.5 -92.5
t-58.5 -51.5t-84.5 -22.5t-99.5 -5.5z" />
    <glyph glyph-name="T" unicode="T" horiz-adv-x="579" 
d="M574 635v-208h-117l-25 138h-57l22 -168v-359h84v-38h-383v38h84v359l22 168h-57l-25 -144h-117v214h569z" />
    <glyph glyph-name="U" unicode="U" horiz-adv-x="648" 
d="M274 57h150v578h214v-38h-44v-363q0 -93 -21 -144.5t-57.5 -73.5t-83 -26.5t-98.5 -4.5q-44 0 -85.5 2.5t-76.5 13.5t-61.5 37.5t-41.5 73.5t-15 122v363h-44v38h264v-578z" />
    <glyph glyph-name="V" unicode="V" horiz-adv-x="652" 
d="M652 635v-38h-42l-114 -597h-362l-92 597h-42v38h290l52 -575h89v575h221z" />
    <glyph glyph-name="W" unicode="W" horiz-adv-x="955" 
d="M552 182h-44l-35 -182h-339l-90 597h-44v38h288l54 -575h80v575h162l53 -575h80v575h238v-38h-43l-115 -597h-245v182z" />
    <glyph glyph-name="X" unicode="X" horiz-adv-x="640" 
d="M415 635h214l-119 -322l87 -275h43v-38h-293l-63 260h-59v-260h-214l118 324l-85 273h-44v38h293l63 -259h59v259z" />
    <glyph glyph-name="Y" unicode="Y" horiz-adv-x="626" 
d="M626 597h-42l-133 -451v-108h84v-38h-443v38h84v108l-133 451h-43v38h266l82 -335h57v335h221v-38z" />
    <glyph glyph-name="Z" unicode="Z" horiz-adv-x="557" 
d="M397 84l29 131h118l13 -215h-562l307 552h-107l-30 -131h-118l-12 215h487l32 -67l-285 -485h128z" />
    <glyph glyph-name="bracketleft" unicode="[" horiz-adv-x="308" 
d="M288 -50h-208v735h208v-51h-94v-633h94v-51z" />
    <glyph glyph-name="backslash" unicode="\" horiz-adv-x="238" 
d="M255 -129h-50l-222 858h51z" />
    <glyph glyph-name="bracketright" unicode="]" horiz-adv-x="308" 
d="M20 1h94v633h-94v51h208v-735h-208v51z" />
    <glyph glyph-name="asciicircum" unicode="^" horiz-adv-x="540" 
d="M221 729h97l180 -420h-102l-126 312l-127 -312h-102z" />
    <glyph glyph-name="underscore" unicode="_" horiz-adv-x="486" 
d="M24 -153v138h438v-138h-438z" />
    <glyph glyph-name="grave" unicode="`" horiz-adv-x="311" 
d="M49 780l211 -102l-33 -92l-227 59z" />
    <glyph glyph-name="a" unicode="a" horiz-adv-x="618" 
d="M92 379l-24 156q51 14 113 22t114 8q39 0 81 -4.5t79 -19.5t60 -45t23 -81v-377h40v-38h-123l-40 76h-13q-14 -40 -31 -59.5t-44.5 -25.5t-71.5 -6q-38 0 -76.5 3t-71 17.5t-52.5 48.5t-20 96q0 55 17 88t47 49.5t68 22t80 5.5h101v175h-114l-27 -111h-115zM348 76v164
h-137v-164h137z" />
    <glyph glyph-name="b" unicode="b" horiz-adv-x="672" 
d="M208 464h18q15 40 37 59.5t51 25.5t64 6q46 0 88 -4.5t75 -27t52 -74t19 -145.5v-68q0 -75 -14.5 -122.5t-40.5 -74t-60 -38t-73.5 -14t-80.5 -2.5q-38 0 -79 7.5t-77 19t-59 23.5l-15 -35h-28v691h-40v38h230v-134l-41 -15q-18 -7 -22 -12.5t-4 -17.5v-86zM422 60v404
h-147v-404h147z" />
    <glyph glyph-name="c" unicode="c" horiz-adv-x="555" 
d="M320 -15q-41 0 -79.5 2.5t-71 14t-57.5 38t-38.5 74t-13.5 122.5v78q0 75 13.5 122.5t38.5 74t57.5 38t71 14t79.5 2.5q52 0 101.5 -8t98.5 -22l-24 -156h-115l-27 121h-104v-450h104l27 121h115l24 -156q-51 -19 -99.5 -24.5t-100.5 -5.5z" />
    <glyph glyph-name="d" unicode="d" horiz-adv-x="668" 
d="M628 0h-123l-40 76h-13q-20 -40 -39.5 -59.5t-46.5 -25.5t-68 -6q-45 0 -87.5 5t-76.5 27.5t-54 74t-20 144.5v63q0 75 14.5 122.5t41 74t61 38t75.5 14t85 2.5q14 0 30 -0.5t30 -1.5v143h-40v38h231v-691h40v-38zM250 475v-399h147v399h-147z" />
    <glyph glyph-name="e" unicode="e" horiz-adv-x="593" 
d="M250 60h125l26 111h107l23 -156q-50 -13 -111.5 -21.5t-113.5 -8.5q-43 0 -86.5 5.5t-79.5 24.5t-58 59.5t-22 109.5v130q0 75 14.5 122.5t40.5 74t60 38t74 14t82 2.5t80.5 -3t68 -17.5t46.5 -48.5t17 -96t-17 -96t-46.5 -48.5t-68 -17.5t-80.5 -3h-81v-175zM250 490
v-180h137v180h-137z" />
    <glyph glyph-name="f" unicode="f" horiz-adv-x="360" 
d="M45 444v48h40v48q0 114 44.5 159t137.5 45q24 0 49 -3.5t53 -9.5l-17 -153h-152v-60q0 -19 9 -22.5t21 -3.5h122v-48h-77v-406h70v-38h-300v38h40v406h-40z" />
    <glyph glyph-name="g" unicode="g" horiz-adv-x="589" 
d="M20 -41q0 51 13.5 80t32 40.5t34.5 11.5h75v13q-33 7 -42 25t-9 38v62q-38 13 -62.5 44.5t-24.5 92.5v21q0 67 18 103.5t49.5 52.5t72 19t85.5 3q64 0 99 -15.5t35 -65.5h13l10 41q11 43 26.5 59t59.5 16h44v-89h-11q-10 0 -14.5 -6t-4.5 -22v-117q0 -57 -20.5 -88
t-56 -44t-81 -16t-95.5 -3h-36v-24q0 -30 7 -43t27 -13h149q27 0 58.5 -13t53.5 -46t22 -94q0 -69 -22.5 -107.5t-81.5 -54t-167 -15.5q-85 0 -136 7.5t-77 25t-34.5 47t-8.5 74.5zM347 297v187h-137v-187h137zM403 10h-242v-105h242v105z" />
    <glyph glyph-name="h" unicode="h" horiz-adv-x="692" 
d="M652 0h-230v464h-147v-464h-230v38h40v653h-40v38h230v-134l-41 -15q-18 -7 -22 -12.5t-4 -17.5v-86h18q15 40 40 59.5t62 25.5t87 6q61 0 105 -13t68 -45.5t24 -91.5v-367h40v-38z" />
    <glyph glyph-name="i" unicode="i" horiz-adv-x="355" 
d="M186 599q-45 0 -69 5t-33 23t-9 55q0 38 9 55.5t33 22.5t69 5q40 0 61 -5t29 -22.5t8 -55.5q0 -37 -8 -55t-29 -23t-61 -5zM315 0h-270v38h40v474h-40v38h230v-512h40v-38z" />
    <glyph glyph-name="j" unicode="j" horiz-adv-x="360" 
d="M191 599q-45 0 -69 5t-33 23t-9 55q0 38 9 55.5t33 22.5t69 5q40 0 61 -5t29 -22.5t8 -55.5q0 -37 -8 -55t-29 -23t-61 -5zM98 -195q-21 0 -42 2t-42 6l20 157h122v53q0 20 -9 23t-21 3h-36v463h-40v38h230v-530q0 -114 -46.5 -164.5t-135.5 -50.5z" />
    <glyph glyph-name="k" unicode="k" horiz-adv-x="642" 
d="M270 0h-230v38h40v653h-40v38h257v-149l-19 -7q-18 -7 -22 -12.5t-4 -17.5v-184h18q22 76 47 119.5t57 62t75 18.5q21 0 52.5 -1.5t52.5 -6.5l-20 -157h-122v-53q0 -19 9 -22.5t21 -3.5h85l66 -277h39v-38h-241l-48 268h-73v-268z" />
    <glyph glyph-name="l" unicode="l" horiz-adv-x="355" 
d="M45 729h230v-691h40v-38h-270v38h40v653h-40v38z" />
    <glyph glyph-name="m" unicode="m" horiz-adv-x="969" 
d="M275 474v-474h-230v38h40v474h-40v38h133l35 -76h13q15 40 38.5 59.5t56 25.5t75.5 6q50 0 88 -11t60 -40q24 33 60.5 42t88.5 9q60 0 104 -13t68 -45.5t24 -91.5v-377h40v-38h-230v474h-117v-474h-190v474h-117z" />
    <glyph glyph-name="n" unicode="n" horiz-adv-x="692" 
d="M652 0h-230v474h-147v-474h-230v38h40v474h-40v38h133l35 -76h13q15 40 40 59.5t62 25.5t87 6q61 0 105 -13t68 -45.5t24 -91.5v-377h40v-38z" />
    <glyph glyph-name="o" unicode="o" horiz-adv-x="647" 
d="M587 314v-78q0 -75 -14.5 -122.5t-41 -74t-61 -38t-75.5 -14t-85 -2.5q-49 0 -94 4.5t-80.5 27t-55.5 74t-20 145.5v78q0 75 14.5 122.5t41 74t61 38t75.5 14t85 2.5q50 0 94.5 -4.5t80 -27t55.5 -74t20 -145.5zM397 60v430h-147v-430h147z" />
    <glyph glyph-name="p" unicode="p" horiz-adv-x="668" 
d="M40 550h123l40 -76h13q15 40 35.5 59.5t50.5 25.5t71 6q45 0 87 -5t75.5 -27.5t53 -74t19.5 -144.5v-63q0 -75 -14.5 -122.5t-41 -74t-61 -38t-75.5 -14t-85 -2.5q-15 0 -30 0.5t-30 1.5v-144h54v-38h-245v692h-40v38zM418 75v399h-147v-399h147z" />
    <glyph glyph-name="q" unicode="q" horiz-adv-x="667" 
d="M627 -180h-230v135l41 15q18 7 22 12.5t4 17.5v86h-18q-15 -40 -37 -59.5t-51 -25.5t-64 -6q-46 0 -88 4.5t-75 27t-52 74t-19 145.5v68q0 75 14.5 122.5t40.5 74t60 38t73.5 14t80.5 2.5q38 0 79 -7.5t77.5 -19t58.5 -23.5l15 35h28v-692h40v-38zM250 490v-404h147v404
h-147z" />
    <glyph glyph-name="r" unicode="r" horiz-adv-x="391" 
d="M45 550h121l20 -76h8q17 53 45.5 72t69.5 19q29 0 63 -6l-21 -165h-142v-53q0 -19 9 -22.5t21 -3.5h36v-277h81v-38h-311v38h40v474h-40v38z" />
    <glyph glyph-name="s" unicode="s" horiz-adv-x="570" 
d="M281 -15q-52 0 -116 8.5t-115 21.5l24 156h115l27 -111h114v72l-187 129q-40 27 -60.5 60t-20.5 94q0 51 19 81t52.5 45t76.5 19.5t91 4.5q47 0 104.5 -8t103.5 -22l-24 -156h-105l-24 111h-104v-72l187 -129q40 -27 60.5 -60t20.5 -94q0 -51 -19 -81t-52.5 -45
t-76.5 -19.5t-91 -4.5z" />
    <glyph glyph-name="t" unicode="t" horiz-adv-x="390" 
d="M40 550h50l108 118h72v-118h105v-48h-105v-452h57v99h48v-73q0 -57 -39 -74t-104 -17q-25 0 -52 3t-49.5 17.5t-36.5 48.5t-14 96v352h-40v48z" />
    <glyph glyph-name="u" unicode="u" horiz-adv-x="692" 
d="M80 150v362h-40v38h230v-474h147v474h190v-512h40v-38h-123l-40 76h-13q0 -57 -42 -74t-113 -17q-40 0 -81.5 3t-76.5 17.5t-56.5 48.5t-21.5 96z" />
    <glyph glyph-name="v" unicode="v" horiz-adv-x="598" 
d="M382 550h181l-110 -550h-321l-73 512h-39v38h241l44 -466h77v466z" />
    <glyph glyph-name="w" unicode="w" horiz-adv-x="855" 
d="M484 158h-26l-31 -158h-295l-73 512h-39v38h241l44 -466h77v466h136l44 -466h77v466h181l-110 -550h-226v158z" />
    <glyph glyph-name="x" unicode="x" horiz-adv-x="603" 
d="M221 0h-186l102 280l-73 232h-39v38h246l55 -226h56v226h186l-103 -280l74 -232h39v-38h-246l-55 226h-56v-226z" />
    <glyph glyph-name="y" unicode="y" horiz-adv-x="598" 
d="M382 550h181l-105 -519q-23 -115 -92.5 -170.5t-162.5 -55.5q-21 0 -52.5 2t-52.5 6l20 157h122v53q0 20 -9 23t-21 3h-85l-66 463h-39v38h241l48 -501h73v501z" />
    <glyph glyph-name="z" unicode="z" horiz-adv-x="564" 
d="M371 73l34 113h102l11 -186h-503l287 477h-106l-34 -113h-102l-11 186h439l27 -58l-250 -419h106z" />
    <glyph glyph-name="braceleft" unicode="{" horiz-adv-x="308" 
d="M0 295v44l62 18v58q0 93 16.5 147.5t46.5 80.5t71.5 33.5t91.5 7.5v-51q-21 0 -38 -4.5t-29.5 -26t-19 -71t-6.5 -140.5q0 -28 -18 -48t-53 -20v-12q35 0 53.5 -20t18.5 -48q0 -91 6.5 -140.5t19 -71t29 -26t37.5 -4.5v-51q-50 0 -91.5 7.5t-71.5 33.5t-46.5 80.5
t-16.5 147.5v58z" />
    <glyph glyph-name="bar" unicode="|" horiz-adv-x="254" 
d="M100 -50v734h54v-734h-54z" />
    <glyph glyph-name="braceright" unicode="}" horiz-adv-x="308" 
d="M308 339v-44l-62 -18v-58q0 -93 -16.5 -147.5t-46.5 -80.5t-71.5 -33.5t-91.5 -7.5v51q21 0 38 4.5t29.5 26t19 71t6.5 140.5q0 28 18.5 48t52.5 20v12q-35 0 -53.5 20t-18.5 48q0 91 -6.5 140.5t-19 71t-29 26t-37.5 4.5v51q50 0 91.5 -7.5t71.5 -33.5t46.5 -80.5
t16.5 -147.5v-58z" />
    <glyph glyph-name="asciitilde" unicode="~" horiz-adv-x="540" 
d="M60 261v102q22 -14 47 -19t50 -5q39 0 75.5 11t73 22.5t75.5 11.5q26 0 50.5 -5t48.5 -16v-102q-22 12 -46.5 18.5t-50.5 6.5q-40 0 -77.5 -12.5l-75 -25t-77.5 -12.5q-24 0 -48.5 5.5t-44.5 19.5z" />
    <glyph glyph-name="uni00A0" unicode="&#xa0;" horiz-adv-x="260" 
 />
    <glyph glyph-name="exclamdown" unicode="&#xa1;" horiz-adv-x="355" 
d="M74 482q0 38 8 55.5t29.5 22.5t61.5 5q45 0 69 -5t32.5 -22.5t8.5 -55.5q0 -37 -9 -54.5t-32.5 -23t-69.5 -5.5q-40 0 -61 5.5t-29 23t-8 54.5zM292 -85h-229v270l30 132h169l30 -132v-270z" />
    <glyph glyph-name="cent" unicode="&#xa2;" horiz-adv-x="547" 
d="M305 665v-109q45 -1 88 -8t87 -18l-27 -164h-94l-27 125h-87v-380h87l27 125h94l27 -164q-83 -26 -174 -26v-112h-34v112q-43 0 -81.5 7t-68 31.5t-46 76t-16.5 140.5t16.5 140.5t46 75.5t67.5 31.5t81 7.5v109h34z" />
    <glyph glyph-name="sterling" unicode="&#xa3;" horiz-adv-x="575" 
d="M499 0h-458v33h54v244h-54v33h54v54q0 75 15 122.5t41 74t57.5 38t65 14t64.5 2.5q50 0 99.5 -9.5t78.5 -20.5l-45 -166h-84v131h-87v-240h123v-33h-123v-26q0 -76 -13 -123.5t-34 -74.5h121l34 109h91v-162z" />
    <glyph glyph-name="currency" unicode="&#xa4;" horiz-adv-x="575" 
d="M56 556l75 -75q48 29 156 29q107 0 156 -29l75 75l24 -24l-73 -73q22 -25 30 -64t8 -94t-8 -94t-30 -65l73 -72l-24 -24l-75 75q-49 -29 -156 -29q-108 0 -156 29l-75 -75l-24 24l72 72q-22 26 -29.5 65t-7.5 94t7.5 94t29.5 64l-72 73zM287 387q-36 0 -54 -5t-24 -23
t-6 -58q0 -41 6 -59.5t24 -22.5t54 -4t54 4t24 22.5t6 59.5q0 40 -6 58t-24 23t-54 5z" />
    <glyph glyph-name="yen" unicode="&#xa5;" horiz-adv-x="567" 
d="M470 0h-373v33h85v171h-139v33h128l-17 40h-111v33h98l-120 290h204l61 -290h76l-61 290h245l-120 -290h98v-33h-112l-16 -40h128v-33h-139v-171h85v-33z" />
    <glyph glyph-name="brokenbar" unicode="&#xa6;" horiz-adv-x="254" 
d="M100 405v279h54v-279h-54zM100 -50v279h54v-279h-54z" />
    <glyph glyph-name="section" unicode="&#xa7;" horiz-adv-x="597" 
d="M465 271h-333v97q0 85 13.5 138t36.5 83t53 43t63.5 15.5t67.5 2.5q56 0 111.5 -11t89.5 -23l-51 -186h-94v147h-80v-269h123v-37zM132 214h333v-97q0 -85 -13.5 -138t-36.5 -83t-53 -43t-63.5 -15.5t-67.5 -2.5q-56 0 -111 11t-90 23l51 186h94v-147h80v269h-123v37z
" />
    <glyph glyph-name="dieresis" unicode="&#xa8;" horiz-adv-x="432" 
d="M184 682q0 -37 -5 -55t-18.5 -23t-39.5 -5q-29 0 -44.5 5t-21 23t-5.5 55q0 38 5.5 55.5t21 22.5t44.5 5q26 0 39.5 -5t18.5 -22.5t5 -55.5zM382 682q0 -37 -5 -55t-18.5 -23t-39.5 -5q-29 0 -44.5 5t-21 23t-5.5 55q0 38 5.5 55.5t21 22.5t44.5 5q26 0 39.5 -5
t18.5 -22.5t5 -55.5z" />
    <glyph glyph-name="copyright" unicode="&#xa9;" horiz-adv-x="528" 
d="M508 465q0 -80 -13.5 -130.5t-42.5 -78t-75.5 -38t-112.5 -10.5q-67 0 -113.5 10.5t-75.5 38t-42 78t-13 130.5q0 81 13 132t42 78t75.5 37.5t113.5 10.5q66 0 112.5 -10.5t75.5 -37.5t42.5 -78t13.5 -132zM473 465q0 94 -19 142t-64.5 65.5t-125.5 17.5q-60 0 -100.5 -9
t-64.5 -33t-34 -68.5t-10 -114.5q0 -92 18.5 -140.5t64.5 -66t126 -17.5t125.5 17.5t64.5 66t19 140.5zM284 322v118h131v-5q0 -57 -12.5 -88.5t-34.5 -44.5t-50.5 -16t-59.5 -3q-28 0 -53.5 3t-45.5 16t-31.5 44.5t-11.5 88.5v62q0 57 13 88t35 44t50 16t59 3q28 0 53.5 -3
t45.5 -16t31.5 -44t11.5 -88v-10h-131v122h-47v-287h47z" />
    <glyph glyph-name="ordfeminine" unicode="&#xaa;" horiz-adv-x="367" 
d="M133 536h72v107h-57l-21 -83h-75l-12 116q33 6 68.5 12t69.5 6t66.5 -6t54.5 -26t22 -62v-214h23v-36h-83l-23 53h-6q0 -23 -16 -36.5t-39 -19.5t-44 -6q-27 0 -50.5 4t-37.5 24.5t-14 69.5q0 43 12.5 63.5t35.5 27t54 6.5zM205 403v98h-70v-98h70z" />
    <glyph glyph-name="guillemotleft" unicode="&#xab;" horiz-adv-x="488" 
d="M391 479l76 -64l-82 -134l83 -135l-77 -64l-145 156v86zM160 479l76 -64l-82 -134l83 -135l-77 -64l-145 156v86z" />
    <glyph glyph-name="logicalnot" unicode="&#xac;" horiz-adv-x="540" 
d="M60 261v102h420v-242h-81v140h-339z" />
    <glyph glyph-name="registered" unicode="&#xae;" horiz-adv-x="528" 
d="M508 465q0 -80 -13.5 -130.5t-42.5 -78t-75.5 -38t-112.5 -10.5q-67 0 -113.5 10.5t-75.5 38t-42 78t-13 130.5q0 81 13 132t42 78t75.5 37.5t113.5 10.5q66 0 112.5 -10.5t75.5 -37.5t42.5 -78t13.5 -132zM473 465q0 94 -19 142t-64.5 65.5t-125.5 17.5q-60 0 -100.5 -9
t-64.5 -33t-34 -68.5t-10 -114.5q0 -92 18.5 -140.5t64.5 -66t126 -17.5t125.5 17.5t64.5 66t19 140.5zM245 291h-121v349h149q40 0 74.5 -4.5t56 -27t21.5 -77.5q0 -54 -23 -71t-58 -22v-7h24q20 0 27 -6.5t9 -26.5l11 -107h-123v114h-47v-114zM292 436v166h-47v-166h47z
" />
    <glyph glyph-name="macron" unicode="&#xaf;" horiz-adv-x="372" 
d="M40 610v124h292v-124h-292z" />
    <glyph glyph-name="degree" unicode="&#xb0;" horiz-adv-x="364" 
d="M182 711q62 0 93.5 -13.5t42.5 -44.5t11 -82t-11 -82t-42.5 -44.5t-93.5 -13.5q-61 0 -93 13.5t-43 44.5t-11 82t11 82t43 44.5t93 13.5zM182 629q-36 0 -46 -9t-10 -49q0 -27 4 -39.5t16 -15.5t36 -3t36 3t16 15.5t4 39.5q0 40 -10 49t-46 9z" />
    <glyph glyph-name="plusminus" unicode="&#xb1;" horiz-adv-x="540" 
d="M60 363v102h159v159h102v-159h159v-102h-159v-159h-102v159h-159zM60 0v102h420v-102h-420z" />
    <glyph glyph-name="uni00B2" unicode="&#xb2;" horiz-adv-x="381" 
d="M37 307l-10 25l200 338h-47l-63 -107h-54l-12 130q36 9 66 14.5t66 5.5t72.5 -6t60.5 -26t24 -63q0 -31 -16 -66t-48 -87l-72 -114h49l61 96h31l11 -140h-319z" />
    <glyph glyph-name="uni00B3" unicode="&#xb3;" horiz-adv-x="384" 
d="M184 713q83 0 118 -26.5t35 -73.5t-21 -69.5t-56 -29.5v-4q38 -5 60.5 -26t22.5 -72q0 -53 -38.5 -84t-122.5 -31q-37 0 -73.5 5.5t-73.5 14.5l11 130h55l62 -107h55l-86 147h-30v36h38l86 147h-55l-62 -107h-54l-12 130q35 9 70 14.5t71 5.5z" />
    <glyph glyph-name="acute" unicode="&#xb4;" horiz-adv-x="311" 
d="M51 678l211 102l49 -135l-227 -59z" />
    <glyph glyph-name="uni00B5" unicode="&#xb5;" horiz-adv-x="692" 
d="M80 -180v730h190v-474h147v474h190v-550h-83l-40 76h-13q0 -57 -42 -74t-113 -17q-16 0 -32.5 0.5t-33.5 1.5l-30 -167h-140z" />
    <glyph glyph-name="paragraph" unicode="&#xb6;" horiz-adv-x="610" 
d="M530 424v-589q-46 0 -83 4.5t-63 27t-40 74t-14 145.5v499h-80v-585h-38v207q-53 3 -89.5 21t-54.5 63.5t-18 132.5q0 77 19 122.5t53.5 67.5t81 29t101.5 7q50 0 91 -7t71 -29t46.5 -67.5t16.5 -122.5z" />
    <glyph glyph-name="periodcentered" unicode="&#xb7;" horiz-adv-x="308" 
d="M248 274q0 -44 -7.5 -65t-26.5 -27t-55 -6q-40 0 -61.5 6t-29.5 27t-8 65q0 45 8 66.5t29.5 27.5t62.5 6q35 0 54 -6t26.5 -27.5t7.5 -66.5z" />
    <glyph glyph-name="cedilla" unicode="&#xb8;" horiz-adv-x="249" 
d="M236 -76q0 -35 -17 -54.5t-42.5 -27t-51.5 -7.5q-32 0 -61 5t-51 11l7 97h52l34 -52h27v110q22 0 45.5 -5.5t40.5 -23t17 -53.5z" />
    <glyph glyph-name="uni00B9" unicode="&#xb9;" horiz-adv-x="278" 
d="M228 307h-172v220l81 21v24h-121l-16 83l176 55h52v-403z" />
    <glyph glyph-name="ordmasculine" unicode="&#xba;" horiz-adv-x="362" 
d="M332 540v-45q0 -58 -12.5 -89.5t-35 -45t-51 -16.5t-60.5 -3q-28 0 -54 3t-46 16.5t-31.5 45t-11.5 89.5v45q0 58 13 89.5t35 45t51 16.5t60 3q28 0 54 -3t46 -16.5t31.5 -45t11.5 -89.5zM216 393v250h-70v-250h70z" />
    <glyph glyph-name="guillemotright" unicode="&#xbb;" horiz-adv-x="488" 
d="M242 324v-86l-145 -156l-77 64l83 135l-82 134l76 64zM473 324v-86l-145 -156l-77 64l83 135l-82 134l76 64z" />
    <glyph glyph-name="onequarter" unicode="&#xbc;" horiz-adv-x="928" 
d="M291 207h-172v220l81 21v24h-121l-16 83l176 55h52v-403zM383 -48h-50l147 696h51zM511 76v40l92 280h224v-265h35v-55h-35v-76h-162v76h-154zM629 356l-42 -236h78v236h-36z" />
    <glyph glyph-name="onehalf" unicode="&#xbd;" horiz-adv-x="928" 
d="M291 207h-172v220l81 21v24h-121l-16 83l176 55h52v-403zM370 -48h-50l147 696h51zM539 0l-10 25l200 338h-47l-63 -107h-54l-12 130q36 9 66 14.5t66 5.5t72.5 -6t60.5 -26t24 -63q0 -31 -16 -66t-48 -87l-72 -114h49l61 96h31l11 -140h-319z" />
    <glyph glyph-name="threequarters" unicode="&#xbe;" horiz-adv-x="928" 
d="M209 613q83 0 118 -26.5t35 -73.5t-21 -69.5t-56 -29.5v-4q38 -5 60.5 -26t22.5 -72q0 -53 -38.5 -84t-122.5 -31q-37 0 -73.5 5.5t-73.5 14.5l11 130h55l62 -107h55l-86 147h-30v36h38l86 147h-55l-62 -107h-54l-12 130q35 9 70 14.5t71 5.5zM405 -48h-50l147 696h51z
M511 76v40l92 280h224v-265h35v-55h-35v-76h-162v76h-154zM629 356l-42 -236h78v236h-36z" />
    <glyph glyph-name="questiondown" unicode="&#xbf;" horiz-adv-x="461" 
d="M151 482q0 38 8 55.5t29.5 22.5t61.5 5q45 0 69 -5t32.5 -22.5t8.5 -55.5q0 -37 -9 -54.5t-32.5 -23t-69.5 -5.5q-40 0 -61 5.5t-29 23t-8 54.5zM28 121q0 65 16.5 107.5t43.5 66.5t59.5 34t64.5 10q26 0 64.5 -5t64.5 -13v-41l-171 -305h90l99 177h78l17 -222
q-51 -13 -101.5 -21.5t-103.5 -8.5q-112 0 -166.5 50t-54.5 171z" />
    <glyph glyph-name="Agrave" unicode="&#xc0;" horiz-adv-x="602" 
d="M196 0h-221v38h41l87 559h-62v38h452l92 -597h42v-38h-290l-14 150h-127v-150zM196 575v-370h122l-33 370h-89zM210 865l211 -102l-33 -92l-227 59z" />
    <glyph glyph-name="Aacute" unicode="&#xc1;" horiz-adv-x="602" 
d="M196 0h-221v38h41l87 559h-62v38h452l92 -597h42v-38h-290l-14 150h-127v-150zM196 575v-370h122l-33 370h-89zM161 763l211 102l49 -135l-227 -59z" />
    <glyph glyph-name="Acircumflex" unicode="&#xc2;" horiz-adv-x="602" 
d="M196 0h-221v38h41l87 559h-62v38h452l92 -597h42v-38h-290l-14 150h-127v-150zM196 575v-370h122l-33 370h-89zM339 872l118 -130l-59 -71l-107 76l-107 -76l-59 71l118 130h96z" />
    <glyph glyph-name="Atilde" unicode="&#xc3;" horiz-adv-x="602" 
d="M196 0h-221v38h41l87 559h-62v38h452l92 -597h42v-38h-290l-14 150h-127v-150zM196 575v-370h122l-33 370h-89zM467 826l-11 -57q-10 -55 -42 -78t-76 -23q-37 0 -64.5 16.5t-47.5 44.5h-12l-28 -51l-72 13l10 57q10 55 42 78.5t75 23.5q38 0 66 -16.5t47 -45.5h12l28 52
z" />
    <glyph glyph-name="Adieresis" unicode="&#xc4;" horiz-adv-x="602" 
d="M196 0h-221v38h41l87 559h-62v38h452l92 -597h42v-38h-290l-14 150h-127v-150zM196 575v-370h122l-33 370h-89zM259 767q0 -37 -5 -55t-18.5 -23t-39.5 -5q-29 0 -44.5 5t-21 23t-5.5 55q0 38 5.5 55.5t21 22.5t44.5 5q26 0 39.5 -5t18.5 -22.5t5 -55.5zM457 767
q0 -37 -5 -55t-18.5 -23t-39.5 -5q-29 0 -44.5 5t-21 23t-5.5 55q0 38 5.5 55.5t21 22.5t44.5 5q26 0 39.5 -5t18.5 -22.5t5 -55.5z" />
    <glyph glyph-name="Aring" unicode="&#xc5;" horiz-adv-x="602" 
d="M196 0h-221v38h41l87 559h-62v38h452l92 -597h42v-38h-290l-14 150h-127v-150zM196 575v-370h122l-33 370h-89zM291 875q51 0 77 -11t35.5 -36.5t9.5 -67.5t-9.5 -67t-35.5 -36.5t-77 -11.5t-77 11.5t-35.5 36.5t-9.5 67t9.5 67.5t35.5 36.5t77 11zM291 803
q-26 0 -33.5 -7t-7.5 -36q0 -31 7.5 -37t33.5 -6t33.5 6t7.5 37q0 29 -7.5 36t-33.5 7z" />
    <glyph glyph-name="AE" unicode="&#xc6;" horiz-adv-x="886" 
d="M141 597v38h710v-214h-117l-41 154h-89v-236h191v-55h-191v-224h89l41 154h117v-214h-506v38h44v246h-144l-49 -284h-221v38h47l175 559h-56zM296 575l-41 -236h134v236h-93z" />
    <glyph glyph-name="Ccedilla" unicode="&#xc7;" horiz-adv-x="590" 
d="M365 57v182h215v-12q0 -84 -21.5 -133t-61 -72t-93 -30t-118.5 -7q-42 0 -81.5 2.5t-73 15t-58.5 42t-39 82t-14 135.5v112q0 83 15.5 135t42.5 81.5t63.5 42t79 15t87.5 2.5q60 0 110 -7t86 -30t56 -72t20 -133v-19h-215v190h-130v-522h130zM403 -76q0 -35 -17 -54.5
t-42.5 -27t-51.5 -7.5q-32 0 -61 5t-51 11l7 97h52l34 -52h27v110q22 0 45.5 -5.5t40.5 -23t17 -53.5z" />
    <glyph glyph-name="Egrave" unicode="&#xc8;" horiz-adv-x="571" 
d="M30 0v38h44v559h-44v38h506v-214h-117l-41 154h-89v-236h191v-55h-191v-224h89l41 154h117v-214h-506zM225 865l211 -102l-33 -92l-227 59z" />
    <glyph glyph-name="Eacute" unicode="&#xc9;" horiz-adv-x="571" 
d="M30 0v38h44v559h-44v38h506v-214h-117l-41 154h-89v-236h191v-55h-191v-224h89l41 154h117v-214h-506zM176 763l211 102l49 -135l-227 -59z" />
    <glyph glyph-name="Ecircumflex" unicode="&#xca;" horiz-adv-x="571" 
d="M30 0v38h44v559h-44v38h506v-214h-117l-41 154h-89v-236h191v-55h-191v-224h89l41 154h117v-214h-506zM354 872l118 -130l-59 -71l-107 76l-107 -76l-59 71l118 130h96z" />
    <glyph glyph-name="Edieresis" unicode="&#xcb;" horiz-adv-x="571" 
d="M30 0v38h44v559h-44v38h506v-214h-117l-41 154h-89v-236h191v-55h-191v-224h89l41 154h117v-214h-506zM274 767q0 -37 -5 -55t-18.5 -23t-39.5 -5q-29 0 -44.5 5t-21 23t-5.5 55q0 38 5.5 55.5t21 22.5t44.5 5q26 0 39.5 -5t18.5 -22.5t5 -55.5zM472 767q0 -37 -5 -55
t-18.5 -23t-39.5 -5q-29 0 -44.5 5t-21 23t-5.5 55q0 38 5.5 55.5t21 22.5t44.5 5q26 0 39.5 -5t18.5 -22.5t5 -55.5z" />
    <glyph glyph-name="Igrave" unicode="&#xcc;" horiz-adv-x="381" 
d="M342 597h-44v-559h44v-38h-303v38h44v559h-44v38h303v-38zM110 865l211 -102l-33 -92l-227 59z" />
    <glyph glyph-name="Iacute" unicode="&#xcd;" horiz-adv-x="381" 
d="M342 597h-44v-559h44v-38h-303v38h44v559h-44v38h303v-38zM61 763l211 102l49 -135l-227 -59z" />
    <glyph glyph-name="Icircumflex" unicode="&#xce;" horiz-adv-x="381" 
d="M342 597h-44v-559h44v-38h-303v38h44v559h-44v38h303v-38zM239 872l118 -130l-59 -71l-107 76l-107 -76l-59 71l118 130h96z" />
    <glyph glyph-name="Idieresis" unicode="&#xcf;" horiz-adv-x="381" 
d="M342 597h-44v-559h44v-38h-303v38h44v559h-44v38h303v-38zM159 767q0 -37 -5 -55t-18.5 -23t-39.5 -5q-29 0 -44.5 5t-21 23t-5.5 55q0 38 5.5 55.5t21 22.5t44.5 5q26 0 39.5 -5t18.5 -22.5t5 -55.5zM357 767q0 -37 -5 -55t-18.5 -23t-39.5 -5q-29 0 -44.5 5t-21 23
t-5.5 55q0 38 5.5 55.5t21 22.5t44.5 5q26 0 39.5 -5t18.5 -22.5t5 -55.5z" />
    <glyph glyph-name="Eth" unicode="&#xd0;" horiz-adv-x="674" 
d="M27 286v62h47v249h-44v38h349q44 0 84.5 -2.5t75 -15t60.5 -42t40.5 -81.5t14.5 -135v-82q0 -83 -14.5 -135.5t-40.5 -81.5t-60.5 -42t-75 -15.5t-84.5 -2.5h-349v38h44v248h-47zM439 60v519h-150v-231h74v-62h-74v-226h150z" />
    <glyph glyph-name="Ntilde" unicode="&#xd1;" horiz-adv-x="727" 
d="M30 597v38h385l141 -575h41l-81 575h191v-38h-44v-597h-341l-129 575h-41l69 -575h-191v38h44v559h-44zM540 826l-11 -57q-10 -55 -42 -78t-76 -23q-37 0 -64.5 16.5t-47.5 44.5h-12l-28 -51l-72 13l10 57q10 55 42 78.5t75 23.5q38 0 66 -16.5t47 -45.5h12l28 52z" />
    <glyph glyph-name="Ograve" unicode="&#xd2;" horiz-adv-x="620" 
d="M600 374v-112q0 -83 -16 -135.5t-45 -82t-67.5 -42t-83.5 -15t-93 -2.5q-44 0 -84.5 2.5t-75 15t-60.5 42t-40.5 82t-14.5 135.5v112q0 83 16 135t45 81.5t67.5 42t83.5 15t93 2.5q44 0 84.5 -2.5t75 -15t60.5 -42t40.5 -81.5t14.5 -135zM385 57v522h-150v-522h150z
M229 865l211 -102l-33 -92l-227 59z" />
    <glyph glyph-name="Oacute" unicode="&#xd3;" horiz-adv-x="620" 
d="M600 374v-112q0 -83 -16 -135.5t-45 -82t-67.5 -42t-83.5 -15t-93 -2.5q-44 0 -84.5 2.5t-75 15t-60.5 42t-40.5 82t-14.5 135.5v112q0 83 16 135t45 81.5t67.5 42t83.5 15t93 2.5q44 0 84.5 -2.5t75 -15t60.5 -42t40.5 -81.5t14.5 -135zM385 57v522h-150v-522h150z
M180 763l211 102l49 -135l-227 -59z" />
    <glyph glyph-name="Ocircumflex" unicode="&#xd4;" horiz-adv-x="620" 
d="M600 374v-112q0 -83 -16 -135.5t-45 -82t-67.5 -42t-83.5 -15t-93 -2.5q-44 0 -84.5 2.5t-75 15t-60.5 42t-40.5 82t-14.5 135.5v112q0 83 16 135t45 81.5t67.5 42t83.5 15t93 2.5q44 0 84.5 -2.5t75 -15t60.5 -42t40.5 -81.5t14.5 -135zM385 57v522h-150v-522h150z
M358 872l118 -130l-59 -71l-107 76l-107 -76l-59 71l118 130h96z" />
    <glyph glyph-name="Otilde" unicode="&#xd5;" horiz-adv-x="620" 
d="M600 374v-112q0 -83 -16 -135.5t-45 -82t-67.5 -42t-83.5 -15t-93 -2.5q-44 0 -84.5 2.5t-75 15t-60.5 42t-40.5 82t-14.5 135.5v112q0 83 16 135t45 81.5t67.5 42t83.5 15t93 2.5q44 0 84.5 -2.5t75 -15t60.5 -42t40.5 -81.5t14.5 -135zM385 57v522h-150v-522h150z
M486 826l-11 -57q-10 -55 -42 -78t-76 -23q-37 0 -64.5 16.5t-47.5 44.5h-12l-28 -51l-72 13l10 57q10 55 42 78.5t75 23.5q38 0 66 -16.5t47 -45.5h12l28 52z" />
    <glyph glyph-name="Odieresis" unicode="&#xd6;" horiz-adv-x="620" 
d="M600 374v-112q0 -83 -16 -135.5t-45 -82t-67.5 -42t-83.5 -15t-93 -2.5q-44 0 -84.5 2.5t-75 15t-60.5 42t-40.5 82t-14.5 135.5v112q0 83 16 135t45 81.5t67.5 42t83.5 15t93 2.5q44 0 84.5 -2.5t75 -15t60.5 -42t40.5 -81.5t14.5 -135zM385 57v522h-150v-522h150z
M278 767q0 -37 -5 -55t-18.5 -23t-39.5 -5q-29 0 -44.5 5t-21 23t-5.5 55q0 38 5.5 55.5t21 22.5t44.5 5q26 0 39.5 -5t18.5 -22.5t5 -55.5zM476 767q0 -37 -5 -55t-18.5 -23t-39.5 -5q-29 0 -44.5 5t-21 23t-5.5 55q0 38 5.5 55.5t21 22.5t44.5 5q26 0 39.5 -5t18.5 -22.5
t5 -55.5z" />
    <glyph glyph-name="multiply" unicode="&#xd7;" horiz-adv-x="540" 
d="M145 119l-68 68l125 125l-125 125l68 68l125 -125l125 125l68 -68l-125 -125l125 -125l-68 -68l-125 125z" />
    <glyph glyph-name="Oslash" unicode="&#xd8;" horiz-adv-x="620" 
d="M174 -112l26 100q-38 4 -71 17.5t-57.5 43.5t-38 81.5t-13.5 131.5v112q0 83 16 135t45 81.5t67.5 42t83.5 15t93 2.5h22.5h22.5l25 96h51l-26 -99q39 -4 71.5 -17.5t57 -43t38 -81t13.5 -131.5v-112q0 -83 -16 -135.5t-45 -82t-67.5 -42t-83.5 -15t-93 -2.5h-23.5h-22.5
l-25 -97h-50zM235 579v-454l117 454h-117zM385 57v453l-117 -453h117z" />
    <glyph glyph-name="Ugrave" unicode="&#xd9;" horiz-adv-x="648" 
d="M274 57h150v578h214v-38h-44v-363q0 -93 -21 -144.5t-57.5 -73.5t-83 -26.5t-98.5 -4.5q-44 0 -85.5 2.5t-76.5 13.5t-61.5 37.5t-41.5 73.5t-15 122v363h-44v38h264v-578zM263 865l211 -102l-33 -92l-227 59z" />
    <glyph glyph-name="Uacute" unicode="&#xda;" horiz-adv-x="648" 
d="M274 57h150v578h214v-38h-44v-363q0 -93 -21 -144.5t-57.5 -73.5t-83 -26.5t-98.5 -4.5q-44 0 -85.5 2.5t-76.5 13.5t-61.5 37.5t-41.5 73.5t-15 122v363h-44v38h264v-578zM214 763l211 102l49 -135l-227 -59z" />
    <glyph glyph-name="Ucircumflex" unicode="&#xdb;" horiz-adv-x="648" 
d="M274 57h150v578h214v-38h-44v-363q0 -93 -21 -144.5t-57.5 -73.5t-83 -26.5t-98.5 -4.5q-44 0 -85.5 2.5t-76.5 13.5t-61.5 37.5t-41.5 73.5t-15 122v363h-44v38h264v-578zM392 872l118 -130l-59 -71l-107 76l-107 -76l-59 71l118 130h96z" />
    <glyph glyph-name="Udieresis" unicode="&#xdc;" horiz-adv-x="648" 
d="M274 57h150v578h214v-38h-44v-363q0 -93 -21 -144.5t-57.5 -73.5t-83 -26.5t-98.5 -4.5q-44 0 -85.5 2.5t-76.5 13.5t-61.5 37.5t-41.5 73.5t-15 122v363h-44v38h264v-578zM312 767q0 -37 -5 -55t-18.5 -23t-39.5 -5q-29 0 -44.5 5t-21 23t-5.5 55q0 38 5.5 55.5t21 22.5
t44.5 5q26 0 39.5 -5t18.5 -22.5t5 -55.5zM510 767q0 -37 -5 -55t-18.5 -23t-39.5 -5q-29 0 -44.5 5t-21 23t-5.5 55q0 38 5.5 55.5t21 22.5t44.5 5q26 0 39.5 -5t18.5 -22.5t5 -55.5z" />
    <glyph glyph-name="Yacute" unicode="&#xdd;" horiz-adv-x="626" 
d="M626 597h-42l-133 -451v-108h84v-38h-443v38h84v108l-133 451h-43v38h266l82 -335h57v335h221v-38zM193 763l211 102l49 -135l-227 -59z" />
    <glyph glyph-name="Thorn" unicode="&#xde;" horiz-adv-x="669" 
d="M654 339q0 -92 -22.5 -143t-61 -73t-88 -26.5t-103.5 -4.5h-90v-54h44v-38h-303v38h44v559h-44v38h259v-51h93q54 0 103 -4.5t87 -26.5t60 -72t22 -142zM439 164v350h-150v-350h150z" />
    <glyph glyph-name="germandbls" unicode="&#xdf;" horiz-adv-x="651" 
d="M45 444v48h40v48q0 76 31.5 120.5t91.5 64t144 19.5q43 0 85 -10t76.5 -32.5t55 -60t20.5 -91.5q0 -72 -27 -112.5t-80 -58.5v-7q38 -5 72 -31.5t55.5 -68t21.5 -93.5q0 -54 -20 -98t-69 -70t-138 -26q-19 0 -38.5 1t-39.5 3v61h97v263h-97v83q47 18 67.5 47.5t25 68
t4.5 83.5v68h-148v-663h-230v38h40v406h-40z" />
    <glyph glyph-name="agrave" unicode="&#xe0;" horiz-adv-x="618" 
d="M92 379l-24 156q51 14 113 22t114 8q39 0 81 -4.5t79 -19.5t60 -45t23 -81v-377h40v-38h-123l-40 76h-13q-14 -40 -31 -59.5t-44.5 -25.5t-71.5 -6q-38 0 -76.5 3t-71 17.5t-52.5 48.5t-20 96q0 55 17 88t47 49.5t68 22t80 5.5h101v175h-114l-27 -111h-115zM348 76v164
h-137v-164h137zM228 780l211 -102l-33 -92l-227 59z" />
    <glyph glyph-name="aacute" unicode="&#xe1;" horiz-adv-x="618" 
d="M92 379l-24 156q51 14 113 22t114 8q39 0 81 -4.5t79 -19.5t60 -45t23 -81v-377h40v-38h-123l-40 76h-13q-14 -40 -31 -59.5t-44.5 -25.5t-71.5 -6q-38 0 -76.5 3t-71 17.5t-52.5 48.5t-20 96q0 55 17 88t47 49.5t68 22t80 5.5h101v175h-114l-27 -111h-115zM348 76v164
h-137v-164h137zM179 678l211 102l49 -135l-227 -59z" />
    <glyph glyph-name="acircumflex" unicode="&#xe2;" horiz-adv-x="618" 
d="M92 379l-24 156q51 14 113 22t114 8q39 0 81 -4.5t79 -19.5t60 -45t23 -81v-377h40v-38h-123l-40 76h-13q-14 -40 -31 -59.5t-44.5 -25.5t-71.5 -6q-38 0 -76.5 3t-71 17.5t-52.5 48.5t-20 96q0 55 17 88t47 49.5t68 22t80 5.5h101v175h-114l-27 -111h-115zM348 76v164
h-137v-164h137zM357 787l118 -130l-59 -71l-107 76l-107 -76l-59 71l118 130h96z" />
    <glyph glyph-name="atilde" unicode="&#xe3;" horiz-adv-x="618" 
d="M92 379l-24 156q51 14 113 22t114 8q39 0 81 -4.5t79 -19.5t60 -45t23 -81v-377h40v-38h-123l-40 76h-13q-14 -40 -31 -59.5t-44.5 -25.5t-71.5 -6q-38 0 -76.5 3t-71 17.5t-52.5 48.5t-20 96q0 55 17 88t47 49.5t68 22t80 5.5h101v175h-114l-27 -111h-115zM348 76v164
h-137v-164h137zM485 741l-11 -57q-10 -55 -42 -78t-76 -23q-37 0 -64.5 16.5t-47.5 44.5h-12l-28 -51l-72 13l10 57q10 55 42 78.5t75 23.5q38 0 66 -16.5t47 -45.5h12l28 52z" />
    <glyph glyph-name="adieresis" unicode="&#xe4;" horiz-adv-x="618" 
d="M92 379l-24 156q51 14 113 22t114 8q39 0 81 -4.5t79 -19.5t60 -45t23 -81v-377h40v-38h-123l-40 76h-13q-14 -40 -31 -59.5t-44.5 -25.5t-71.5 -6q-38 0 -76.5 3t-71 17.5t-52.5 48.5t-20 96q0 55 17 88t47 49.5t68 22t80 5.5h101v175h-114l-27 -111h-115zM348 76v164
h-137v-164h137zM277 682q0 -37 -5 -55t-18.5 -23t-39.5 -5q-29 0 -44.5 5t-21 23t-5.5 55q0 38 5.5 55.5t21 22.5t44.5 5q26 0 39.5 -5t18.5 -22.5t5 -55.5zM475 682q0 -37 -5 -55t-18.5 -23t-39.5 -5q-29 0 -44.5 5t-21 23t-5.5 55q0 38 5.5 55.5t21 22.5t44.5 5
q26 0 39.5 -5t18.5 -22.5t5 -55.5z" />
    <glyph glyph-name="aring" unicode="&#xe5;" horiz-adv-x="618" 
d="M92 379l-24 156q51 14 113 22t114 8q39 0 81 -4.5t79 -19.5t60 -45t23 -81v-377h40v-38h-123l-40 76h-13q-14 -40 -31 -59.5t-44.5 -25.5t-71.5 -6q-38 0 -76.5 3t-71 17.5t-52.5 48.5t-20 96q0 55 17 88t47 49.5t68 22t80 5.5h101v175h-114l-27 -111h-115zM348 76v164
h-137v-164h137zM309 790q51 0 77 -11t35.5 -36.5t9.5 -67.5t-9.5 -67t-35.5 -36.5t-77 -11.5t-77 11.5t-35.5 36.5t-9.5 67t9.5 67.5t35.5 36.5t77 11zM309 718q-26 0 -33.5 -7t-7.5 -36q0 -31 7.5 -37t33.5 -6t33.5 6t7.5 37q0 29 -7.5 36t-33.5 7z" />
    <glyph glyph-name="ae" unicode="&#xe6;" horiz-adv-x="891" 
d="M538 60h125l26 111h107l23 -156q-50 -13 -111.5 -21.5t-113.5 -8.5q-43 0 -78.5 5.5t-61.5 25t-40 60.5h-12q-14 -40 -31 -59.5t-44.5 -25.5t-71.5 -6q-38 0 -76.5 3t-71 17.5t-52.5 48.5t-20 96q0 55 17 88t47 49.5t68 22t80 5.5h101v175h-114l-27 -111h-115l-24 156
q51 14 113 22t114 8q44 0 84.5 -6t69.5 -27q30 25 73.5 29t96.5 4q42 0 80.5 -3t68 -17.5t46.5 -48.5t17 -96t-17 -96t-46.5 -48.5t-68 -17.5t-80.5 -3h-81v-175zM538 490v-180h137v180h-137zM348 76v164h-137v-164h137z" />
    <glyph glyph-name="ccedilla" unicode="&#xe7;" horiz-adv-x="555" 
d="M320 -15q-41 0 -79.5 2.5t-71 14t-57.5 38t-38.5 74t-13.5 122.5v78q0 75 13.5 122.5t38.5 74t57.5 38t71 14t79.5 2.5q52 0 101.5 -8t98.5 -22l-24 -156h-115l-27 121h-104v-450h104l27 121h115l24 -156q-51 -19 -99.5 -24.5t-100.5 -5.5zM389 -76q0 -35 -17 -54.5
t-42.5 -27t-51.5 -7.5q-32 0 -61 5t-51 11l7 97h52l34 -52h27v110q22 0 45.5 -5.5t40.5 -23t17 -53.5z" />
    <glyph glyph-name="egrave" unicode="&#xe8;" horiz-adv-x="593" 
d="M250 60h125l26 111h107l23 -156q-50 -13 -111.5 -21.5t-113.5 -8.5q-43 0 -86.5 5.5t-79.5 24.5t-58 59.5t-22 109.5v130q0 75 14.5 122.5t40.5 74t60 38t74 14t82 2.5t80.5 -3t68 -17.5t46.5 -48.5t17 -96t-17 -96t-46.5 -48.5t-68 -17.5t-80.5 -3h-81v-175zM250 490
v-180h137v180h-137zM236 780l211 -102l-33 -92l-227 59z" />
    <glyph glyph-name="eacute" unicode="&#xe9;" horiz-adv-x="593" 
d="M250 60h125l26 111h107l23 -156q-50 -13 -111.5 -21.5t-113.5 -8.5q-43 0 -86.5 5.5t-79.5 24.5t-58 59.5t-22 109.5v130q0 75 14.5 122.5t40.5 74t60 38t74 14t82 2.5t80.5 -3t68 -17.5t46.5 -48.5t17 -96t-17 -96t-46.5 -48.5t-68 -17.5t-80.5 -3h-81v-175zM250 490
v-180h137v180h-137zM187 678l211 102l49 -135l-227 -59z" />
    <glyph glyph-name="ecircumflex" unicode="&#xea;" horiz-adv-x="593" 
d="M250 60h125l26 111h107l23 -156q-50 -13 -111.5 -21.5t-113.5 -8.5q-43 0 -86.5 5.5t-79.5 24.5t-58 59.5t-22 109.5v130q0 75 14.5 122.5t40.5 74t60 38t74 14t82 2.5t80.5 -3t68 -17.5t46.5 -48.5t17 -96t-17 -96t-46.5 -48.5t-68 -17.5t-80.5 -3h-81v-175zM250 490
v-180h137v180h-137zM365 787l118 -130l-59 -71l-107 76l-107 -76l-59 71l118 130h96z" />
    <glyph glyph-name="edieresis" unicode="&#xeb;" horiz-adv-x="593" 
d="M250 60h125l26 111h107l23 -156q-50 -13 -111.5 -21.5t-113.5 -8.5q-43 0 -86.5 5.5t-79.5 24.5t-58 59.5t-22 109.5v130q0 75 14.5 122.5t40.5 74t60 38t74 14t82 2.5t80.5 -3t68 -17.5t46.5 -48.5t17 -96t-17 -96t-46.5 -48.5t-68 -17.5t-80.5 -3h-81v-175zM250 490
v-180h137v180h-137zM285 682q0 -37 -5 -55t-18.5 -23t-39.5 -5q-29 0 -44.5 5t-21 23t-5.5 55q0 38 5.5 55.5t21 22.5t44.5 5q26 0 39.5 -5t18.5 -22.5t5 -55.5zM483 682q0 -37 -5 -55t-18.5 -23t-39.5 -5q-29 0 -44.5 5t-21 23t-5.5 55q0 38 5.5 55.5t21 22.5t44.5 5
q26 0 39.5 -5t18.5 -22.5t5 -55.5z" />
    <glyph glyph-name="igrave" unicode="&#xec;" horiz-adv-x="355" 
d="M315 0h-270v38h40v474h-40v38h230v-512h40v-38zM97 780l211 -102l-33 -92l-227 59z" />
    <glyph glyph-name="iacute" unicode="&#xed;" horiz-adv-x="355" 
d="M315 0h-270v38h40v474h-40v38h230v-512h40v-38zM48 678l211 102l49 -135l-227 -59z" />
    <glyph glyph-name="icircumflex" unicode="&#xee;" horiz-adv-x="355" 
d="M315 0h-270v38h40v474h-40v38h230v-512h40v-38zM226 787l118 -130l-59 -71l-107 76l-107 -76l-59 71l118 130h96z" />
    <glyph glyph-name="idieresis" unicode="&#xef;" horiz-adv-x="355" 
d="M315 0h-270v38h40v474h-40v38h230v-512h40v-38zM146 682q0 -37 -5 -55t-18.5 -23t-39.5 -5q-29 0 -44.5 5t-21 23t-5.5 55q0 38 5.5 55.5t21 22.5t44.5 5q26 0 39.5 -5t18.5 -22.5t5 -55.5zM344 682q0 -37 -5 -55t-18.5 -23t-39.5 -5q-29 0 -44.5 5t-21 23t-5.5 55
q0 38 5.5 55.5t21 22.5t44.5 5q26 0 39.5 -5t18.5 -22.5t5 -55.5z" />
    <glyph glyph-name="eth" unicode="&#xf0;" horiz-adv-x="647" 
d="M169 703q51 20 100 28.5t89 8.5q68 0 111.5 -20.5t68.5 -58.5l109 48v-72l-82 -36q13 -38 17.5 -85.5t4.5 -102.5v-206q0 -83 -22.5 -129t-61.5 -65.5t-88.5 -23.5t-104.5 -4q-49 0 -94 4t-80.5 23.5t-55.5 65.5t-20 129v16q0 83 22.5 129t61.5 65.5t88.5 23.5t104.5 4
h30t30 -1v83l-95 -41v72l95 41v50q-16 0 -42.5 -4t-57 -10.5t-58.5 -15.5t-48 -20zM397 60v310h-147v-310h147z" />
    <glyph glyph-name="ntilde" unicode="&#xf1;" horiz-adv-x="692" 
d="M652 0h-230v474h-147v-474h-230v38h40v474h-40v38h133l35 -76h13q15 40 40 59.5t62 25.5t87 6q61 0 105 -13t68 -45.5t24 -91.5v-377h40v-38zM522 741l-11 -57q-10 -55 -42 -78t-76 -23q-37 0 -64.5 16.5t-47.5 44.5h-12l-28 -51l-72 13l10 57q10 55 42 78.5t75 23.5
q38 0 66 -16.5t47 -45.5h12l28 52z" />
    <glyph glyph-name="ograve" unicode="&#xf2;" horiz-adv-x="647" 
d="M587 314v-78q0 -75 -14.5 -122.5t-41 -74t-61 -38t-75.5 -14t-85 -2.5q-49 0 -94 4.5t-80.5 27t-55.5 74t-20 145.5v78q0 75 14.5 122.5t41 74t61 38t75.5 14t85 2.5q50 0 94.5 -4.5t80 -27t55.5 -74t20 -145.5zM397 60v430h-147v-430h147zM243 780l211 -102l-33 -92
l-227 59z" />
    <glyph glyph-name="oacute" unicode="&#xf3;" horiz-adv-x="647" 
d="M587 314v-78q0 -75 -14.5 -122.5t-41 -74t-61 -38t-75.5 -14t-85 -2.5q-49 0 -94 4.5t-80.5 27t-55.5 74t-20 145.5v78q0 75 14.5 122.5t41 74t61 38t75.5 14t85 2.5q50 0 94.5 -4.5t80 -27t55.5 -74t20 -145.5zM397 60v430h-147v-430h147zM194 678l211 102l49 -135
l-227 -59z" />
    <glyph glyph-name="ocircumflex" unicode="&#xf4;" horiz-adv-x="647" 
d="M587 314v-78q0 -75 -14.5 -122.5t-41 -74t-61 -38t-75.5 -14t-85 -2.5q-49 0 -94 4.5t-80.5 27t-55.5 74t-20 145.5v78q0 75 14.5 122.5t41 74t61 38t75.5 14t85 2.5q50 0 94.5 -4.5t80 -27t55.5 -74t20 -145.5zM397 60v430h-147v-430h147zM372 787l118 -130l-59 -71
l-107 76l-107 -76l-59 71l118 130h96z" />
    <glyph glyph-name="otilde" unicode="&#xf5;" horiz-adv-x="647" 
d="M587 314v-78q0 -75 -14.5 -122.5t-41 -74t-61 -38t-75.5 -14t-85 -2.5q-49 0 -94 4.5t-80.5 27t-55.5 74t-20 145.5v78q0 75 14.5 122.5t41 74t61 38t75.5 14t85 2.5q50 0 94.5 -4.5t80 -27t55.5 -74t20 -145.5zM397 60v430h-147v-430h147zM500 741l-11 -57
q-10 -55 -42 -78t-76 -23q-37 0 -64.5 16.5t-47.5 44.5h-12l-28 -51l-72 13l10 57q10 55 42 78.5t75 23.5q38 0 66 -16.5t47 -45.5h12l28 52z" />
    <glyph glyph-name="odieresis" unicode="&#xf6;" horiz-adv-x="647" 
d="M587 314v-78q0 -75 -14.5 -122.5t-41 -74t-61 -38t-75.5 -14t-85 -2.5q-49 0 -94 4.5t-80.5 27t-55.5 74t-20 145.5v78q0 75 14.5 122.5t41 74t61 38t75.5 14t85 2.5q50 0 94.5 -4.5t80 -27t55.5 -74t20 -145.5zM397 60v430h-147v-430h147zM292 682q0 -37 -5 -55
t-18.5 -23t-39.5 -5q-29 0 -44.5 5t-21 23t-5.5 55q0 38 5.5 55.5t21 22.5t44.5 5q26 0 39.5 -5t18.5 -22.5t5 -55.5zM490 682q0 -37 -5 -55t-18.5 -23t-39.5 -5q-29 0 -44.5 5t-21 23t-5.5 55q0 38 5.5 55.5t21 22.5t44.5 5q26 0 39.5 -5t18.5 -22.5t5 -55.5z" />
    <glyph glyph-name="divide" unicode="&#xf7;" horiz-adv-x="540" 
d="M345 491q0 -35 -6 -51.5t-21 -21.5t-44 -5q-32 0 -49 5t-23.5 21.5t-6.5 51.5q0 36 6.5 53t23.5 22t50 5q28 0 43.5 -5t21 -22t5.5 -53zM60 261v102h420v-102h-420zM345 130q0 -35 -6 -51.5t-21 -21.5t-44 -5q-32 0 -49 5t-23.5 21.5t-6.5 51.5q0 36 6.5 53t23.5 22t50 5
q28 0 43.5 -5t21 -22t5.5 -53z" />
    <glyph glyph-name="oslash" unicode="&#xf8;" horiz-adv-x="647" 
d="M187 -152l36 140q-46 5 -83 26t-58.5 73t-21.5 149v78q0 75 14.5 122.5t41 74t61 38t75.5 14t85 2.5h17.5h17.5l36 141h51l-37 -144q47 -5 84 -26t59 -72.5t22 -149.5v-78q0 -75 -14.5 -122.5t-41 -74t-61 -38t-75.5 -14t-85 -2.5h-18.5h-18.5l-36 -137h-50zM250 490
v-397l102 397h-102zM397 60v406l-105 -406h105z" />
    <glyph glyph-name="ugrave" unicode="&#xf9;" horiz-adv-x="692" 
d="M80 150v362h-40v38h230v-474h147v474h190v-512h40v-38h-123l-40 76h-13q0 -57 -42 -74t-113 -17q-40 0 -81.5 3t-76.5 17.5t-56.5 48.5t-21.5 96zM265 780l211 -102l-33 -92l-227 59z" />
    <glyph glyph-name="uacute" unicode="&#xfa;" horiz-adv-x="692" 
d="M80 150v362h-40v38h230v-474h147v474h190v-512h40v-38h-123l-40 76h-13q0 -57 -42 -74t-113 -17q-40 0 -81.5 3t-76.5 17.5t-56.5 48.5t-21.5 96zM216 678l211 102l49 -135l-227 -59z" />
    <glyph glyph-name="ucircumflex" unicode="&#xfb;" horiz-adv-x="692" 
d="M80 150v362h-40v38h230v-474h147v474h190v-512h40v-38h-123l-40 76h-13q0 -57 -42 -74t-113 -17q-40 0 -81.5 3t-76.5 17.5t-56.5 48.5t-21.5 96zM394 787l118 -130l-59 -71l-107 76l-107 -76l-59 71l118 130h96z" />
    <glyph glyph-name="udieresis" unicode="&#xfc;" horiz-adv-x="692" 
d="M80 150v362h-40v38h230v-474h147v474h190v-512h40v-38h-123l-40 76h-13q0 -57 -42 -74t-113 -17q-40 0 -81.5 3t-76.5 17.5t-56.5 48.5t-21.5 96zM314 682q0 -37 -5 -55t-18.5 -23t-39.5 -5q-29 0 -44.5 5t-21 23t-5.5 55q0 38 5.5 55.5t21 22.5t44.5 5q26 0 39.5 -5
t18.5 -22.5t5 -55.5zM512 682q0 -37 -5 -55t-18.5 -23t-39.5 -5q-29 0 -44.5 5t-21 23t-5.5 55q0 38 5.5 55.5t21 22.5t44.5 5q26 0 39.5 -5t18.5 -22.5t5 -55.5z" />
    <glyph glyph-name="yacute" unicode="&#xfd;" horiz-adv-x="598" 
d="M382 550h181l-105 -519q-23 -115 -92.5 -170.5t-162.5 -55.5q-21 0 -52.5 2t-52.5 6l20 157h122v53q0 20 -9 23t-21 3h-85l-66 463h-39v38h241l48 -501h73v501zM182 678l211 102l49 -135l-227 -59z" />
    <glyph glyph-name="thorn" unicode="&#xfe;" horiz-adv-x="668" 
d="M325 -180h-245v871h-40v38h230v-134l-41 -15q-18 -7 -22 -12.5t-4 -17.5v-86h18q15 40 37 59.5t51 25.5t64 6q46 0 88 -4.5t75 -27t52 -74t19 -145.5v-68q0 -75 -14.5 -122.5t-40.5 -74t-60 -38t-73.5 -14t-80.5 -2.5q-16 0 -33.5 2t-34.5 4v-133h55v-38zM417 60v404
h-147v-404h147z" />
    <glyph glyph-name="ydieresis" unicode="&#xff;" horiz-adv-x="598" 
d="M382 550h181l-105 -519q-23 -115 -92.5 -170.5t-162.5 -55.5q-21 0 -52.5 2t-52.5 6l20 157h122v53q0 20 -9 23t-21 3h-85l-66 463h-39v38h241l48 -501h73v501zM280 682q0 -37 -5 -55t-18.5 -23t-39.5 -5q-29 0 -44.5 5t-21 23t-5.5 55q0 38 5.5 55.5t21 22.5t44.5 5
q26 0 39.5 -5t18.5 -22.5t5 -55.5zM478 682q0 -37 -5 -55t-18.5 -23t-39.5 -5q-29 0 -44.5 5t-21 23t-5.5 55q0 38 5.5 55.5t21 22.5t44.5 5q26 0 39.5 -5t18.5 -22.5t5 -55.5z" />
    <glyph glyph-name="Amacron" unicode="&#x100;" horiz-adv-x="602" 
d="M196 0h-221v38h41l87 559h-62v38h452l92 -597h42v-38h-290l-14 150h-127v-150zM196 575v-370h122l-33 370h-89zM145 695v124h292v-124h-292z" />
    <glyph glyph-name="amacron" unicode="&#x101;" horiz-adv-x="618" 
d="M92 379l-24 156q51 14 113 22t114 8q39 0 81 -4.5t79 -19.5t60 -45t23 -81v-377h40v-38h-123l-40 76h-13q-14 -40 -31 -59.5t-44.5 -25.5t-71.5 -6q-38 0 -76.5 3t-71 17.5t-52.5 48.5t-20 96q0 55 17 88t47 49.5t68 22t80 5.5h101v175h-114l-27 -111h-115zM348 76v164
h-137v-164h137zM163 610v124h292v-124h-292z" />
    <glyph glyph-name="Abreve" unicode="&#x102;" horiz-adv-x="602" 
d="M196 0h-221v38h41l87 559h-62v38h452l92 -597h42v-38h-290l-14 150h-127v-150zM196 575v-370h122l-33 370h-89zM291 795q28 0 62 11.5t58 27.5q14 -22 23.5 -37.5t22.5 -37.5q-28 -43 -70.5 -64.5t-95.5 -21.5q-52 0 -95 21.5t-71 64.5q12 19 23.5 38t22.5 37
q24 -16 58 -27.5t62 -11.5z" />
    <glyph glyph-name="abreve" unicode="&#x103;" horiz-adv-x="618" 
d="M92 379l-24 156q51 14 113 22t114 8q39 0 81 -4.5t79 -19.5t60 -45t23 -81v-377h40v-38h-123l-40 76h-13q-14 -40 -31 -59.5t-44.5 -25.5t-71.5 -6q-38 0 -76.5 3t-71 17.5t-52.5 48.5t-20 96q0 55 17 88t47 49.5t68 22t80 5.5h101v175h-114l-27 -111h-115zM348 76v164
h-137v-164h137zM309 710q28 0 62 11.5t58 27.5q14 -22 23.5 -37.5t22.5 -37.5q-28 -43 -70.5 -64.5t-95.5 -21.5q-52 0 -95 21.5t-71 64.5q12 19 23.5 38t22.5 37q24 -16 58 -27.5t62 -11.5z" />
    <glyph glyph-name="Aogonek" unicode="&#x104;" horiz-adv-x="602" 
d="M196 0h-221v38h41l87 559h-62v38h452l92 -597h42v-38h-290l-14 150h-127v-150zM196 575v-370h122l-33 370h-89zM415 -87q0 53 44.5 83t125.5 42v-27q-33 -4 -46.5 -17.5t-13.5 -33.5q0 -16 10.5 -24t24.5 -8q16 0 33 6t29 13l10 -57q-19 -20 -54.5 -37.5t-70.5 -17.5
q-39 0 -65.5 19t-26.5 59z" />
    <glyph glyph-name="aogonek" unicode="&#x105;" horiz-adv-x="618" 
d="M92 379l-24 156q51 14 113 22t114 8q39 0 81 -4.5t79 -19.5t60 -45t23 -81v-377h40v-38h-123l-40 76h-13q-14 -40 -31 -59.5t-44.5 -25.5t-71.5 -6q-38 0 -76.5 3t-71 17.5t-52.5 48.5t-20 96q0 55 17 88t47 49.5t68 22t80 5.5h101v175h-114l-27 -111h-115zM348 76v164
h-137v-164h137zM402 -87q0 53 44.5 83t125.5 42v-27q-33 -4 -46.5 -17.5t-13.5 -33.5q0 -16 10.5 -24t24.5 -8q16 0 33 6t29 13l10 -57q-19 -20 -54.5 -37.5t-70.5 -17.5q-39 0 -65.5 19t-26.5 59z" />
    <glyph glyph-name="Cacute" unicode="&#x106;" horiz-adv-x="590" 
d="M365 57v182h215v-12q0 -84 -21.5 -133t-61 -72t-93 -30t-118.5 -7q-42 0 -81.5 2.5t-73 15t-58.5 42t-39 82t-14 135.5v112q0 83 15.5 135t42.5 81.5t63.5 42t79 15t87.5 2.5q60 0 110 -7t86 -30t56 -72t20 -133v-19h-215v190h-130v-522h130zM175 763l211 102l49 -135
l-227 -59z" />
    <glyph glyph-name="cacute" unicode="&#x107;" horiz-adv-x="555" 
d="M320 -15q-41 0 -79.5 2.5t-71 14t-57.5 38t-38.5 74t-13.5 122.5v78q0 75 13.5 122.5t38.5 74t57.5 38t71 14t79.5 2.5q52 0 101.5 -8t98.5 -22l-24 -156h-115l-27 121h-104v-450h104l27 121h115l24 -156q-51 -19 -99.5 -24.5t-100.5 -5.5zM188 678l211 102l49 -135
l-227 -59z" />
    <glyph glyph-name="Ccircumflex" unicode="&#x108;" horiz-adv-x="590" 
d="M365 57v182h215v-12q0 -84 -21.5 -133t-61 -72t-93 -30t-118.5 -7q-42 0 -81.5 2.5t-73 15t-58.5 42t-39 82t-14 135.5v112q0 83 15.5 135t42.5 81.5t63.5 42t79 15t87.5 2.5q60 0 110 -7t86 -30t56 -72t20 -133v-19h-215v190h-130v-522h130zM353 872l118 -130l-59 -71
l-107 76l-107 -76l-59 71l118 130h96z" />
    <glyph glyph-name="ccircumflex" unicode="&#x109;" horiz-adv-x="555" 
d="M320 -15q-41 0 -79.5 2.5t-71 14t-57.5 38t-38.5 74t-13.5 122.5v78q0 75 13.5 122.5t38.5 74t57.5 38t71 14t79.5 2.5q52 0 101.5 -8t98.5 -22l-24 -156h-115l-27 121h-104v-450h104l27 121h115l24 -156q-51 -19 -99.5 -24.5t-100.5 -5.5zM366 787l118 -130l-59 -71
l-107 76l-107 -76l-59 71l118 130h96z" />
    <glyph glyph-name="Cdotaccent" unicode="&#x10a;" horiz-adv-x="590" 
d="M365 57v182h215v-12q0 -84 -21.5 -133t-61 -72t-93 -30t-118.5 -7q-42 0 -81.5 2.5t-73 15t-58.5 42t-39 82t-14 135.5v112q0 83 15.5 135t42.5 81.5t63.5 42t79 15t87.5 2.5q60 0 110 -7t86 -30t56 -72t20 -133v-19h-215v190h-130v-522h130zM305 850q61 0 79 -20t18 -70
t-18 -70.5t-79 -20.5t-79 20.5t-18 70.5t18 70t79 20z" />
    <glyph glyph-name="cdotaccent" unicode="&#x10b;" horiz-adv-x="555" 
d="M320 -15q-41 0 -79.5 2.5t-71 14t-57.5 38t-38.5 74t-13.5 122.5v78q0 75 13.5 122.5t38.5 74t57.5 38t71 14t79.5 2.5q52 0 101.5 -8t98.5 -22l-24 -156h-115l-27 121h-104v-450h104l27 121h115l24 -156q-51 -19 -99.5 -24.5t-100.5 -5.5zM318 765q61 0 79 -20t18 -70
t-18 -70.5t-79 -20.5t-79 20.5t-18 70.5t18 70t79 20z" />
    <glyph glyph-name="Ccaron" unicode="&#x10c;" horiz-adv-x="590" 
d="M365 57v182h215v-12q0 -84 -21.5 -133t-61 -72t-93 -30t-118.5 -7q-42 0 -81.5 2.5t-73 15t-58.5 42t-39 82t-14 135.5v112q0 83 15.5 135t42.5 81.5t63.5 42t79 15t87.5 2.5q60 0 110 -7t86 -30t56 -72t20 -133v-19h-215v190h-130v-522h130zM471 802l-118 -130h-96
l-118 130l59 71l107 -76l107 76z" />
    <glyph glyph-name="ccaron" unicode="&#x10d;" horiz-adv-x="555" 
d="M320 -15q-41 0 -79.5 2.5t-71 14t-57.5 38t-38.5 74t-13.5 122.5v78q0 75 13.5 122.5t38.5 74t57.5 38t71 14t79.5 2.5q52 0 101.5 -8t98.5 -22l-24 -156h-115l-27 121h-104v-450h104l27 121h115l24 -156q-51 -19 -99.5 -24.5t-100.5 -5.5zM484 717l-118 -130h-96
l-118 130l59 71l107 -76l107 76z" />
    <glyph glyph-name="Dcaron" unicode="&#x10e;" horiz-adv-x="674" 
d="M379 0h-349v38h44v559h-44v38h349q44 0 84.5 -2.5t75 -15t60.5 -42t40.5 -81.5t14.5 -135v-82q0 -83 -14.5 -135.5t-40.5 -81.5t-60.5 -42t-75 -15.5t-84.5 -2.5zM439 60v519h-150v-519h150zM503 802l-118 -130h-96l-118 130l59 71l107 -76l107 76z" />
    <glyph glyph-name="dcaron" unicode="&#x10f;" horiz-adv-x="668" 
d="M628 0h-123l-40 76h-13q-20 -40 -39.5 -59.5t-46.5 -25.5t-68 -6q-45 0 -87.5 5t-76.5 27.5t-54 74t-20 144.5v63q0 75 14.5 122.5t41 74t61 38t75.5 14t85 2.5q14 0 30 -0.5t30 -1.5v143h-40v38h231v-691h40v-38zM250 475v-399h147v399h-147zM808 699q0 -51 -17.5 -96
t-55.5 -80l-44 6l13 100q-27 0 -41.5 13.5t-14.5 56.5q0 36 7 53t26.5 21.5t54.5 4.5q29 0 44.5 -4.5t21.5 -21.5t6 -53z" />
    <glyph glyph-name="Dcroat" unicode="&#x110;" horiz-adv-x="674" 
d="M27 286v62h47v249h-44v38h349q44 0 84.5 -2.5t75 -15t60.5 -42t40.5 -81.5t14.5 -135v-82q0 -83 -14.5 -135.5t-40.5 -81.5t-60.5 -42t-75 -15.5t-84.5 -2.5h-349v38h44v248h-47zM439 60v519h-150v-231h74v-62h-74v-226h150z" />
    <glyph glyph-name="dcroat" unicode="&#x111;" horiz-adv-x="668" 
d="M192 596v49h205v46h-40v38h231v-84h74v-49h-74v-558h40v-38h-123l-40 76h-13q-20 -40 -39.5 -59.5t-46.5 -25.5t-68 -6q-45 0 -87.5 5t-76.5 27.5t-54 74t-20 144.5v63q0 75 14.5 122.5t41 74t61 38t75.5 14t85 2.5q14 0 30 -0.5t30 -1.5v48h-205zM250 475v-399h147v399
h-147z" />
    <glyph glyph-name="Emacron" unicode="&#x112;" horiz-adv-x="571" 
d="M30 0v38h44v559h-44v38h506v-214h-117l-41 154h-89v-236h191v-55h-191v-224h89l41 154h117v-214h-506zM160 695v124h292v-124h-292z" />
    <glyph glyph-name="emacron" unicode="&#x113;" horiz-adv-x="593" 
d="M250 60h125l26 111h107l23 -156q-50 -13 -111.5 -21.5t-113.5 -8.5q-43 0 -86.5 5.5t-79.5 24.5t-58 59.5t-22 109.5v130q0 75 14.5 122.5t40.5 74t60 38t74 14t82 2.5t80.5 -3t68 -17.5t46.5 -48.5t17 -96t-17 -96t-46.5 -48.5t-68 -17.5t-80.5 -3h-81v-175zM250 490
v-180h137v180h-137zM171 610v124h292v-124h-292z" />
    <glyph glyph-name="Ebreve" unicode="&#x114;" horiz-adv-x="571" 
d="M30 0v38h44v559h-44v38h506v-214h-117l-41 154h-89v-236h191v-55h-191v-224h89l41 154h117v-214h-506zM306 795q28 0 62 11.5t58 27.5q14 -22 23.5 -37.5t22.5 -37.5q-28 -43 -70.5 -64.5t-95.5 -21.5q-52 0 -95 21.5t-71 64.5q12 19 23.5 38t22.5 37q24 -16 58 -27.5
t62 -11.5z" />
    <glyph glyph-name="ebreve" unicode="&#x115;" horiz-adv-x="593" 
d="M250 60h125l26 111h107l23 -156q-50 -13 -111.5 -21.5t-113.5 -8.5q-43 0 -86.5 5.5t-79.5 24.5t-58 59.5t-22 109.5v130q0 75 14.5 122.5t40.5 74t60 38t74 14t82 2.5t80.5 -3t68 -17.5t46.5 -48.5t17 -96t-17 -96t-46.5 -48.5t-68 -17.5t-80.5 -3h-81v-175zM250 490
v-180h137v180h-137zM317 710q28 0 62 11.5t58 27.5q14 -22 23.5 -37.5t22.5 -37.5q-28 -43 -70.5 -64.5t-95.5 -21.5q-52 0 -95 21.5t-71 64.5q12 19 23.5 38t22.5 37q24 -16 58 -27.5t62 -11.5z" />
    <glyph glyph-name="Edotaccent" unicode="&#x116;" horiz-adv-x="571" 
d="M30 0v38h44v559h-44v38h506v-214h-117l-41 154h-89v-236h191v-55h-191v-224h89l41 154h117v-214h-506zM306 850q61 0 79 -20t18 -70t-18 -70.5t-79 -20.5t-79 20.5t-18 70.5t18 70t79 20z" />
    <glyph glyph-name="edotaccent" unicode="&#x117;" horiz-adv-x="593" 
d="M250 60h125l26 111h107l23 -156q-50 -13 -111.5 -21.5t-113.5 -8.5q-43 0 -86.5 5.5t-79.5 24.5t-58 59.5t-22 109.5v130q0 75 14.5 122.5t40.5 74t60 38t74 14t82 2.5t80.5 -3t68 -17.5t46.5 -48.5t17 -96t-17 -96t-46.5 -48.5t-68 -17.5t-80.5 -3h-81v-175zM250 490
v-180h137v180h-137zM317 765q61 0 79 -20t18 -70t-18 -70.5t-79 -20.5t-79 20.5t-18 70.5t18 70t79 20z" />
    <glyph glyph-name="Eogonek" unicode="&#x118;" horiz-adv-x="571" 
d="M30 0v38h44v559h-44v38h506v-214h-117l-41 154h-89v-236h191v-55h-191v-224h89l41 154h117v-214h-506zM329 -87q0 53 44.5 83t125.5 42v-27q-33 -4 -46.5 -17.5t-13.5 -33.5q0 -16 10.5 -24t24.5 -8q16 0 33 6t29 13l10 -57q-19 -20 -54.5 -37.5t-70.5 -17.5
q-39 0 -65.5 19t-26.5 59z" />
    <glyph glyph-name="eogonek" unicode="&#x119;" horiz-adv-x="593" 
d="M250 60h125l26 111h107l23 -156q-50 -13 -111.5 -21.5t-113.5 -8.5q-43 0 -86.5 5.5t-79.5 24.5t-58 59.5t-22 109.5v130q0 75 14.5 122.5t40.5 74t60 38t74 14t82 2.5t80.5 -3t68 -17.5t46.5 -48.5t17 -96t-17 -96t-46.5 -48.5t-68 -17.5t-80.5 -3h-81v-175zM250 490
v-180h137v180h-137zM326 -87q0 53 44.5 83t125.5 42v-27q-33 -4 -46.5 -17.5t-13.5 -33.5q0 -16 10.5 -24t24.5 -8q16 0 33 6t29 13l10 -57q-19 -20 -54.5 -37.5t-70.5 -17.5q-39 0 -65.5 19t-26.5 59z" />
    <glyph glyph-name="Ecaron" unicode="&#x11a;" horiz-adv-x="571" 
d="M30 0v38h44v559h-44v38h506v-214h-117l-41 154h-89v-236h191v-55h-191v-224h89l41 154h117v-214h-506zM472 802l-118 -130h-96l-118 130l59 71l107 -76l107 76z" />
    <glyph glyph-name="ecaron" unicode="&#x11b;" horiz-adv-x="593" 
d="M250 60h125l26 111h107l23 -156q-50 -13 -111.5 -21.5t-113.5 -8.5q-43 0 -86.5 5.5t-79.5 24.5t-58 59.5t-22 109.5v130q0 75 14.5 122.5t40.5 74t60 38t74 14t82 2.5t80.5 -3t68 -17.5t46.5 -48.5t17 -96t-17 -96t-46.5 -48.5t-68 -17.5t-80.5 -3h-81v-175zM250 490
v-180h137v180h-137zM483 717l-118 -130h-96l-118 130l59 71l107 -76l107 76z" />
    <glyph glyph-name="Gcircumflex" unicode="&#x11c;" horiz-adv-x="620" 
d="M286 -15q-42 0 -81.5 2.5t-73 15t-58.5 42t-39 82t-14 135.5v112q0 83 15.5 135t42.5 81.5t63.5 42t79 15t88.5 2.5q62 0 113.5 -7t89 -30t58 -72t20.5 -133v-19h-215v190h-140v-503h140v179h-70v55h285v-310h-115l-29 76h-11q-16 -40 -38.5 -59.5t-50.5 -25.5t-60 -6z
M358 872l118 -130l-59 -71l-107 76l-107 -76l-59 71l118 130h96z" />
    <glyph glyph-name="gcircumflex" unicode="&#x11d;" horiz-adv-x="589" 
d="M20 -41q0 51 13.5 80t32 40.5t34.5 11.5h75v13q-33 7 -42 25t-9 38v62q-38 13 -62.5 44.5t-24.5 92.5v21q0 67 18 103.5t49.5 52.5t72 19t85.5 3q64 0 99 -15.5t35 -65.5h13l10 41q11 43 26.5 59t59.5 16h44v-89h-11q-10 0 -14.5 -6t-4.5 -22v-117q0 -57 -20.5 -88
t-56 -44t-81 -16t-95.5 -3h-36v-24q0 -30 7 -43t27 -13h149q27 0 58.5 -13t53.5 -46t22 -94q0 -69 -22.5 -107.5t-81.5 -54t-167 -15.5q-85 0 -136 7.5t-77 25t-34.5 47t-8.5 74.5zM347 297v187h-137v-187h137zM403 10h-242v-105h242v105zM330 787l118 -130l-59 -71l-107 76
l-107 -76l-59 71l118 130h96z" />
    <glyph glyph-name="Gbreve" unicode="&#x11e;" horiz-adv-x="620" 
d="M286 -15q-42 0 -81.5 2.5t-73 15t-58.5 42t-39 82t-14 135.5v112q0 83 15.5 135t42.5 81.5t63.5 42t79 15t88.5 2.5q62 0 113.5 -7t89 -30t58 -72t20.5 -133v-19h-215v190h-140v-503h140v179h-70v55h285v-310h-115l-29 76h-11q-16 -40 -38.5 -59.5t-50.5 -25.5t-60 -6z
M310 795q28 0 62 11.5t58 27.5q14 -22 23.5 -37.5t22.5 -37.5q-28 -43 -70.5 -64.5t-95.5 -21.5q-52 0 -95 21.5t-71 64.5q12 19 23.5 38t22.5 37q24 -16 58 -27.5t62 -11.5z" />
    <glyph glyph-name="gbreve" unicode="&#x11f;" horiz-adv-x="589" 
d="M20 -41q0 51 13.5 80t32 40.5t34.5 11.5h75v13q-33 7 -42 25t-9 38v62q-38 13 -62.5 44.5t-24.5 92.5v21q0 67 18 103.5t49.5 52.5t72 19t85.5 3q64 0 99 -15.5t35 -65.5h13l10 41q11 43 26.5 59t59.5 16h44v-89h-11q-10 0 -14.5 -6t-4.5 -22v-117q0 -57 -20.5 -88
t-56 -44t-81 -16t-95.5 -3h-36v-24q0 -30 7 -43t27 -13h149q27 0 58.5 -13t53.5 -46t22 -94q0 -69 -22.5 -107.5t-81.5 -54t-167 -15.5q-85 0 -136 7.5t-77 25t-34.5 47t-8.5 74.5zM347 297v187h-137v-187h137zM403 10h-242v-105h242v105zM282 710q28 0 62 11.5t58 27.5
q14 -22 23.5 -37.5t22.5 -37.5q-28 -43 -70.5 -64.5t-95.5 -21.5q-52 0 -95 21.5t-71 64.5q12 19 23.5 38t22.5 37q24 -16 58 -27.5t62 -11.5z" />
    <glyph glyph-name="Gdotaccent" unicode="&#x120;" horiz-adv-x="620" 
d="M286 -15q-42 0 -81.5 2.5t-73 15t-58.5 42t-39 82t-14 135.5v112q0 83 15.5 135t42.5 81.5t63.5 42t79 15t88.5 2.5q62 0 113.5 -7t89 -30t58 -72t20.5 -133v-19h-215v190h-140v-503h140v179h-70v55h285v-310h-115l-29 76h-11q-16 -40 -38.5 -59.5t-50.5 -25.5t-60 -6z
M310 850q61 0 79 -20t18 -70t-18 -70.5t-79 -20.5t-79 20.5t-18 70.5t18 70t79 20z" />
    <glyph glyph-name="gdotaccent" unicode="&#x121;" horiz-adv-x="589" 
d="M20 -41q0 51 13.5 80t32 40.5t34.5 11.5h75v13q-33 7 -42 25t-9 38v62q-38 13 -62.5 44.5t-24.5 92.5v21q0 67 18 103.5t49.5 52.5t72 19t85.5 3q64 0 99 -15.5t35 -65.5h13l10 41q11 43 26.5 59t59.5 16h44v-89h-11q-10 0 -14.5 -6t-4.5 -22v-117q0 -57 -20.5 -88
t-56 -44t-81 -16t-95.5 -3h-36v-24q0 -30 7 -43t27 -13h149q27 0 58.5 -13t53.5 -46t22 -94q0 -69 -22.5 -107.5t-81.5 -54t-167 -15.5q-85 0 -136 7.5t-77 25t-34.5 47t-8.5 74.5zM347 297v187h-137v-187h137zM403 10h-242v-105h242v105zM282 765q61 0 79 -20t18 -70
t-18 -70.5t-79 -20.5t-79 20.5t-18 70.5t18 70t79 20z" />
    <glyph glyph-name="uni0122" unicode="&#x122;" horiz-adv-x="620" 
d="M286 -15q-42 0 -81.5 2.5t-73 15t-58.5 42t-39 82t-14 135.5v112q0 83 15.5 135t42.5 81.5t63.5 42t79 15t88.5 2.5q62 0 113.5 -7t89 -30t58 -72t20.5 -133v-19h-215v190h-140v-503h140v179h-70v55h285v-310h-115l-29 76h-11q-16 -40 -38.5 -59.5t-50.5 -25.5t-60 -6z
M390 -119q0 -51 -17.5 -96t-55.5 -80l-44 6l13 100q-27 0 -41.5 13.5t-14.5 56.5q0 36 7 53t26.5 21.5t54.5 4.5q29 0 44.5 -4.5t21.5 -21.5t6 -53z" />
    <glyph glyph-name="uni0123" unicode="&#x123;" horiz-adv-x="589" 
d="M20 -41q0 51 13.5 80t32 40.5t34.5 11.5h75v13q-33 7 -42 25t-9 38v62q-38 13 -62.5 44.5t-24.5 92.5v21q0 67 18 103.5t49.5 52.5t72 19t85.5 3q64 0 99 -15.5t35 -65.5h13l10 41q11 43 26.5 59t59.5 16h44v-89h-11q-10 0 -14.5 -6t-4.5 -22v-117q0 -57 -20.5 -88
t-56 -44t-81 -16t-95.5 -3h-36v-24q0 -30 7 -43t27 -13h149q27 0 58.5 -13t53.5 -46t22 -94q0 -69 -22.5 -107.5t-81.5 -54t-167 -15.5q-85 0 -136 7.5t-77 25t-34.5 47t-8.5 74.5zM347 297v187h-137v-187h137zM403 10h-242v-105h242v105zM202 663q0 51 18 96t55 80l44 -6
l-13 -100q27 0 41.5 -13.5t14.5 -56.5q0 -36 -7 -52.5t-26 -21.5t-55 -5q-29 0 -44.5 5t-21.5 21.5t-6 52.5z" />
    <glyph glyph-name="Hcircumflex" unicode="&#x124;" horiz-adv-x="728" 
d="M289 0h-259v38h44v559h-44v38h259v-296h150v296h259v-38h-44v-559h44v-38h-259v284h-150v-284zM412 872l118 -130l-59 -71l-107 76l-107 -76l-59 71l118 130h96z" />
    <glyph glyph-name="hcircumflex" unicode="&#x125;" horiz-adv-x="692" 
d="M652 0h-230v464h-147v-464h-230v38h40v653h-40v38h230v-134l-41 -15q-18 -7 -22 -12.5t-4 -17.5v-86h18q15 40 40 59.5t62 25.5t87 6q61 0 105 -13t68 -45.5t24 -91.5v-367h40v-38zM226 952l118 -130l-59 -71l-107 76l-107 -76l-59 71l118 130h96z" />
    <glyph glyph-name="Hbar" unicode="&#x126;" horiz-adv-x="728" 
d="M289 0h-259v38h44v403h-46v62h46v94h-44v38h259v-132h150v132h259v-38h-44v-94h46v-62h-46v-403h44v-38h-259v284h-150v-284zM289 339h150v102h-150v-102z" />
    <glyph glyph-name="hbar" unicode="&#x127;" horiz-adv-x="692" 
d="M10 596v49h75v46h-40v38h230v-84h205v-49h-205v-1l-41 -15q-18 -7 -22 -12.5t-4 -17.5v-86h18q15 40 40 59.5t62 25.5t87 6q61 0 105 -13t68 -45.5t24 -91.5v-367h40v-38h-230v464h-147v-464h-230v38h40v558h-75z" />
    <glyph glyph-name="Itilde" unicode="&#x128;" horiz-adv-x="381" 
d="M342 597h-44v-559h44v-38h-303v38h44v559h-44v38h303v-38zM367 826l-11 -57q-10 -55 -42 -78t-76 -23q-37 0 -64.5 16.5t-47.5 44.5h-12l-28 -51l-72 13l10 57q10 55 42 78.5t75 23.5q38 0 66 -16.5t47 -45.5h12l28 52z" />
    <glyph glyph-name="itilde" unicode="&#x129;" horiz-adv-x="355" 
d="M315 0h-270v38h40v474h-40v38h230v-512h40v-38zM354 741l-11 -57q-10 -55 -42 -78t-76 -23q-37 0 -64.5 16.5t-47.5 44.5h-12l-28 -51l-72 13l10 57q10 55 42 78.5t75 23.5q38 0 66 -16.5t47 -45.5h12l28 52z" />
    <glyph glyph-name="Imacron" unicode="&#x12a;" horiz-adv-x="381" 
d="M342 597h-44v-559h44v-38h-303v38h44v559h-44v38h303v-38zM45 695v124h292v-124h-292z" />
    <glyph glyph-name="imacron" unicode="&#x12b;" horiz-adv-x="355" 
d="M315 0h-270v38h40v474h-40v38h230v-512h40v-38zM32 610v124h292v-124h-292z" />
    <glyph glyph-name="Ibreve" unicode="&#x12c;" horiz-adv-x="381" 
d="M342 597h-44v-559h44v-38h-303v38h44v559h-44v38h303v-38zM191 795q28 0 62 11.5t58 27.5q14 -22 23.5 -37.5t22.5 -37.5q-28 -43 -70.5 -64.5t-95.5 -21.5q-52 0 -95 21.5t-71 64.5q12 19 23.5 38t22.5 37q24 -16 58 -27.5t62 -11.5z" />
    <glyph glyph-name="ibreve" unicode="&#x12d;" horiz-adv-x="355" 
d="M315 0h-270v38h40v474h-40v38h230v-512h40v-38zM178 710q28 0 62 11.5t58 27.5q14 -22 23.5 -37.5t22.5 -37.5q-28 -43 -70.5 -64.5t-95.5 -21.5q-52 0 -95 21.5t-71 64.5q12 19 23.5 38t22.5 37q24 -16 58 -27.5t62 -11.5z" />
    <glyph glyph-name="Iogonek" unicode="&#x12e;" horiz-adv-x="381" 
d="M342 597h-44v-559h44v-38h-303v38h44v559h-44v38h303v-38zM102 -87q0 53 44.5 83t125.5 42v-27q-33 -4 -46.5 -17.5t-13.5 -33.5q0 -16 10.5 -24t24.5 -8q16 0 33 6t29 13l10 -57q-19 -20 -54.5 -37.5t-70.5 -17.5q-39 0 -65.5 19t-26.5 59z" />
    <glyph glyph-name="iogonek" unicode="&#x12f;" horiz-adv-x="355" 
d="M186 599q-45 0 -69 5t-33 23t-9 55q0 38 9 55.5t33 22.5t69 5q40 0 61 -5t29 -22.5t8 -55.5q0 -37 -8 -55t-29 -23t-61 -5zM89 -87q0 55 51 87h-95v38h40v474h-40v38h230v-512h40v-38h-93q-23 -13 -23 -40q0 -16 10.5 -24t24.5 -8q16 0 33 6t29 13l10 -57
q-19 -20 -54.5 -37.5t-70.5 -17.5q-39 0 -65.5 19t-26.5 59z" />
    <glyph glyph-name="Idotaccent" unicode="&#x130;" horiz-adv-x="381" 
d="M342 597h-44v-559h44v-38h-303v38h44v559h-44v38h303v-38zM191 850q61 0 79 -20t18 -70t-18 -70.5t-79 -20.5t-79 20.5t-18 70.5t18 70t79 20z" />
    <glyph glyph-name="dotlessi" unicode="&#x131;" horiz-adv-x="355" 
d="M315 0h-270v38h40v474h-40v38h230v-512h40v-38z" />
    <glyph glyph-name="IJ" unicode="&#x132;" horiz-adv-x="732" 
d="M342 597h-44v-559h44v-38h-303v38h44v559h-44v38h303v-38zM464 249v348h-64v38h323v-38h-44v-392q0 -91 -24.5 -138.5t-65 -64.5t-90.5 -17q-49 0 -75.5 5.5t-43.5 9.5l23 170h127v53q0 20 -9 23t-21 3h-36z" />
    <glyph glyph-name="ij" unicode="&#x133;" horiz-adv-x="715" 
d="M186 599q-45 0 -69 5t-33 23t-9 55q0 38 9 55.5t33 22.5t69 5q40 0 61 -5t29 -22.5t8 -55.5q0 -37 -8 -55t-29 -23t-61 -5zM315 0h-270v38h40v474h-40v38h230v-512h40v-38zM546 599q-45 0 -69 5t-33 23t-9 55q0 38 9 55.5t33 22.5t69 5q40 0 61 -5t29 -22.5t8 -55.5
q0 -37 -8 -55t-29 -23t-61 -5zM453 -195q-21 0 -42 2t-42 6l20 157h122v53q0 20 -9 23t-21 3h-36v463h-40v38h230v-530q0 -114 -46.5 -164.5t-135.5 -50.5z" />
    <glyph glyph-name="Jcircumflex" unicode="&#x134;" horiz-adv-x="351" 
d="M83 249v348h-64v38h323v-38h-44v-392q0 -91 -24.5 -138.5t-65 -64.5t-90.5 -17q-49 0 -75.5 5.5t-43.5 9.5l23 170h127v53q0 20 -9 23t-21 3h-36zM224 872l118 -130l-59 -71l-107 76l-107 -76l-59 71l118 130h96z" />
    <glyph glyph-name="jcircumflex" unicode="&#x135;" horiz-adv-x="360" 
d="M98 -195q-21 0 -42 2t-42 6l20 157h122v53q0 20 -9 23t-21 3h-36v463h-40v38h230v-530q0 -114 -46.5 -164.5t-135.5 -50.5zM228 787l118 -130l-59 -71l-107 76l-107 -76l-59 71l118 130h96z" />
    <glyph glyph-name="uni0136" unicode="&#x136;" horiz-adv-x="671" 
d="M460 322v-23h45q35 0 46 -11.5t18 -45.5l40 -204h57v-38h-247l-60 284h-70v-284h-259v38h44v559h-44v38h259v-296h73l57 296h237v-38h-52l-64 -212q-10 -34 -30.5 -47t-49.5 -16zM416 -119q0 -51 -17.5 -96t-55.5 -80l-44 6l13 100q-27 0 -41.5 13.5t-14.5 56.5
q0 36 7 53t26.5 21.5t54.5 4.5q29 0 44.5 -4.5t21.5 -21.5t6 -53z" />
    <glyph glyph-name="uni0137" unicode="&#x137;" horiz-adv-x="642" 
d="M270 0h-230v38h40v653h-40v38h257v-149l-19 -7q-18 -7 -22 -12.5t-4 -17.5v-184h18q22 76 47 119.5t57 62t75 18.5q21 0 52.5 -1.5t52.5 -6.5l-20 -157h-122v-53q0 -19 9 -22.5t21 -3.5h85l66 -277h39v-38h-241l-48 268h-73v-268zM401 -119q0 -51 -17.5 -96t-55.5 -80
l-44 6l13 100q-27 0 -41.5 13.5t-14.5 56.5q0 36 7 53t26.5 21.5t54.5 4.5q29 0 44.5 -4.5t21.5 -21.5t6 -53z" />
    <glyph glyph-name="kgreenlandic" unicode="&#x138;" horiz-adv-x="632" 
d="M426 280v-23h45q35 0 46 -11.5t18 -45.5l40 -162h57v-38h-247l-60 242h-50v-242h-230v38h40v474h-40v38h230v-253h53l57 253h237v-38h-52l-64 -169q-10 -34 -30.5 -47t-49.5 -16z" />
    <glyph glyph-name="Lacute" unicode="&#x139;" horiz-adv-x="531" 
d="M526 214v-214h-496v38h44v559h-44v38h303v-38h-44v-537h79l41 154h117zM70 763l211 102l49 -135l-227 -59z" />
    <glyph glyph-name="lacute" unicode="&#x13a;" horiz-adv-x="355" 
d="M45 729h230v-691h40v-38h-270v38h40v653h-40v38zM57 843l211 102l49 -135l-227 -59z" />
    <glyph glyph-name="uni013B" unicode="&#x13b;" horiz-adv-x="531" 
d="M526 214v-214h-496v38h44v559h-44v38h303v-38h-44v-537h79l41 154h117zM346 -119q0 -51 -17.5 -96t-55.5 -80l-44 6l13 100q-27 0 -41.5 13.5t-14.5 56.5q0 36 7 53t26.5 21.5t54.5 4.5q29 0 44.5 -4.5t21.5 -21.5t6 -53z" />
    <glyph glyph-name="uni013C" unicode="&#x13c;" horiz-adv-x="355" 
d="M45 729h230v-691h40v-38h-270v38h40v653h-40v38zM258 -119q0 -51 -17.5 -96t-55.5 -80l-44 6l13 100q-27 0 -41.5 13.5t-14.5 56.5q0 36 7 53t26.5 21.5t54.5 4.5q29 0 44.5 -4.5t21.5 -21.5t6 -53z" />
    <glyph glyph-name="Lcaron" unicode="&#x13d;" horiz-adv-x="531" 
d="M526 214v-214h-496v38h44v559h-44v38h303v-38h-44v-537h79l41 154h117zM525 699q0 -51 -17.5 -96t-55.5 -80l-44 6l13 100q-27 0 -41.5 13.5t-14.5 56.5q0 36 7 53t26.5 21.5t54.5 4.5q29 0 44.5 -4.5t21.5 -21.5t6 -53z" />
    <glyph glyph-name="lcaron" unicode="&#x13e;" horiz-adv-x="355" 
d="M45 729h230v-691h40v-38h-270v38h40v653h-40v38zM495 699q0 -51 -17.5 -96t-55.5 -80l-44 6l13 100q-27 0 -41.5 13.5t-14.5 56.5q0 36 7 53t26.5 21.5t54.5 4.5q29 0 44.5 -4.5t21.5 -21.5t6 -53z" />
    <glyph glyph-name="Ldot" unicode="&#x13f;" horiz-adv-x="531" 
d="M526 214v-214h-496v38h44v559h-44v38h303v-38h-44v-537h79l41 154h117zM530 374q0 -44 -7.5 -65t-26.5 -27t-55 -6q-40 0 -61.5 6t-29.5 27t-8 65q0 45 8 66.5t29.5 27.5t62.5 6q35 0 54 -6t26.5 -27.5t7.5 -66.5z" />
    <glyph glyph-name="ldot" unicode="&#x140;" horiz-adv-x="462" 
d="M45 729h230v-691h40v-38h-270v38h40v653h-40v38zM504 374q0 -44 -7.5 -65t-26.5 -27t-55 -6q-40 0 -61.5 6t-29.5 27t-8 65q0 45 8 66.5t29.5 27.5t62.5 6q35 0 54 -6t26.5 -27.5t7.5 -66.5z" />
    <glyph glyph-name="Lslash" unicode="&#x141;" horiz-adv-x="531" 
d="M17 237v62l57 25v273h-44v38h303v-38h-44v-179l121 53v-62l-121 -53v-296h79l41 154h117v-214h-496v38h44v224z" />
    <glyph glyph-name="lslash" unicode="&#x142;" horiz-adv-x="355" 
d="M5 257v62l80 35v337h-40v38h230v-292l75 33v-62l-75 -33v-337h40v-38h-270v38h40v254z" />
    <glyph glyph-name="Nacute" unicode="&#x143;" horiz-adv-x="727" 
d="M30 597v38h385l141 -575h41l-81 575h191v-38h-44v-597h-341l-129 575h-41l69 -575h-191v38h44v559h-44zM234 763l211 102l49 -135l-227 -59z" />
    <glyph glyph-name="nacute" unicode="&#x144;" horiz-adv-x="692" 
d="M652 0h-230v474h-147v-474h-230v38h40v474h-40v38h133l35 -76h13q15 40 40 59.5t62 25.5t87 6q61 0 105 -13t68 -45.5t24 -91.5v-377h40v-38zM216 678l211 102l49 -135l-227 -59z" />
    <glyph glyph-name="uni0145" unicode="&#x145;" horiz-adv-x="727" 
d="M30 597v38h385l141 -575h41l-81 575h191v-38h-44v-597h-341l-129 575h-41l69 -575h-191v38h44v559h-44zM463 -119q0 -51 -17.5 -96t-55.5 -80l-44 6l13 100q-27 0 -41.5 13.5t-14.5 56.5q0 36 7 53t26.5 21.5t54.5 4.5q29 0 44.5 -4.5t21.5 -21.5t6 -53z" />
    <glyph glyph-name="uni0146" unicode="&#x146;" horiz-adv-x="692" 
d="M652 0h-230v474h-147v-474h-230v38h40v474h-40v38h133l35 -76h13q15 40 40 59.5t62 25.5t87 6q61 0 105 -13t68 -45.5t24 -91.5v-377h40v-38zM426 -119q0 -51 -17.5 -96t-55.5 -80l-44 6l13 100q-27 0 -41.5 13.5t-14.5 56.5q0 36 7 53t26.5 21.5t54.5 4.5
q29 0 44.5 -4.5t21.5 -21.5t6 -53z" />
    <glyph glyph-name="Ncaron" unicode="&#x147;" horiz-adv-x="727" 
d="M30 597v38h385l141 -575h41l-81 575h191v-38h-44v-597h-341l-129 575h-41l69 -575h-191v38h44v559h-44zM530 802l-118 -130h-96l-118 130l59 71l107 -76l107 76z" />
    <glyph glyph-name="ncaron" unicode="&#x148;" horiz-adv-x="692" 
d="M652 0h-230v474h-147v-474h-230v38h40v474h-40v38h133l35 -76h13q15 40 40 59.5t62 25.5t87 6q61 0 105 -13t68 -45.5t24 -91.5v-377h40v-38zM512 717l-118 -130h-96l-118 130l59 71l107 -76l107 76z" />
    <glyph glyph-name="napostrophe" unicode="&#x149;" horiz-adv-x="692" 
d="M652 0h-230v474h-147v-474h-230v38h40v474h-40v38h133l35 -76h13q15 40 40 59.5t62 25.5t87 6q61 0 105 -13t68 -45.5t24 -91.5v-377h40v-38zM255 759q0 -51 -17.5 -96t-55.5 -80l-44 6l13 100q-27 0 -41.5 13.5t-14.5 56.5q0 36 7 53t26 21.5t55 4.5q29 0 44.5 -4.5
t21.5 -21.5t6 -53z" />
    <glyph glyph-name="Eng" unicode="&#x14a;" horiz-adv-x="727" 
d="M30 597v38h385l141 -526h41l-81 526h191v-38h-44v-626q0 -88 -46.5 -127t-135.5 -39q-21 0 -42 2t-42 6l14 108h128v53q0 20 -9 23t-21 3h-176l-140 575h-41l69 -575h-191v38h44v559h-44z" />
    <glyph glyph-name="eng" unicode="&#x14b;" horiz-adv-x="692" 
d="M430 -195q-21 0 -42 2t-42 6l20 157h122v53q0 20 -9 23t-21 3h-36v425h-147v-474h-230v38h40v474h-40v38h133l35 -76h13q15 40 40 59.5t62 25.5t87 6q61 0 105 -13t68 -45.5t24 -91.5v-395q0 -114 -46.5 -164.5t-135.5 -50.5z" />
    <glyph glyph-name="Omacron" unicode="&#x14c;" horiz-adv-x="620" 
d="M600 374v-112q0 -83 -16 -135.5t-45 -82t-67.5 -42t-83.5 -15t-93 -2.5q-44 0 -84.5 2.5t-75 15t-60.5 42t-40.5 82t-14.5 135.5v112q0 83 16 135t45 81.5t67.5 42t83.5 15t93 2.5q44 0 84.5 -2.5t75 -15t60.5 -42t40.5 -81.5t14.5 -135zM385 57v522h-150v-522h150z
M164 695v124h292v-124h-292z" />
    <glyph glyph-name="omacron" unicode="&#x14d;" horiz-adv-x="647" 
d="M587 314v-78q0 -75 -14.5 -122.5t-41 -74t-61 -38t-75.5 -14t-85 -2.5q-49 0 -94 4.5t-80.5 27t-55.5 74t-20 145.5v78q0 75 14.5 122.5t41 74t61 38t75.5 14t85 2.5q50 0 94.5 -4.5t80 -27t55.5 -74t20 -145.5zM397 60v430h-147v-430h147zM178 610v124h292v-124h-292z
" />
    <glyph glyph-name="Obreve" unicode="&#x14e;" horiz-adv-x="620" 
d="M600 374v-112q0 -83 -16 -135.5t-45 -82t-67.5 -42t-83.5 -15t-93 -2.5q-44 0 -84.5 2.5t-75 15t-60.5 42t-40.5 82t-14.5 135.5v112q0 83 16 135t45 81.5t67.5 42t83.5 15t93 2.5q44 0 84.5 -2.5t75 -15t60.5 -42t40.5 -81.5t14.5 -135zM385 57v522h-150v-522h150z
M310 795q28 0 62 11.5t58 27.5q14 -22 23.5 -37.5t22.5 -37.5q-28 -43 -70.5 -64.5t-95.5 -21.5q-52 0 -95 21.5t-71 64.5q12 19 23.5 38t22.5 37q24 -16 58 -27.5t62 -11.5z" />
    <glyph glyph-name="obreve" unicode="&#x14f;" horiz-adv-x="647" 
d="M587 314v-78q0 -75 -14.5 -122.5t-41 -74t-61 -38t-75.5 -14t-85 -2.5q-49 0 -94 4.5t-80.5 27t-55.5 74t-20 145.5v78q0 75 14.5 122.5t41 74t61 38t75.5 14t85 2.5q50 0 94.5 -4.5t80 -27t55.5 -74t20 -145.5zM397 60v430h-147v-430h147zM324 710q28 0 62 11.5t58 27.5
q14 -22 23.5 -37.5t22.5 -37.5q-28 -43 -70.5 -64.5t-95.5 -21.5q-52 0 -95 21.5t-71 64.5q12 19 23.5 38t22.5 37q24 -16 58 -27.5t62 -11.5z" />
    <glyph glyph-name="Ohungarumlaut" unicode="&#x150;" horiz-adv-x="620" 
d="M600 374v-112q0 -83 -16 -135.5t-45 -82t-67.5 -42t-83.5 -15t-93 -2.5q-44 0 -84.5 2.5t-75 15t-60.5 42t-40.5 82t-14.5 135.5v112q0 83 16 135t45 81.5t67.5 42t83.5 15t93 2.5q44 0 84.5 -2.5t75 -15t60.5 -42t40.5 -81.5t14.5 -135zM385 57v522h-150v-522h150z
M102 735l127 154l96 -103l-155 -121zM334 735l127 154l96 -103l-155 -121z" />
    <glyph glyph-name="ohungarumlaut" unicode="&#x151;" horiz-adv-x="647" 
d="M587 314v-78q0 -75 -14.5 -122.5t-41 -74t-61 -38t-75.5 -14t-85 -2.5q-49 0 -94 4.5t-80.5 27t-55.5 74t-20 145.5v78q0 75 14.5 122.5t41 74t61 38t75.5 14t85 2.5q50 0 94.5 -4.5t80 -27t55.5 -74t20 -145.5zM397 60v430h-147v-430h147zM96 650l127 154l96 -103
l-155 -121zM328 650l127 154l96 -103l-155 -121z" />
    <glyph glyph-name="OE" unicode="&#x152;" horiz-adv-x="882" 
d="M847 0h-552q-44 0 -84.5 2.5t-75 14.5t-60.5 39.5t-40.5 77t-14.5 128.5v112q0 78 16 127.5t45 77t67.5 39.5t83.5 14.5t93 2.5h522v-214h-117l-41 154h-89v-236h191v-55h-191v-224h89l41 154h117v-214zM385 60v515h-150v-515h150z" />
    <glyph glyph-name="oe" unicode="&#x153;" horiz-adv-x="930" 
d="M587 60h125l26 111h107l23 -156q-50 -13 -111.5 -21.5t-113.5 -8.5q-39 0 -79 4t-75 20q-37 -18 -83 -21t-96 -3q-49 0 -94 4.5t-80.5 27t-55.5 74t-20 145.5v78q0 75 14.5 122.5t41 74t61 38t75.5 14t85 2.5t85 -3t74 -20q36 17 80.5 20t91.5 3q42 0 80.5 -3t68 -17.5
t46.5 -48.5t17 -96t-17 -96t-46.5 -48.5t-68 -17.5t-80.5 -3h-81v-175zM250 490v-430h178q-15 22 -23 52.5t-8 71.5v130q0 62 10 105t29 71h-186zM587 490v-180h137v180h-137z" />
    <glyph glyph-name="Racute" unicode="&#x154;" horiz-adv-x="676" 
d="M289 0h-259v38h44v559h-44v38h352q54 0 103 -3.5t87 -20.5t60 -55.5t22 -108.5q0 -65 -19 -103t-52 -56t-76 -25v-23h45q35 0 47.5 -12.5t16.5 -47.5l17 -142h53v-38h-247v210h-150v-210zM439 282v283h-150v-283h150zM238 763l211 102l49 -135l-227 -59z" />
    <glyph glyph-name="racute" unicode="&#x155;" horiz-adv-x="391" 
d="M45 550h121l20 -76h8q17 53 45.5 72t69.5 19q29 0 63 -6l-21 -165h-142v-53q0 -19 9 -22.5t21 -3.5h36v-277h81v-38h-311v38h40v474h-40v38zM96 678l211 102l49 -135l-227 -59z" />
    <glyph glyph-name="uni0156" unicode="&#x156;" horiz-adv-x="676" 
d="M289 0h-259v38h44v559h-44v38h352q54 0 103 -3.5t87 -20.5t60 -55.5t22 -108.5q0 -65 -19 -103t-52 -56t-76 -25v-23h45q35 0 47.5 -12.5t16.5 -47.5l17 -142h53v-38h-247v210h-150v-210zM439 282v283h-150v-283h150zM448 -119q0 -51 -17.5 -96t-55.5 -80l-44 6l13 100
q-27 0 -41.5 13.5t-14.5 56.5q0 36 7 53t26.5 21.5t54.5 4.5q29 0 44.5 -4.5t21.5 -21.5t6 -53z" />
    <glyph glyph-name="uni0157" unicode="&#x157;" horiz-adv-x="391" 
d="M45 550h121l20 -76h8q17 53 45.5 72t69.5 19q29 0 63 -6l-21 -165h-142v-53q0 -19 9 -22.5t21 -3.5h36v-277h81v-38h-311v38h40v474h-40v38zM264 -119q0 -51 -17.5 -96t-55.5 -80l-44 6l13 100q-27 0 -41.5 13.5t-14.5 56.5q0 36 7 53t26.5 21.5t54.5 4.5q29 0 44.5 -4.5
t21.5 -21.5t6 -53z" />
    <glyph glyph-name="Rcaron" unicode="&#x158;" horiz-adv-x="676" 
d="M289 0h-259v38h44v559h-44v38h352q54 0 103 -3.5t87 -20.5t60 -55.5t22 -108.5q0 -65 -19 -103t-52 -56t-76 -25v-23h45q35 0 47.5 -12.5t16.5 -47.5l17 -142h53v-38h-247v210h-150v-210zM439 282v283h-150v-283h150zM534 802l-118 -130h-96l-118 130l59 71l107 -76
l107 76z" />
    <glyph glyph-name="rcaron" unicode="&#x159;" horiz-adv-x="391" 
d="M45 550h121l20 -76h8q17 53 45.5 72t69.5 19q29 0 63 -6l-21 -165h-142v-53q0 -19 9 -22.5t21 -3.5h36v-277h81v-38h-311v38h40v474h-40v38zM392 717l-118 -130h-96l-118 130l59 71l107 -76l107 76z" />
    <glyph glyph-name="Sacute" unicode="&#x15a;" horiz-adv-x="555" 
d="M271 -15q-38 0 -83.5 4.5t-90 12t-82.5 17.5l27 180h128l31 -128h111v75l-197 146q-42 31 -64 74t-22 113q0 58 21.5 92.5t58 51.5t84.5 22.5t100 5.5t114.5 -9.5t114.5 -24.5l-27 -180h-116l-27 128h-100v-75l197 -146q42 -31 64 -74t22 -113q0 -58 -21.5 -92.5
t-58.5 -51.5t-84.5 -22.5t-99.5 -5.5zM158 763l211 102l49 -135l-227 -59z" />
    <glyph glyph-name="sacute" unicode="&#x15b;" horiz-adv-x="570" 
d="M281 -15q-52 0 -116 8.5t-115 21.5l24 156h115l27 -111h114v72l-187 129q-40 27 -60.5 60t-20.5 94q0 51 19 81t52.5 45t76.5 19.5t91 4.5q47 0 104.5 -8t103.5 -22l-24 -156h-105l-24 111h-104v-72l187 -129q40 -27 60.5 -60t20.5 -94q0 -51 -19 -81t-52.5 -45
t-76.5 -19.5t-91 -4.5zM155 678l211 102l49 -135l-227 -59z" />
    <glyph glyph-name="Scircumflex" unicode="&#x15c;" horiz-adv-x="555" 
d="M271 -15q-38 0 -83.5 4.5t-90 12t-82.5 17.5l27 180h128l31 -128h111v75l-197 146q-42 31 -64 74t-22 113q0 58 21.5 92.5t58 51.5t84.5 22.5t100 5.5t114.5 -9.5t114.5 -24.5l-27 -180h-116l-27 128h-100v-75l197 -146q42 -31 64 -74t22 -113q0 -58 -21.5 -92.5
t-58.5 -51.5t-84.5 -22.5t-99.5 -5.5zM336 872l118 -130l-59 -71l-107 76l-107 -76l-59 71l118 130h96z" />
    <glyph glyph-name="scircumflex" unicode="&#x15d;" horiz-adv-x="570" 
d="M281 -15q-52 0 -116 8.5t-115 21.5l24 156h115l27 -111h114v72l-187 129q-40 27 -60.5 60t-20.5 94q0 51 19 81t52.5 45t76.5 19.5t91 4.5q47 0 104.5 -8t103.5 -22l-24 -156h-105l-24 111h-104v-72l187 -129q40 -27 60.5 -60t20.5 -94q0 -51 -19 -81t-52.5 -45
t-76.5 -19.5t-91 -4.5zM333 787l118 -130l-59 -71l-107 76l-107 -76l-59 71l118 130h96z" />
    <glyph glyph-name="Scedilla" unicode="&#x15e;" horiz-adv-x="555" 
d="M271 -15q-38 0 -83.5 4.5t-90 12t-82.5 17.5l27 180h128l31 -128h111v75l-197 146q-42 31 -64 74t-22 113q0 58 21.5 92.5t58 51.5t84.5 22.5t100 5.5t114.5 -9.5t114.5 -24.5l-27 -180h-116l-27 128h-100v-75l197 -146q42 -31 64 -74t22 -113q0 -58 -21.5 -92.5
t-58.5 -51.5t-84.5 -22.5t-99.5 -5.5zM364 -76q0 -35 -17 -54.5t-42.5 -27t-51.5 -7.5q-32 0 -61 5t-51 11l7 97h52l34 -52h27v110q22 0 45.5 -5.5t40.5 -23t17 -53.5z" />
    <glyph glyph-name="scedilla" unicode="&#x15f;" horiz-adv-x="570" 
d="M281 -15q-52 0 -116 8.5t-115 21.5l24 156h115l27 -111h114v72l-187 129q-40 27 -60.5 60t-20.5 94q0 51 19 81t52.5 45t76.5 19.5t91 4.5q47 0 104.5 -8t103.5 -22l-24 -156h-105l-24 111h-104v-72l187 -129q40 -27 60.5 -60t20.5 -94q0 -51 -19 -81t-52.5 -45
t-76.5 -19.5t-91 -4.5zM386 -76q0 -35 -17 -54.5t-42.5 -27t-51.5 -7.5q-32 0 -61 5t-51 11l7 97h52l34 -52h27v110q22 0 45.5 -5.5t40.5 -23t17 -53.5z" />
    <glyph glyph-name="Scaron" unicode="&#x160;" horiz-adv-x="555" 
d="M271 -15q-38 0 -83.5 4.5t-90 12t-82.5 17.5l27 180h128l31 -128h111v75l-197 146q-42 31 -64 74t-22 113q0 58 21.5 92.5t58 51.5t84.5 22.5t100 5.5t114.5 -9.5t114.5 -24.5l-27 -180h-116l-27 128h-100v-75l197 -146q42 -31 64 -74t22 -113q0 -58 -21.5 -92.5
t-58.5 -51.5t-84.5 -22.5t-99.5 -5.5zM454 802l-118 -130h-96l-118 130l59 71l107 -76l107 76z" />
    <glyph glyph-name="scaron" unicode="&#x161;" horiz-adv-x="570" 
d="M281 -15q-52 0 -116 8.5t-115 21.5l24 156h115l27 -111h114v72l-187 129q-40 27 -60.5 60t-20.5 94q0 51 19 81t52.5 45t76.5 19.5t91 4.5q47 0 104.5 -8t103.5 -22l-24 -156h-105l-24 111h-104v-72l187 -129q40 -27 60.5 -60t20.5 -94q0 -51 -19 -81t-52.5 -45
t-76.5 -19.5t-91 -4.5zM451 717l-118 -130h-96l-118 130l59 71l107 -76l107 76z" />
    <glyph glyph-name="uni0162" unicode="&#x162;" horiz-adv-x="579" 
d="M574 635v-208h-117l-25 138h-57l22 -168v-359h84v-38h-383v38h84v359l22 168h-57l-25 -144h-117v214h569zM401 -76q0 -35 -17 -54.5t-42.5 -27t-51.5 -7.5q-32 0 -61 5t-51 11l7 97h52l34 -52h27v110q22 0 45.5 -5.5t40.5 -23t17 -53.5z" />
    <glyph glyph-name="uni0163" unicode="&#x163;" horiz-adv-x="390" 
d="M40 550h50l108 118h72v-118h105v-48h-105v-452h57v99h48v-73q0 -57 -39 -74t-104 -17q-25 0 -52 3t-49.5 17.5t-36.5 48.5t-14 96v352h-40v48zM306 -76q0 -35 -17 -54.5t-42.5 -27t-51.5 -7.5q-32 0 -61 5t-51 11l7 97h52l34 -52h27v110q22 0 45.5 -5.5t40.5 -23
t17 -53.5z" />
    <glyph glyph-name="Tcaron" unicode="&#x164;" horiz-adv-x="579" 
d="M574 635v-208h-117l-25 138h-57l22 -168v-359h84v-38h-383v38h84v359l22 168h-57l-25 -144h-117v214h569zM456 802l-118 -130h-96l-118 130l59 71l107 -76l107 76z" />
    <glyph glyph-name="tcaron" unicode="&#x165;" horiz-adv-x="390" 
d="M40 550h50l108 118h72v-118h105v-48h-105v-452h57v99h48v-73q0 -57 -39 -74t-104 -17q-25 0 -52 3t-49.5 17.5t-36.5 48.5t-14 96v352h-40v48zM460 775q0 -51 -17.5 -96t-55.5 -80l-44 6l13 100q-27 0 -41.5 13.5t-14.5 56.5q0 36 7 53t26.5 21.5t54.5 4.5
q29 0 44.5 -4.5t21.5 -21.5t6 -53z" />
    <glyph glyph-name="Tbar" unicode="&#x166;" horiz-adv-x="579" 
d="M54 252v62h128v83l22 168h-57l-25 -144h-117v214h569v-208h-117l-25 138h-57l22 -168v-83h127v-62h-127v-214h84v-38h-383v38h84v214h-128z" />
    <glyph glyph-name="tbar" unicode="&#x167;" horiz-adv-x="390" 
d="M0 252v62h80v188h-40v48h50l108 118h72v-118h105v-48h-105v-188h105v-62h-105v-202h57v99h48v-73q0 -57 -39 -74t-104 -17q-25 0 -52 3t-49.5 17.5t-36.5 48.5t-14 96v102h-80z" />
    <glyph glyph-name="Utilde" unicode="&#x168;" horiz-adv-x="648" 
d="M274 57h150v578h214v-38h-44v-363q0 -93 -21 -144.5t-57.5 -73.5t-83 -26.5t-98.5 -4.5q-44 0 -85.5 2.5t-76.5 13.5t-61.5 37.5t-41.5 73.5t-15 122v363h-44v38h264v-578zM520 826l-11 -57q-10 -55 -42 -78t-76 -23q-37 0 -64.5 16.5t-47.5 44.5h-12l-28 -51l-72 13
l10 57q10 55 42 78.5t75 23.5q38 0 66 -16.5t47 -45.5h12l28 52z" />
    <glyph glyph-name="utilde" unicode="&#x169;" horiz-adv-x="692" 
d="M80 150v362h-40v38h230v-474h147v474h190v-512h40v-38h-123l-40 76h-13q0 -57 -42 -74t-113 -17q-40 0 -81.5 3t-76.5 17.5t-56.5 48.5t-21.5 96zM522 741l-11 -57q-10 -55 -42 -78t-76 -23q-37 0 -64.5 16.5t-47.5 44.5h-12l-28 -51l-72 13l10 57q10 55 42 78.5t75 23.5
q38 0 66 -16.5t47 -45.5h12l28 52z" />
    <glyph glyph-name="Umacron" unicode="&#x16a;" horiz-adv-x="648" 
d="M274 57h150v578h214v-38h-44v-363q0 -93 -21 -144.5t-57.5 -73.5t-83 -26.5t-98.5 -4.5q-44 0 -85.5 2.5t-76.5 13.5t-61.5 37.5t-41.5 73.5t-15 122v363h-44v38h264v-578zM198 695v124h292v-124h-292z" />
    <glyph glyph-name="umacron" unicode="&#x16b;" horiz-adv-x="692" 
d="M80 150v362h-40v38h230v-474h147v474h190v-512h40v-38h-123l-40 76h-13q0 -57 -42 -74t-113 -17q-40 0 -81.5 3t-76.5 17.5t-56.5 48.5t-21.5 96zM200 610v124h292v-124h-292z" />
    <glyph glyph-name="Ubreve" unicode="&#x16c;" horiz-adv-x="648" 
d="M274 57h150v578h214v-38h-44v-363q0 -93 -21 -144.5t-57.5 -73.5t-83 -26.5t-98.5 -4.5q-44 0 -85.5 2.5t-76.5 13.5t-61.5 37.5t-41.5 73.5t-15 122v363h-44v38h264v-578zM344 795q28 0 62 11.5t58 27.5q14 -22 23.5 -37.5t22.5 -37.5q-28 -43 -70.5 -64.5t-95.5 -21.5
q-52 0 -95 21.5t-71 64.5q12 19 23.5 38t22.5 37q24 -16 58 -27.5t62 -11.5z" />
    <glyph glyph-name="ubreve" unicode="&#x16d;" horiz-adv-x="692" 
d="M80 150v362h-40v38h230v-474h147v474h190v-512h40v-38h-123l-40 76h-13q0 -57 -42 -74t-113 -17q-40 0 -81.5 3t-76.5 17.5t-56.5 48.5t-21.5 96zM346 710q28 0 62 11.5t58 27.5q14 -22 23.5 -37.5t22.5 -37.5q-28 -43 -70.5 -64.5t-95.5 -21.5q-52 0 -95 21.5t-71 64.5
q12 19 23.5 38t22.5 37q24 -16 58 -27.5t62 -11.5z" />
    <glyph glyph-name="Uring" unicode="&#x16e;" horiz-adv-x="648" 
d="M274 57h150v578h214v-38h-44v-363q0 -93 -21 -144.5t-57.5 -73.5t-83 -26.5t-98.5 -4.5q-44 0 -85.5 2.5t-76.5 13.5t-61.5 37.5t-41.5 73.5t-15 122v363h-44v38h264v-578zM344 875q51 0 77 -11t35.5 -36.5t9.5 -67.5t-9.5 -67t-35.5 -36.5t-77 -11.5t-77 11.5
t-35.5 36.5t-9.5 67t9.5 67.5t35.5 36.5t77 11zM344 803q-26 0 -33.5 -7t-7.5 -36q0 -31 7.5 -37t33.5 -6t33.5 6t7.5 37q0 29 -7.5 36t-33.5 7z" />
    <glyph glyph-name="uring" unicode="&#x16f;" horiz-adv-x="692" 
d="M80 150v362h-40v38h230v-474h147v474h190v-512h40v-38h-123l-40 76h-13q0 -57 -42 -74t-113 -17q-40 0 -81.5 3t-76.5 17.5t-56.5 48.5t-21.5 96zM346 790q51 0 77 -11t35.5 -36.5t9.5 -67.5t-9.5 -67t-35.5 -36.5t-77 -11.5t-77 11.5t-35.5 36.5t-9.5 67t9.5 67.5
t35.5 36.5t77 11zM346 718q-26 0 -33.5 -7t-7.5 -36q0 -31 7.5 -37t33.5 -6t33.5 6t7.5 37q0 29 -7.5 36t-33.5 7z" />
    <glyph glyph-name="Uhungarumlaut" unicode="&#x170;" horiz-adv-x="648" 
d="M274 57h150v578h214v-38h-44v-363q0 -93 -21 -144.5t-57.5 -73.5t-83 -26.5t-98.5 -4.5q-44 0 -85.5 2.5t-76.5 13.5t-61.5 37.5t-41.5 73.5t-15 122v363h-44v38h264v-578zM136 735l127 154l96 -103l-155 -121zM368 735l127 154l96 -103l-155 -121z" />
    <glyph glyph-name="uhungarumlaut" unicode="&#x171;" horiz-adv-x="692" 
d="M80 150v362h-40v38h230v-474h147v474h190v-512h40v-38h-123l-40 76h-13q0 -57 -42 -74t-113 -17q-40 0 -81.5 3t-76.5 17.5t-56.5 48.5t-21.5 96zM118 650l127 154l96 -103l-155 -121zM350 650l127 154l96 -103l-155 -121z" />
    <glyph glyph-name="Uogonek" unicode="&#x172;" horiz-adv-x="648" 
d="M274 57h150v578h214v-38h-44v-363q0 -93 -21 -144.5t-57.5 -73.5t-83 -26.5t-98.5 -4.5q-44 0 -85.5 2.5t-76.5 13.5t-61.5 37.5t-41.5 73.5t-15 122v363h-44v38h264v-578zM266 -87q0 53 44.5 83t125.5 42v-27q-33 -4 -46.5 -17.5t-13.5 -33.5q0 -16 10.5 -24t24.5 -8
q16 0 33 6t29 13l10 -57q-19 -20 -54.5 -37.5t-70.5 -17.5q-39 0 -65.5 19t-26.5 59z" />
    <glyph glyph-name="uogonek" unicode="&#x173;" horiz-adv-x="692" 
d="M80 150v362h-40v38h230v-474h147v474h190v-512h40v-38h-123l-40 76h-13q0 -57 -42 -74t-113 -17q-40 0 -81.5 3t-76.5 17.5t-56.5 48.5t-21.5 96zM471 -87q0 53 44.5 83t125.5 42v-27q-33 -4 -46.5 -17.5t-13.5 -33.5q0 -16 10.5 -24t24.5 -8q16 0 33 6t29 13l10 -57
q-19 -20 -54.5 -37.5t-70.5 -17.5q-39 0 -65.5 19t-26.5 59z" />
    <glyph glyph-name="Wcircumflex" unicode="&#x174;" horiz-adv-x="955" 
d="M552 182h-44l-35 -182h-339l-90 597h-44v38h288l54 -575h80v575h162l53 -575h80v575h238v-38h-43l-115 -597h-245v182zM556 872l118 -130l-59 -71l-107 76l-107 -76l-59 71l118 130h96z" />
    <glyph glyph-name="wcircumflex" unicode="&#x175;" horiz-adv-x="855" 
d="M484 158h-26l-31 -158h-295l-73 512h-39v38h241l44 -466h77v466h136l44 -466h77v466h181l-110 -550h-226v158zM496 787l118 -130l-59 -71l-107 76l-107 -76l-59 71l118 130h96z" />
    <glyph glyph-name="Ycircumflex" unicode="&#x176;" horiz-adv-x="626" 
d="M626 597h-42l-133 -451v-108h84v-38h-443v38h84v108l-133 451h-43v38h266l82 -335h57v335h221v-38zM371 872l118 -130l-59 -71l-107 76l-107 -76l-59 71l118 130h96z" />
    <glyph glyph-name="ycircumflex" unicode="&#x177;" horiz-adv-x="598" 
d="M382 550h181l-105 -519q-23 -115 -92.5 -170.5t-162.5 -55.5q-21 0 -52.5 2t-52.5 6l20 157h122v53q0 20 -9 23t-21 3h-85l-66 463h-39v38h241l48 -501h73v501zM360 787l118 -130l-59 -71l-107 76l-107 -76l-59 71l118 130h96z" />
    <glyph glyph-name="Ydieresis" unicode="&#x178;" horiz-adv-x="626" 
d="M626 597h-42l-133 -451v-108h84v-38h-443v38h84v108l-133 451h-43v38h266l82 -335h57v335h221v-38zM291 767q0 -37 -5 -55t-18.5 -23t-39.5 -5q-29 0 -44.5 5t-21 23t-5.5 55q0 38 5.5 55.5t21 22.5t44.5 5q26 0 39.5 -5t18.5 -22.5t5 -55.5zM489 767q0 -37 -5 -55
t-18.5 -23t-39.5 -5q-29 0 -44.5 5t-21 23t-5.5 55q0 38 5.5 55.5t21 22.5t44.5 5q26 0 39.5 -5t18.5 -22.5t5 -55.5z" />
    <glyph glyph-name="Zacute" unicode="&#x179;" horiz-adv-x="557" 
d="M397 84l29 131h118l13 -215h-562l307 552h-107l-30 -131h-118l-12 215h487l32 -67l-285 -485h128zM179 763l211 102l49 -135l-227 -59z" />
    <glyph glyph-name="zacute" unicode="&#x17a;" horiz-adv-x="564" 
d="M371 73l34 113h102l11 -186h-503l287 477h-106l-34 -113h-102l-11 186h439l27 -58l-250 -419h106zM176 678l211 102l49 -135l-227 -59z" />
    <glyph glyph-name="Zdotaccent" unicode="&#x17b;" horiz-adv-x="557" 
d="M397 84l29 131h118l13 -215h-562l307 552h-107l-30 -131h-118l-12 215h487l32 -67l-285 -485h128zM309 850q61 0 79 -20t18 -70t-18 -70.5t-79 -20.5t-79 20.5t-18 70.5t18 70t79 20z" />
    <glyph glyph-name="zdotaccent" unicode="&#x17c;" horiz-adv-x="564" 
d="M371 73l34 113h102l11 -186h-503l287 477h-106l-34 -113h-102l-11 186h439l27 -58l-250 -419h106zM306 765q61 0 79 -20t18 -70t-18 -70.5t-79 -20.5t-79 20.5t-18 70.5t18 70t79 20z" />
    <glyph glyph-name="Zcaron" unicode="&#x17d;" horiz-adv-x="557" 
d="M397 84l29 131h118l13 -215h-562l307 552h-107l-30 -131h-118l-12 215h487l32 -67l-285 -485h128zM475 802l-118 -130h-96l-118 130l59 71l107 -76l107 76z" />
    <glyph glyph-name="zcaron" unicode="&#x17e;" horiz-adv-x="564" 
d="M371 73l34 113h102l11 -186h-503l287 477h-106l-34 -113h-102l-11 186h439l27 -58l-250 -419h106zM472 717l-118 -130h-96l-118 130l59 71l107 -76l107 76z" />
    <glyph glyph-name="florin" unicode="&#x192;" horiz-adv-x="575" 
d="M423 277h-123v-153q0 -75 -12 -122.5t-33 -74t-47.5 -38t-55.5 -14t-57 -2.5v404h-54v33h54v54q0 75 15 122.5t41 74t57.5 38t65 14t63.5 2.5q50 0 99 -9.5t80 -20.5l-45 -166h-84v131h-87v-240h123v-33z" />
    <glyph glyph-name="Aringacute" unicode="&#x1fa;" horiz-adv-x="602" 
d="M273 645q-51 0 -77 11.5t-35.5 36.5t-9.5 67t9.5 67.5t35.5 36.5t77 11l135 83l44 -122l-64 -17q7 -22 7 -59q0 -42 -9.5 -67t-35.5 -36.5t-77 -11.5zM273 717q26 0 33.5 6t7.5 37q0 29 -7.5 36t-33.5 7t-33.5 -7t-7.5 -36q0 -31 7.5 -37t33.5 -6zM196 0h-221v38h41
l87 559h-62v38h452l92 -597h42v-38h-290l-14 150h-127v-150zM196 575v-370h122l-33 370h-89z" />
    <glyph glyph-name="aringacute" unicode="&#x1fb;" horiz-adv-x="618" 
d="M92 379l-24 156q43 11 94.5 19t98.5 10q-42 8 -55.5 34.5t-13.5 76.5q0 42 9.5 67.5t35.5 36.5t77 11l135 83l44 -122l-64 -17q7 -22 7 -59q0 -53 -15 -79.5t-63 -32.5q44 -4 85.5 -18t68 -45t26.5 -85v-377h40v-38h-123l-40 76h-13q-14 -40 -31 -59.5t-44.5 -25.5
t-71.5 -6q-38 0 -76.5 3t-71 17.5t-52.5 48.5t-20 96q0 55 17 88t47 49.5t68 22t80 5.5h101v175h-114l-27 -111h-115zM314 632q26 0 33.5 6t7.5 37q0 29 -7.5 36t-33.5 7t-33.5 -7t-7.5 -36q0 -31 7.5 -37t33.5 -6zM348 76v164h-137v-164h137z" />
    <glyph glyph-name="AEacute" unicode="&#x1fc;" horiz-adv-x="886" 
d="M141 597v38h710v-214h-117l-41 154h-89v-236h191v-55h-191v-224h89l41 154h117v-214h-506v38h44v246h-144l-49 -284h-221v38h47l175 559h-56zM296 575l-41 -236h134v236h-93zM394 763l211 102l49 -135l-227 -59z" />
    <glyph glyph-name="aeacute" unicode="&#x1fd;" horiz-adv-x="891" 
d="M538 60h125l26 111h107l23 -156q-50 -13 -111.5 -21.5t-113.5 -8.5q-43 0 -78.5 5.5t-61.5 25t-40 60.5h-12q-14 -40 -31 -59.5t-44.5 -25.5t-71.5 -6q-38 0 -76.5 3t-71 17.5t-52.5 48.5t-20 96q0 55 17 88t47 49.5t68 22t80 5.5h101v175h-114l-27 -111h-115l-24 156
q51 14 113 22t114 8q44 0 84.5 -6t69.5 -27q30 25 73.5 29t96.5 4q42 0 80.5 -3t68 -17.5t46.5 -48.5t17 -96t-17 -96t-46.5 -48.5t-68 -17.5t-80.5 -3h-81v-175zM538 490v-180h137v180h-137zM348 76v164h-137v-164h137zM336 678l211 102l49 -135l-227 -59z" />
    <glyph glyph-name="Oslashacute" unicode="&#x1fe;" horiz-adv-x="620" 
d="M180 763l211 102l49 -135l-227 -59zM174 -66l16 55q-49 7 -87.5 31.5t-60.5 81t-22 160.5v112q0 83 16 135t45 81.5t67.5 42t83.5 15t93 2.5h27.5t26.5 -1l16 57h51l-17 -60q49 -7 87.5 -31t61 -80.5t22.5 -160.5v-112q0 -83 -16 -135.5t-45 -82t-67.5 -42t-83.5 -15
t-93 -2.5h-28t-28 1l-15 -52h-50zM235 579v-432l124 432h-124zM385 57v437l-126 -437h126z" />
    <glyph glyph-name="oslashacute" unicode="&#x1ff;" horiz-adv-x="647" 
d="M194 678l211 102l49 -135l-227 -59zM187 -68l19 58q-42 7 -75 30t-52 74t-19 142v78q0 75 14.5 122.5t41 74t61 38t75.5 14t85 2.5h27.5t26.5 -1l17 54h51l-19 -58q42 -7 75.5 -30t52.5 -74t19 -142v-78q0 -75 -14.5 -122.5t-41 -74t-61 -38t-75.5 -14t-85 -2.5h-28
t-28 1l-17 -54h-50zM250 490v-362l117 362h-117zM397 60v366l-119 -366h119z" />
    <glyph glyph-name="uni0218" unicode="&#x218;" horiz-adv-x="555" 
d="M271 -15q-38 0 -83.5 4.5t-90 12t-82.5 17.5l27 180h128l31 -128h111v75l-197 146q-42 31 -64 74t-22 113q0 58 21.5 92.5t58 51.5t84.5 22.5t100 5.5t114.5 -9.5t114.5 -24.5l-27 -180h-116l-27 128h-100v-75l197 -146q42 -31 64 -74t22 -113q0 -58 -21.5 -92.5
t-58.5 -51.5t-84.5 -22.5t-99.5 -5.5zM333 -119q0 -51 -17.5 -96t-55.5 -80l-44 6l13 100q-27 0 -41.5 13.5t-14.5 56.5q0 36 7 53t26.5 21.5t54.5 4.5q29 0 44.5 -4.5t21.5 -21.5t6 -53z" />
    <glyph glyph-name="uni0219" unicode="&#x219;" horiz-adv-x="570" 
d="M281 -15q-52 0 -116 8.5t-115 21.5l24 156h115l27 -111h114v72l-187 129q-40 27 -60.5 60t-20.5 94q0 51 19 81t52.5 45t76.5 19.5t91 4.5q47 0 104.5 -8t103.5 -22l-24 -156h-105l-24 111h-104v-72l187 -129q40 -27 60.5 -60t20.5 -94q0 -51 -19 -81t-52.5 -45
t-76.5 -19.5t-91 -4.5zM355 -119q0 -51 -17.5 -96t-55.5 -80l-44 6l13 100q-27 0 -41.5 13.5t-14.5 56.5q0 36 7 53t26.5 21.5t54.5 4.5q29 0 44.5 -4.5t21.5 -21.5t6 -53z" />
    <glyph glyph-name="uni021A" unicode="&#x21a;" horiz-adv-x="579" 
d="M574 635v-208h-117l-25 138h-57l22 -168v-359h84v-38h-383v38h84v359l22 168h-57l-25 -144h-117v214h569zM370 -119q0 -51 -17.5 -96t-55.5 -80l-44 6l13 100q-27 0 -41.5 13.5t-14.5 56.5q0 36 7 53t26.5 21.5t54.5 4.5q29 0 44.5 -4.5t21.5 -21.5t6 -53z" />
    <glyph glyph-name="uni021B" unicode="&#x21b;" horiz-adv-x="390" 
d="M40 550h50l108 118h72v-118h105v-48h-105v-452h57v99h48v-73q0 -57 -39 -74t-104 -17q-25 0 -52 3t-49.5 17.5t-36.5 48.5t-14 96v352h-40v48zM275 -119q0 -51 -17.5 -96t-55.5 -80l-44 6l13 100q-27 0 -41.5 13.5t-14.5 56.5q0 36 7 53t26.5 21.5t54.5 4.5
q29 0 44.5 -4.5t21.5 -21.5t6 -53z" />
    <glyph glyph-name="uni0237" unicode="&#x237;" horiz-adv-x="360" 
d="M98 -195q-21 0 -42 2t-42 6l20 157h122v53q0 20 -9 23t-21 3h-36v463h-40v38h230v-530q0 -114 -46.5 -164.5t-135.5 -50.5z" />
    <glyph glyph-name="circumflex" unicode="&#x2c6;" horiz-adv-x="402" 
d="M249 787l118 -130l-59 -71l-107 76l-107 -76l-59 71l118 130h96z" />
    <glyph glyph-name="caron" unicode="&#x2c7;" horiz-adv-x="402" 
d="M367 717l-118 -130h-96l-118 130l59 71l107 -76l107 76z" />
    <glyph glyph-name="breve" unicode="&#x2d8;" horiz-adv-x="402" 
d="M199 710q28 0 62 11.5t58 27.5q14 -22 23.5 -37.5t22.5 -37.5q-28 -43 -70.5 -64.5t-95.5 -21.5q-52 0 -95 21.5t-71 64.5q12 19 23.5 38t22.5 37q24 -16 58 -27.5t62 -11.5z" />
    <glyph glyph-name="dotaccent" unicode="&#x2d9;" horiz-adv-x="304" 
d="M152 765q61 0 79 -20t18 -70t-18 -70.5t-79 -20.5t-79 20.5t-18 70.5t18 70t79 20z" />
    <glyph glyph-name="ring" unicode="&#x2da;" horiz-adv-x="364" 
d="M182 790q51 0 77 -11t35.5 -36.5t9.5 -67.5t-9.5 -67t-35.5 -36.5t-77 -11.5t-77 11.5t-35.5 36.5t-9.5 67t9.5 67.5t35.5 36.5t77 11zM182 718q-26 0 -33.5 -7t-7.5 -36q0 -31 7.5 -37t33.5 -6t33.5 6t7.5 37q0 29 -7.5 36t-33.5 7z" />
    <glyph glyph-name="ogonek" unicode="&#x2db;" horiz-adv-x="249" 
d="M23 -87q0 53 44.5 83t125.5 42v-27q-33 -4 -46.5 -17.5t-13.5 -33.5q0 -16 10.5 -24t24.5 -8q16 0 33 6t29 13l10 -57q-19 -20 -54.5 -37.5t-70.5 -17.5q-39 0 -65.5 19t-26.5 59z" />
    <glyph glyph-name="tilde" unicode="&#x2dc;" horiz-adv-x="403" 
d="M378 741l-11 -57q-10 -55 -42 -78t-76 -23q-37 0 -64.5 16.5t-47.5 44.5h-12l-28 -51l-72 13l10 57q10 55 42 78.5t75 23.5q38 0 66 -16.5t47 -45.5h12l28 52z" />
    <glyph glyph-name="hungarumlaut" unicode="&#x2dd;" horiz-adv-x="495" 
d="M20 650l127 154l96 -103l-155 -121zM252 650l127 154l96 -103l-155 -121z" />
    <glyph glyph-name="gravecomb" unicode="&#x300;" 
d="M49 780l211 -102l-33 -92l-227 59z" />
    <glyph glyph-name="acutecomb" unicode="&#x301;" 
d="M51 678l211 102l49 -135l-227 -59z" />
    <glyph glyph-name="uni0302" unicode="&#x302;" 
d="M249 787l118 -130l-59 -71l-107 76l-107 -76l-59 71l118 130h96z" />
    <glyph glyph-name="tildecomb" unicode="&#x303;" 
d="M378 741l-11 -57q-10 -55 -42 -78t-76 -23q-37 0 -64.5 16.5t-47.5 44.5h-12l-28 -51l-72 13l10 57q10 55 42 78.5t75 23.5q38 0 66 -16.5t47 -45.5h12l28 52z" />
    <glyph glyph-name="uni0304" unicode="&#x304;" 
d="M40 610v124h292v-124h-292z" />
    <glyph glyph-name="uni0306" unicode="&#x306;" 
d="M199 710q28 0 62 11.5t58 27.5q14 -22 23.5 -37.5t22.5 -37.5q-28 -43 -70.5 -64.5t-95.5 -21.5q-52 0 -95 21.5t-71 64.5q12 19 23.5 38t22.5 37q24 -16 58 -27.5t62 -11.5z" />
    <glyph glyph-name="uni0307" unicode="&#x307;" 
d="M152 765q61 0 79 -20t18 -70t-18 -70.5t-79 -20.5t-79 20.5t-18 70.5t18 70t79 20z" />
    <glyph glyph-name="uni0308" unicode="&#x308;" 
d="M184 682q0 -37 -5 -55t-18.5 -23t-39.5 -5q-29 0 -44.5 5t-21 23t-5.5 55q0 38 5.5 55.5t21 22.5t44.5 5q26 0 39.5 -5t18.5 -22.5t5 -55.5zM382 682q0 -37 -5 -55t-18.5 -23t-39.5 -5q-29 0 -44.5 5t-21 23t-5.5 55q0 38 5.5 55.5t21 22.5t44.5 5q26 0 39.5 -5
t18.5 -22.5t5 -55.5z" />
    <glyph glyph-name="uni030A" unicode="&#x30a;" 
d="M182 790q51 0 77 -11t35.5 -36.5t9.5 -67.5t-9.5 -67t-35.5 -36.5t-77 -11.5t-77 11.5t-35.5 36.5t-9.5 67t9.5 67.5t35.5 36.5t77 11zM182 718q-26 0 -33.5 -7t-7.5 -36q0 -31 7.5 -37t33.5 -6t33.5 6t7.5 37q0 29 -7.5 36t-33.5 7z" />
    <glyph glyph-name="uni030B" unicode="&#x30b;" 
d="M20 650l127 154l96 -103l-155 -121zM252 650l127 154l96 -103l-155 -121z" />
    <glyph glyph-name="uni030C" unicode="&#x30c;" 
d="M367 717l-118 -130h-96l-118 130l59 71l107 -76l107 76z" />
    <glyph glyph-name="uni0312" unicode="&#x312;" 
d="M50 663q0 51 18 96t55 80l44 -6l-13 -100q27 0 41.5 -13.5t14.5 -56.5q0 -36 -7 -52.5t-26 -21.5t-55 -5q-29 0 -44.5 5t-21.5 21.5t-6 52.5z" />
    <glyph glyph-name="uni0326" unicode="&#x326;" 
d="M210 -119q0 -51 -17.5 -96t-55.5 -80l-44 6l13 100q-27 0 -41.5 13.5t-14.5 56.5q0 36 7 53t26.5 21.5t54.5 4.5q29 0 44.5 -4.5t21.5 -21.5t6 -53z" />
    <glyph glyph-name="uni0327" unicode="&#x327;" 
d="M236 -76q0 -35 -17 -54.5t-42.5 -27t-51.5 -7.5q-32 0 -61 5t-51 11l7 97h52l34 -52h27v110q22 0 45.5 -5.5t40.5 -23t17 -53.5z" />
    <glyph glyph-name="uni0328" unicode="&#x328;" 
d="M23 -87q0 53 44.5 83t125.5 42v-27q-33 -4 -46.5 -17.5t-13.5 -33.5q0 -16 10.5 -24t24.5 -8q16 0 33 6t29 13l10 -57q-19 -20 -54.5 -37.5t-70.5 -17.5q-39 0 -65.5 19t-26.5 59z" />
    <glyph glyph-name="uni0394" unicode="&#x394;" horiz-adv-x="666" 
d="M596 0h-526l148 600h251zM259 540l-122 -490h248l-105 490h-21z" />
    <glyph glyph-name="uni03A9" unicode="&#x3a9;" horiz-adv-x="620" 
d="M600 0h-215v544h-150v-544h-215v38h177v51q-50 6 -90.5 27.5t-63.5 72t-23 143.5v7q0 83 16 135t45 81.5t67.5 42t83.5 15t93 2.5q44 0 84.5 -2.5t75 -15t60.5 -42t40.5 -81.5t14.5 -135v-7q0 -93 -23 -143t-63 -70.5t-91 -27.5v-53h177v-38z" />
    <glyph glyph-name="uni03BC" unicode="&#x3bc;" horiz-adv-x="692" 
d="M80 -180v730h190v-474h147v474h190v-550h-83l-40 76h-13q0 -57 -42 -74t-113 -17q-16 0 -32.5 0.5t-33.5 1.5l-30 -167h-140z" />
    <glyph glyph-name="pi" unicode="&#x3c0;" horiz-adv-x="740" 
d="M710 467h-74l34 -482q-28 0 -59 2.5t-61 14t-55.5 38t-42.5 74t-22 122.5l-15 231h-110v-467h-205v467h-70v83h680v-83z" />
    <glyph glyph-name="Wgrave" unicode="&#x1e80;" horiz-adv-x="955" 
d="M552 182h-44l-35 -182h-339l-90 597h-44v38h288l54 -575h80v575h162l53 -575h80v575h238v-38h-43l-115 -597h-245v182zM427 865l211 -102l-33 -92l-227 59z" />
    <glyph glyph-name="wgrave" unicode="&#x1e81;" horiz-adv-x="855" 
d="M484 158h-26l-31 -158h-295l-73 512h-39v38h241l44 -466h77v466h136l44 -466h77v466h181l-110 -550h-226v158zM367 780l211 -102l-33 -92l-227 59z" />
    <glyph glyph-name="Wacute" unicode="&#x1e82;" horiz-adv-x="955" 
d="M552 182h-44l-35 -182h-339l-90 597h-44v38h288l54 -575h80v575h162l53 -575h80v575h238v-38h-43l-115 -597h-245v182zM378 763l211 102l49 -135l-227 -59z" />
    <glyph glyph-name="wacute" unicode="&#x1e83;" horiz-adv-x="855" 
d="M484 158h-26l-31 -158h-295l-73 512h-39v38h241l44 -466h77v466h136l44 -466h77v466h181l-110 -550h-226v158zM318 678l211 102l49 -135l-227 -59z" />
    <glyph glyph-name="Wdieresis" unicode="&#x1e84;" horiz-adv-x="955" 
d="M552 182h-44l-35 -182h-339l-90 597h-44v38h288l54 -575h80v575h162l53 -575h80v575h238v-38h-43l-115 -597h-245v182zM476 767q0 -37 -5 -55t-18.5 -23t-39.5 -5q-29 0 -44.5 5t-21 23t-5.5 55q0 38 5.5 55.5t21 22.5t44.5 5q26 0 39.5 -5t18.5 -22.5t5 -55.5zM674 767
q0 -37 -5 -55t-18.5 -23t-39.5 -5q-29 0 -44.5 5t-21 23t-5.5 55q0 38 5.5 55.5t21 22.5t44.5 5q26 0 39.5 -5t18.5 -22.5t5 -55.5z" />
    <glyph glyph-name="wdieresis" unicode="&#x1e85;" horiz-adv-x="855" 
d="M484 158h-26l-31 -158h-295l-73 512h-39v38h241l44 -466h77v466h136l44 -466h77v466h181l-110 -550h-226v158zM416 682q0 -37 -5 -55t-18.5 -23t-39.5 -5q-29 0 -44.5 5t-21 23t-5.5 55q0 38 5.5 55.5t21 22.5t44.5 5q26 0 39.5 -5t18.5 -22.5t5 -55.5zM614 682
q0 -37 -5 -55t-18.5 -23t-39.5 -5q-29 0 -44.5 5t-21 23t-5.5 55q0 38 5.5 55.5t21 22.5t44.5 5q26 0 39.5 -5t18.5 -22.5t5 -55.5z" />
    <glyph glyph-name="Ygrave" unicode="&#x1ef2;" horiz-adv-x="626" 
d="M626 597h-42l-133 -451v-108h84v-38h-443v38h84v108l-133 451h-43v38h266l82 -335h57v335h221v-38zM242 865l211 -102l-33 -92l-227 59z" />
    <glyph glyph-name="ygrave" unicode="&#x1ef3;" horiz-adv-x="598" 
d="M382 550h181l-105 -519q-23 -115 -92.5 -170.5t-162.5 -55.5q-21 0 -52.5 2t-52.5 6l20 157h122v53q0 20 -9 23t-21 3h-85l-66 463h-39v38h241l48 -501h73v501zM231 780l211 -102l-33 -92l-227 59z" />
    <glyph glyph-name="endash" unicode="&#x2013;" horiz-adv-x="608" 
d="M30 213v138h548v-138h-548z" />
    <glyph glyph-name="emdash" unicode="&#x2014;" horiz-adv-x="880" 
d="M30 213v138h820v-138h-820z" />
    <glyph glyph-name="quoteleft" unicode="&#x2018;" horiz-adv-x="263" 
d="M30 429q0 59 21 112t65 95l51 -8l-15 -117q32 0 49 -16t17 -66q0 -42 -8.5 -62t-30.5 -26t-64 -6q-34 0 -52.5 6t-25.5 26t-7 62z" />
    <glyph glyph-name="quoteright" unicode="&#x2019;" horiz-adv-x="263" 
d="M233 546q0 -59 -21 -112t-65 -95l-51 8l15 117q-31 0 -48.5 16t-17.5 66q0 43 8.5 62.5t31 25.5t63.5 6q35 0 53 -6t25 -25.5t7 -62.5z" />
    <glyph glyph-name="quotesinglbase" unicode="&#x201a;" horiz-adv-x="308" 
d="M248 94q0 -59 -21 -112t-65 -95l-51 8l15 117q-31 0 -48.5 16t-17.5 66q0 43 8.5 62.5t31 25.5t63.5 6q35 0 53 -6t25 -25.5t7 -62.5z" />
    <glyph glyph-name="quotedblleft" unicode="&#x201c;" horiz-adv-x="501" 
d="M30 429q0 59 21 112t65 95l51 -8l-15 -117q32 0 49 -16t17 -66q0 -42 -8.5 -62t-30.5 -26t-64 -6q-34 0 -52.5 6t-25.5 26t-7 62zM268 429q0 59 21 112t65 95l51 -8l-15 -117q32 0 49 -16t17 -66q0 -42 -8.5 -62t-30.5 -26t-64 -6q-34 0 -52.5 6t-25.5 26t-7 62z" />
    <glyph glyph-name="quotedblright" unicode="&#x201d;" horiz-adv-x="501" 
d="M471 546q0 -59 -21 -112t-65 -95l-51 8l15 117q-31 0 -48.5 16t-17.5 66q0 43 8.5 62.5t31 25.5t63.5 6q35 0 53 -6t25 -25.5t7 -62.5zM233 546q0 -59 -21 -112t-65 -95l-51 8l15 117q-31 0 -48.5 16t-17.5 66q0 43 8.5 62.5t31 25.5t63.5 6q35 0 53 -6t25 -25.5t7 -62.5
z" />
    <glyph glyph-name="quotedblbase" unicode="&#x201e;" horiz-adv-x="546" 
d="M486 94q0 -59 -21 -112t-65 -95l-51 8l15 117q-31 0 -48.5 16t-17.5 66q0 43 8.5 62.5t31 25.5t63.5 6q35 0 53 -6t25 -25.5t7 -62.5zM248 94q0 -59 -21 -112t-65 -95l-51 8l15 117q-31 0 -48.5 16t-17.5 66q0 43 8.5 62.5t31 25.5t63.5 6q35 0 53 -6t25 -25.5t7 -62.5z
" />
    <glyph glyph-name="dagger" unicode="&#x2020;" horiz-adv-x="478" 
d="M453 366h-135l35 -166v-350h-229v350l35 166h-134v68h134l-35 144v57h229v-57l-35 -144h135v-68z" />
    <glyph glyph-name="daggerdbl" unicode="&#x2021;" horiz-adv-x="478" 
d="M124 635h229v-57l-35 -144h135v-68h-143l36 -70v-107l-36 -70h143v-68h-135l35 -144v-57h-229v57l35 144h-134v68h142l-36 70v107l36 70h-142v68h134l-35 144v57z" />
    <glyph glyph-name="bullet" unicode="&#x2022;" horiz-adv-x="355" 
d="M295 269q0 -55 -9.5 -81t-33.5 -33.5t-68 -7.5q-51 0 -77.5 7.5t-36.5 33.5t-10 81q0 56 10 82.5t37 34.5t78 8q44 0 67.5 -8t33 -34.5t9.5 -82.5z" />
    <glyph glyph-name="ellipsis" unicode="&#x2026;" horiz-adv-x="924" 
d="M248 88q0 -44 -7.5 -65t-26.5 -27t-55 -6q-40 0 -61.5 6t-29.5 27t-8 65q0 45 8 66.5t29.5 27.5t62.5 6q35 0 54 -6t26.5 -27.5t7.5 -66.5zM556 88q0 -44 -7.5 -65t-26.5 -27t-55 -6q-40 0 -61.5 6t-29.5 27t-8 65q0 45 8 66.5t29.5 27.5t62.5 6q35 0 54 -6t26.5 -27.5
t7.5 -66.5zM864 88q0 -44 -7.5 -65t-26.5 -27t-55 -6q-40 0 -61.5 6t-29.5 27t-8 65q0 45 8 66.5t29.5 27.5t62.5 6q35 0 54 -6t26.5 -27.5t7.5 -66.5z" />
    <glyph glyph-name="perthousand" unicode="&#x2030;" horiz-adv-x="1177" 
d="M380 448v-84q0 -61 -16.5 -94t-42.5 -47.5t-57.5 -17.5t-61.5 -3q-28 0 -56.5 3t-52.5 17.5t-38.5 47.5t-14.5 94v84q0 61 16.5 94t43 47.5t58 17.5t61.5 3q27 0 55.5 -3t52.5 -17.5t38.5 -47.5t14.5 -94zM166 239h58l34 332h-58zM415 -48h-50l147 696h51zM888 240v-84
q0 -61 -16.5 -94t-42.5 -47.5t-57.5 -17.5t-61.5 -3q-28 0 -56.5 3t-52.5 17.5t-38.5 47.5t-14.5 94v84q0 61 16.5 94t43 47.5t58 17.5t61.5 3q27 0 55.5 -3t52.5 -17.5t38.5 -47.5t14.5 -94zM674 31h58l34 332h-58zM1137 240v-84q0 -61 -16.5 -94t-42.5 -47.5t-57.5 -17.5
t-61.5 -3q-28 0 -56.5 3t-52.5 17.5t-38.5 47.5t-14.5 94v84q0 61 16.5 94t43 47.5t58 17.5t61.5 3q27 0 55.5 -3t52.5 -17.5t38.5 -47.5t14.5 -94zM923 31h58l34 332h-58z" />
    <glyph glyph-name="guilsinglleft" unicode="&#x2039;" horiz-adv-x="257" 
d="M160 479l76 -64l-82 -134l83 -135l-77 -64l-145 156v86z" />
    <glyph glyph-name="guilsinglright" unicode="&#x203a;" horiz-adv-x="257" 
d="M242 324v-86l-145 -156l-77 64l83 135l-82 134l76 64z" />
    <glyph glyph-name="fraction" unicode="&#x2044;" horiz-adv-x="238" 
d="M70 -48h-50l147 696h51z" />
    <glyph glyph-name="uni2080" unicode="&#x2080;" horiz-adv-x="422" 
d="M381 240v-84q0 -61 -16.5 -94t-42.5 -47.5t-57.5 -17.5t-61.5 -3q-28 0 -56.5 3t-52.5 17.5t-38.5 47.5t-14.5 94v84q0 61 16.5 94t43 47.5t58 17.5t61.5 3q27 0 55.5 -3t52.5 -17.5t38.5 -47.5t14.5 -94zM167 31h58l34 332h-58z" />
    <glyph glyph-name="uni2081" unicode="&#x2081;" horiz-adv-x="278" 
d="M228 0h-172v220l81 21v24h-121l-16 83l176 55h52v-403z" />
    <glyph glyph-name="uni2082" unicode="&#x2082;" horiz-adv-x="381" 
d="M37 0l-10 25l200 338h-47l-63 -107h-54l-12 130q36 9 66 14.5t66 5.5t72.5 -6t60.5 -26t24 -63q0 -31 -16 -66t-48 -87l-72 -114h49l61 96h31l11 -140h-319z" />
    <glyph glyph-name="uni2083" unicode="&#x2083;" horiz-adv-x="384" 
d="M184 406q83 0 118 -26.5t35 -73.5t-21 -69.5t-56 -29.5v-4q38 -5 60.5 -26t22.5 -72q0 -53 -38.5 -84t-122.5 -31q-37 0 -73.5 5.5t-73.5 14.5l11 130h55l62 -107h55l-86 147h-30v36h38l86 147h-55l-62 -107h-54l-12 130q35 9 70 14.5t71 5.5z" />
    <glyph glyph-name="uni2084" unicode="&#x2084;" horiz-adv-x="371" 
d="M0 76v40l92 280h224v-265h35v-55h-35v-76h-162v76h-154zM118 356l-42 -236h78v236h-36z" />
    <glyph glyph-name="franc" unicode="&#x20a3;" horiz-adv-x="546" 
d="M0 176h74v386h-44v38h496v-194h-117l-41 134h-79v-221h181v-55h-181v-88h134v-33h-134v-105h124v-38h-383v38h44v105h-74v33z" />
    <glyph glyph-name="lira" unicode="&#x20a4;" horiz-adv-x="575" 
d="M41 246h54v72h-54v33h54v13q0 75 15 122.5t41 74t57.5 38t65 14t64.5 2.5q50 0 99.5 -9.5t78.5 -20.5l-45 -166h-84v131h-87v-199h123v-33h-123v-67v-5h123v-33h-124q-3 -60 -15.5 -98.5t-30.5 -61.5h121l34 109h91v-162h-458v33h54v180h-54v33z" />
    <glyph glyph-name="Euro" unicode="&#x20ac;" horiz-adv-x="576" 
d="M491 244h-224v-194h140v131h84l45 -166q-19 -7 -50 -14t-66.5 -11.5t-69.5 -4.5q-44 0 -86 2.5t-77.5 14t-63 39t-43.5 76.5t-18 127h-42v33h42v40h-42v33h42q1 79 17 129.5t43 78.5t63 40t78 14.5t87 2.5q34 0 69.5 -4.5t66.5 -11.5t50 -14l-45 -166h-84v131h-140v-200
h224v-33h-224v-40h224v-33z" />
    <glyph glyph-name="uni2113" unicode="&#x2113;" horiz-adv-x="390" 
d="M80 600l190 20v-570h57v99h48v-73q0 -57 -39 -74t-104 -17q-25 0 -52 3t-49.5 17.5t-36.5 48.5t-14 96v450z" />
    <glyph glyph-name="trademark" unicode="&#x2122;" horiz-adv-x="789" 
d="M530 401h10l36 239h163v-349h-118v316h-10l-48 -316h-102l-55 316h-10v-316h-40v349h132zM30 522v118h293v-114h-55l-13 75h-20v-310h-118v310h-19l-14 -79h-54z" />
    <glyph glyph-name="uni2126" unicode="&#x2126;" horiz-adv-x="620" 
d="M600 0h-215v544h-150v-544h-215v38h177v51q-50 6 -90.5 27.5t-63.5 72t-23 143.5v7q0 83 16 135t45 81.5t67.5 42t83.5 15t93 2.5q44 0 84.5 -2.5t75 -15t60.5 -42t40.5 -81.5t14.5 -135v-7q0 -93 -23 -143t-63 -70.5t-91 -27.5v-53h177v-38z" />
    <glyph glyph-name="estimated" unicode="&#x212e;" horiz-adv-x="600" 
d="M157 259v-181q62 -59 145 -59q124 0 193 120l35 -21q-34 -46 -66 -76t-70 -44.5t-92 -14.5q-82 0 -139.5 37.5t-88 100t-30.5 138.5q0 82 31 144t89 97t138 35q86 0 142 -37t85 -99.5t32 -139.5h-404zM448 295v145q-63 60 -147 60q-85 0 -144 -60v-145h291z" />
    <glyph glyph-name="partialdiff" unicode="&#x2202;" horiz-adv-x="647" 
d="M210 703q54 20 104 28.5t90 8.5q79 0 122 -22.5t60 -65.5t17 -105q0 -15 -1 -34t-4.5 -52.5t-10.5 -90.5t-18 -147q-11 -89 -39.5 -138t-69.5 -70t-91.5 -25.5t-105.5 -4.5q-45 0 -85.5 3t-72.5 17.5t-50.5 48t-18.5 94.5q0 96 23 155t65 90t99 41.5t124 10.5h30t29 -1
l26 205q-16 0 -43 -4t-58 -10.5t-60.5 -15.5t-50.5 -20zM359 60l38 310h-147l-38 -310h147z" />
    <glyph glyph-name="uni2206" unicode="&#x2206;" horiz-adv-x="666" 
d="M596 0h-526l148 600h251zM259 540l-122 -490h248l-105 490h-21z" />
    <glyph glyph-name="product" unicode="&#x220f;" horiz-adv-x="740" 
d="M710 517h-73l46 -532q-28 0 -58.5 2.5t-59.5 14t-54.5 38.5t-43 74t-24.5 122l-26 281h-112v-517h-205v517h-70v83h680v-83z" />
    <glyph glyph-name="summation" unicode="&#x2211;" horiz-adv-x="553" 
d="M533 517h-298l174 -279l-174 -335h308v-83h-513v63l174 355l-174 299v63h513z" />
    <glyph glyph-name="minus" unicode="&#x2212;" horiz-adv-x="540" 
d="M60 261v102h420v-102h-420z" />
    <glyph glyph-name="radical" unicode="&#x221a;" horiz-adv-x="652" 
d="M752 729v-38h-201l-127 -870h-257l-74 442h-63v38h260l72 -420h21l123 848h246z" />
    <glyph glyph-name="infinity" unicode="&#x221e;" horiz-adv-x="862" 
d="M630 103q-64 0 -109.5 37.5t-83.5 95.5q-40 -68 -90 -100.5t-120 -32.5q-48 0 -88.5 25t-64.5 72.5t-24 113.5q0 61 24 107t65 72t92 26q65 0 110.5 -37.5t83.5 -94.5q40 68 90 100t120 32q48 0 88.5 -25t64.5 -72t24 -114q0 -60 -24 -106.5t-65 -72.5t-93 -26zM615 427
q-38 0 -76 -33t-61 -89q29 -45 62.5 -77t74.5 -32q46 0 74 30t28 83q0 52 -28 85t-74 33zM247 195q38 0 76 33t61 90q-28 44 -61.5 76t-75.5 32q-46 0 -74 -30t-28 -83q0 -52 28 -85t74 -33z" />
    <glyph glyph-name="integral" unicode="&#x222b;" horiz-adv-x="395" 
d="M305 550v-494q0 -75 -15.5 -122.5t-42 -74t-59 -38t-66.5 -14t-64 -2.5q-17 0 -34.5 1.5t-34.5 3.5l9 60h92v494q0 75 15.5 122.5t42 74t59 38t66.5 14t64 2.5q17 0 34.5 -1.5t34.5 -3.5l-9 -60h-92z" />
    <glyph glyph-name="approxequal" unicode="&#x2248;" horiz-adv-x="540" 
d="M60 361v102q23 -10 45 -14.5t44 -4.5q41 0 81 9.5t80.5 18.5t80.5 9q23 0 45 -4t44 -14v-102q-22 11 -44 15t-44 4q-40 0 -80.5 -10t-81 -19.5t-81.5 -9.5q-46 0 -89 20zM60 161v102q23 -11 45 -15.5t44 -4.5q41 0 81.5 9.5t81 19.5t80.5 10q22 0 44 -4t44 -15v-102
q-22 11 -44 15.5t-45 4.5q-40 0 -80.5 -10l-81 -20t-80.5 -10q-22 0 -44.5 4.5t-44.5 15.5z" />
    <glyph glyph-name="notequal" unicode="&#x2260;" horiz-adv-x="540" 
d="M60 361v102h420v-102h-420zM60 161v102h420v-102h-420zM184 -122h-50l221 858h51z" />
    <glyph glyph-name="lessequal" unicode="&#x2264;" horiz-adv-x="540" 
d="M60 368v97l420 180v-102l-312 -127l312 -126v-102zM60 0v102h420v-102h-420z" />
    <glyph glyph-name="greaterequal" unicode="&#x2265;" horiz-adv-x="540" 
d="M480 465v-97l-420 -180v102l312 126l-312 127v102zM60 0v102h420v-102h-420z" />
    <glyph glyph-name="lozenge" unicode="&#x25ca;" horiz-adv-x="626" 
d="M414 600l162 -357l-183 -357h-181l-162 357l183 357h181zM387 13l116 230l-226 230h-39l-116 -230l227 -230h38z" />
    <glyph glyph-name="uniF8FF" unicode="&#xf8ff;" horiz-adv-x="923" 
d="M556 -89q-13 -4 -24 -13.5t-24 -9.5q-11 0 -23 5t-23 5q-12 0 -23.5 -6t-22.5 -6q-10 0 -18 6.5t-16.5 12.5t-20.5 6q-6 0 -12.5 -1t-11.5 -1q-19 0 -30 15.5t-21 20.5q-17 9 -25.5 7.5t-20.5 5.5q-13 8 -16.5 23t-13.5 23t-20.5 10t-18.5 14q-8 14 -7.5 24t-7.5 23
q-6 9 -20 19.5t-14 29.5q0 7 1.5 13t1.5 12q0 14 -12.5 26.5t-12.5 28.5q0 11 6 22t6 22q0 13 -6 22t-6 20q0 16 12.5 31.5t12.5 29.5q0 6 -0.5 12.5t-0.5 12.5q0 19 14 27t21 21q5 8 5.5 21.5t5.5 21.5q6 10 19 13t21 11t12.5 21t12.5 20q10 8 24.5 9.5t26.5 7.5
q13 7 21.5 22t27.5 16q6 0 12.5 -1t13.5 -1q13 0 21 6t15.5 11.5t18.5 5.5q10 0 22 -6t22 -6q11 0 23 6t22 6q13 0 21 -6t16 -12.5t20 -6.5q6 0 13.5 1.5t14.5 1.5q14 0 20.5 -7t12.5 -15.5t15 -13.5q11 -6 23 -6.5t22 -8.5q10 -7 12 -18.5t11 -20.5q11 -10 27 -16t24 -20
q5 -7 4 -20.5t3 -21.5q6 -9 14.5 -14.5t15 -13t6.5 -21.5q0 -7 -0.5 -13t-0.5 -12q0 -19 12 -31.5t12 -29.5q0 -10 -5.5 -19.5t-5.5 -19.5q0 -11 5.5 -22t5.5 -22q-1 -10 -7.5 -16t-12 -12.5t-5.5 -19.5q0 -8 1 -16t1 -16q0 -14 -6.5 -21t-14.5 -11.5t-13 -13.5
q-6 -10 -8 -25.5t-10 -25.5q-7 -8 -17 -11t-18 -11q-9 -9 -14.5 -22.5t-15.5 -20.5t-24 -9.5t-25 -8.5q-13 -7 -19 -18t-26 -11q-6 0 -11.5 0.5t-11.5 0.5h-5t-5 -1zM530 3q3 1 9 1q4 0 7.5 -0.5t7.5 -0.5q15 0 19.5 8.5t13.5 12.5q8 5 18 7t17 7q8 5 12 14.5t10 15.5
q5 6 13 8t13 8q5 8 7 19t6 19q6 11 15 14t9 21q0 5 -0.5 10.5t-0.5 9.5q0 14 8 20t10 16q0 8 -4 16t-4 16q0 7 4 14t4 14q0 12 -9 22t-9 23q0 4 0.5 8.5t0.5 8.5q0 16 -10 21t-16 15q-3 6 -2.5 15.5t-2.5 15.5q-6 10 -17.5 14.5t-19.5 11.5q-7 6 -8 14.5t-9 13.5
q-7 6 -15.5 6t-17.5 5q-10 5 -14.5 15.5t-19.5 10.5q-5 0 -10 -1t-10 -1q-14 0 -20.5 9t-20.5 9q-8 0 -16.5 -4.5t-16.5 -4.5q-7 0 -15.5 4.5t-16.5 4.5q-12 0 -20 -8.5t-22 -8.5q-4 0 -8 0.5t-9 0.5q-14 0 -20 -11t-16 -16q-8 -4 -18.5 -5t-17.5 -7q-7 -5 -10 -14.5
t-9 -15.5t-15 -8t-14 -9q-4 -6 -4 -15.5t-4 -15.5q-5 -10 -15.5 -16t-10.5 -20q0 -4 0.5 -8t0.5 -8q0 -12 -8.5 -23t-8.5 -23q0 -8 4 -14.5t4 -15.5q0 -8 -4 -16.5t-4 -16.5q0 -11 8.5 -20.5t8.5 -20.5q0 -4 -1 -8t-1 -8q0 -14 10.5 -21t14.5 -14q6 -10 5.5 -17.5t5.5 -17.5
q5 -8 13 -9.5t15 -7.5q8 -6 10 -17t12 -17q8 -6 14 -4t19 -5q8 -4 15.5 -15t21.5 -11q4 0 7.5 0.5t7.5 0.5q14 0 22 -8t18 -10q9 0 18 4.5t18 4.5q8 0 16.5 -3.5t16.5 -3.5q9 0 17 7t18 9zM462 417q47 0 85.5 -23t61.5 -61.5t23 -85.5t-23 -85.5t-61.5 -61.5t-85.5 -23
t-85.5 23t-61.5 61.5t-23 85.5t23 85.5t61.5 61.5t85.5 23zM505 292h52v68h-191v-68h54v-175h85v175z" />
    <glyph glyph-name="i.loclTRK" horiz-adv-x="355" 
d="M315 0h-270v38h40v474h-40v38h230v-512h40v-38zM178 765q61 0 79 -20t18 -70t-18 -70.5t-79 -20.5t-79 20.5t-18 70.5t18 70t79 20z" />
    <glyph glyph-name="uni030C.alt" 
d="M195 699q0 -51 -17.5 -96t-55.5 -80l-44 6l13 100q-27 0 -41.5 13.5t-14.5 56.5q0 36 7 53t26.5 21.5t54.5 4.5q29 0 44.5 -4.5t21.5 -21.5t6 -53z" />
    <glyph glyph-name="uni0308.case" 
d="M184 767q0 -37 -5 -55t-18.5 -23t-39.5 -5q-29 0 -44.5 5t-21 23t-5.5 55q0 38 5.5 55.5t21 22.5t44.5 5q26 0 39.5 -5t18.5 -22.5t5 -55.5zM382 767q0 -37 -5 -55t-18.5 -23t-39.5 -5q-29 0 -44.5 5t-21 23t-5.5 55q0 38 5.5 55.5t21 22.5t44.5 5q26 0 39.5 -5
t18.5 -22.5t5 -55.5z" />
    <glyph glyph-name="uni0307.case" 
d="M152 850q61 0 79 -20t18 -70t-18 -70.5t-79 -20.5t-79 20.5t-18 70.5t18 70t79 20z" />
    <glyph glyph-name="gravecomb.case" 
d="M49 865l211 -102l-33 -92l-227 59z" />
    <glyph glyph-name="acutecomb.case" 
d="M51 763l211 102l49 -135l-227 -59z" />
    <glyph glyph-name="uni030B.case" 
d="M20 735l127 154l96 -103l-155 -121zM252 735l127 154l96 -103l-155 -121z" />
    <glyph glyph-name="uni0302.case" 
d="M249 872l118 -130l-59 -71l-107 76l-107 -76l-59 71l118 130h96z" />
    <glyph glyph-name="uni030C.case" 
d="M367 802l-118 -130h-96l-118 130l59 71l107 -76l107 76z" />
    <glyph glyph-name="uni0306.case" 
d="M199 795q28 0 62 11.5t58 27.5q14 -22 23.5 -37.5t22.5 -37.5q-28 -43 -70.5 -64.5t-95.5 -21.5q-52 0 -95 21.5t-71 64.5q12 19 23.5 38t22.5 37q24 -16 58 -27.5t62 -11.5z" />
    <glyph glyph-name="uni030A.case" 
d="M182 875q51 0 77 -11t35.5 -36.5t9.5 -67.5t-9.5 -67t-35.5 -36.5t-77 -11.5t-77 11.5t-35.5 36.5t-9.5 67t9.5 67.5t35.5 36.5t77 11zM182 803q-26 0 -33.5 -7t-7.5 -36q0 -31 7.5 -37t33.5 -6t33.5 6t7.5 37q0 29 -7.5 36t-33.5 7z" />
    <glyph glyph-name="tildecomb.case" 
d="M378 826l-11 -57q-10 -55 -42 -78t-76 -23q-37 0 -64.5 16.5t-47.5 44.5h-12l-28 -51l-72 13l10 57q10 55 42 78.5t75 23.5q38 0 66 -16.5t47 -45.5h12l28 52z" />
    <glyph glyph-name="uni0304.case" 
d="M40 695v124h292v-124h-292z" />
    <glyph glyph-name="uni0326.salt" 
d="M72 663q0 51 18 96t55 80l44 -6l-13 -100q27 0 41.5 -13.5t14.5 -56.5q0 -36 -7 -52.5t-26 -21.5t-55 -5q-29 0 -44.5 5t-21.5 21.5t-6 52.5z" />
    <glyph glyph-name="dieresis.case" horiz-adv-x="432" 
d="M184 767q0 -37 -5 -55t-18.5 -23t-39.5 -5q-29 0 -44.5 5t-21 23t-5.5 55q0 38 5.5 55.5t21 22.5t44.5 5q26 0 39.5 -5t18.5 -22.5t5 -55.5zM382 767q0 -37 -5 -55t-18.5 -23t-39.5 -5q-29 0 -44.5 5t-21 23t-5.5 55q0 38 5.5 55.5t21 22.5t44.5 5q26 0 39.5 -5
t18.5 -22.5t5 -55.5z" />
    <glyph glyph-name="dotaccent.case" horiz-adv-x="304" 
d="M152 850q61 0 79 -20t18 -70t-18 -70.5t-79 -20.5t-79 20.5t-18 70.5t18 70t79 20z" />
    <glyph glyph-name="grave.case" horiz-adv-x="311" 
d="M49 865l211 -102l-33 -92l-227 59z" />
    <glyph glyph-name="acute.case" horiz-adv-x="311" 
d="M51 763l211 102l49 -135l-227 -59z" />
    <glyph glyph-name="hungarumlaut.case" horiz-adv-x="495" 
d="M20 735l127 154l96 -103l-155 -121zM252 735l127 154l96 -103l-155 -121z" />
    <glyph glyph-name="circumflex.case" horiz-adv-x="402" 
d="M249 872l118 -130l-59 -71l-107 76l-107 -76l-59 71l118 130h96z" />
    <glyph glyph-name="caron.case" horiz-adv-x="402" 
d="M367 802l-118 -130h-96l-118 130l59 71l107 -76l107 76z" />
    <glyph glyph-name="breve.case" horiz-adv-x="402" 
d="M199 795q28 0 62 11.5t58 27.5q14 -22 23.5 -37.5t22.5 -37.5q-28 -43 -70.5 -64.5t-95.5 -21.5q-52 0 -95 21.5t-71 64.5q12 19 23.5 38t22.5 37q24 -16 58 -27.5t62 -11.5z" />
    <glyph glyph-name="ring.case" horiz-adv-x="364" 
d="M182 875q51 0 77 -11t35.5 -36.5t9.5 -67.5t-9.5 -67t-35.5 -36.5t-77 -11.5t-77 11.5t-35.5 36.5t-9.5 67t9.5 67.5t35.5 36.5t77 11zM182 803q-26 0 -33.5 -7t-7.5 -36q0 -31 7.5 -37t33.5 -6t33.5 6t7.5 37q0 29 -7.5 36t-33.5 7z" />
    <glyph glyph-name="tilde.case" horiz-adv-x="403" 
d="M378 826l-11 -57q-10 -55 -42 -78t-76 -23q-37 0 -64.5 16.5t-47.5 44.5h-12l-28 -51l-72 13l10 57q10 55 42 78.5t75 23.5q38 0 66 -16.5t47 -45.5h12l28 52z" />
    <glyph glyph-name="macron.case" horiz-adv-x="372" 
d="M40 695v124h292v-124h-292z" />
    <glyph glyph-name="caron.salt" horiz-adv-x="160" 
d="M160 699q0 -51 -17.5 -96t-55.5 -80l-44 6l13 100q-27 0 -41.5 13.5t-14.5 56.5q0 36 7 53t26 21.5t55 4.5q29 0 44.5 -4.5t21.5 -21.5t6 -53z" />
    </font>
</defs>
</svg>
